<?xml version="1.0" standalone="no"?>
<!DOCTYPE svg PUBLIC "-//W3C//DTD SVG 1.1//EN" "http://www.w3.org/Graphics/SVG/1.1/DTD/svg11.dtd" >
<svg xmlns="http://www.w3.org/2000/svg" xmlns:xlink="http://www.w3.org/1999/xlink" version="1.1">
<metadata>
Created by FontForge 20161003 at Mon Oct 16 15:41:10 2017
 By www-data
Copyright (c) 2013 by Frank Hemmekam. All rights reserved.
</metadata>
<defs>
<font id="OdinRoundedBold" horiz-adv-x="547" >
  <font-face 
    font-family="OdinRoundedBold"
    font-weight="700"
    font-stretch="normal"
    units-per-em="1000"
    panose-1="2 15 0 0 0 0 0 0 0 0"
    ascent="800"
    descent="-200"
    x-height="467"
    cap-height="700"
    bbox="-15 -1044 3336 937"
    underline-thickness="50"
    underline-position="-150"
    unicode-range="U+0020-FB02"
  />
<missing-glyph horiz-adv-x="360" 
 />
    <glyph glyph-name="AE" unicode="AELIGA" horiz-adv-x="867" 
d="M604 117h165q24 0 41 -17t17 -42q0 -24 -17 -41t-41 -17h-204q-39 0 -54 37l-44 109h-271l-44 -109q-7 -17 -21.5 -27t-32.5 -10q-25 0 -41.5 18t-16.5 41q0 12 4 21l233 583q15 37 55 37h236q24 0 41.5 -17t17.5 -41q0 -25 -17.5 -42t-41.5 -17h-150l70 -175h164
q25 0 42 -17t17 -41t-17 -41t-42 -17h-118zM243 262h177l-88 223z" />
    <glyph glyph-name="OE" unicode="OELIGA" horiz-adv-x="652" 
d="M404 117h150q24 0 41 -17t17 -42q0 -24 -17 -41t-41 -17h-208q-127 0 -216.5 102.5t-89.5 247.5q0 88 37.5 167.5t109.5 131t162 51.5h205q24 0 41 -17t17 -41q0 -25 -17 -42t-41 -17h-150v-175h117q24 0 41 -17t17 -41t-17 -41t-41 -17h-117v-175zM288 128v444
q-58 -23 -94.5 -84t-36.5 -138t36.5 -138t94.5 -84z" />
    <glyph glyph-name="t_h_e" unicode="thesmall" horiz-adv-x="1334" 
d="M157 583h-59q-24 0 -41 17t-17 42q0 24 17 41t41 17h239q25 0 42 -17t17 -41q0 -25 -17 -42t-42 -17h-64v-350q0 -24 -17 -41t-41 -17t-41 17t-17 41v350zM536 175q-25 0 -42 17t-17 41v409q0 24 17 41t42 17q24 0 41 -17t17 -41v-146h147v146q0 24 17 41t41 17
q25 0 42 -17t17 -41v-409q0 -24 -17 -41t-42 -17q-24 0 -41 17t-17 41v146h-147v-146q0 -24 -17 -41t-41 -17zM1061 292h175q24 0 41 -17t17 -42q0 -24 -17 -41t-41 -17h-234q-24 0 -41 17t-17 41v397q0 25 17 42t41 17h234q24 0 41 -17t17 -42q0 -24 -17 -41t-41 -17h-175
v-76h116q24 0 41.5 -17t17.5 -42q0 -24 -17.5 -41t-41.5 -17h-116v-87zM127 117h1109q24 0 41 -17t17 -42q0 -24 -17 -41t-41 -17h-1109q-24 0 -41 17t-17 41q0 25 17 42t41 17z" />
    <glyph glyph-name="ampersand1" unicode="andsmall" horiz-adv-x="508" 
d="M418 316l37 -46q13 -16 13 -36q0 -24 -17.5 -41.5t-41.5 -17.5q-28 0 -45 22l-26 32l-13 -14q-48 -40 -111 -40q-72 0 -123 51t-51 123q0 48 24.5 88.5t64.5 63.5q-9 26 -9 52q0 61 42.5 104t103.5 43t104 -43t43 -104q0 -24 -17 -41t-41 -17t-41.5 17t-17.5 41
q0 13 -8.5 21.5t-21.5 8.5q-12 0 -21 -8.5t-9 -21.5q0 -11 7 -18l101 -127l22 24q18 19 43 19q24 0 41 -17t17 -41q0 -23 -15 -40zM248 303l16 18l-66 83q-18 -5 -29.5 -20.5t-11.5 -34.5q0 -24 16.5 -40.5t40.5 -16.5q19 0 34 11zM380 0h-262q-25 0 -42 17t-17 41
q0 25 17 42t42 17h262q24 0 41 -17t17 -42q0 -24 -17 -41t-41 -17z" />
    <glyph glyph-name="b_a_r_o_n" unicode="Baron" horiz-adv-x="2987" 
d="M417 400q90 -59 90 -181q0 -96 -64.5 -157.5t-140.5 -61.5h-204q-24 0 -41 17t-17 41v584q0 24 17 41t41 17h161q44 0 91 -23q98 -49 98 -167q0 -64 -31 -110zM157 583v-146h87q10 0 21 2t28 8t28 22.5t11 40.5q0 31 -13.5 48.5t-25.5 21t-26 3.5h-8h-102zM347 131
q43 24 43 88q0 36 -23.5 69t-71.5 33h-138v-204h138q26 0 52 14zM937 663l233 -583q4 -9 4 -22q0 -23 -16.5 -40.5t-41.5 -17.5q-18 0 -32.5 10t-21.5 27l-44 109h-271l-44 -109q-7 -17 -21.5 -27t-32.5 -10q-25 0 -41.5 17.5t-16.5 40.5q0 13 4 22l233 583q15 37 55 37
q17 0 32 -10.5t22 -26.5zM794 262h177l-88 223zM1593 272l114 -183q9 -15 9 -31q0 -23 -16.5 -40.5t-41.5 -17.5q-33 0 -50 28l-131 209q-30 -4 -52 -4h-59v-175q0 -24 -17 -41t-41 -17t-41 17t-17 41v584q0 24 17 41t41 17h117q69 0 137 -26q74 -28 114 -81.5t40 -125.5
q0 -132 -123 -195zM1366 350h59q50 0 98 19q77 30 77 98t-79 98q-21 8 -45 12.5t-38 4.5l-13 1h-59v-233zM2063 175q-103 0 -175.5 77t-72.5 186q0 108 72.5 185t175.5 77t175.5 -77t72.5 -185q0 -109 -72.5 -186t-175.5 -77zM2063 583q-55 0 -93 -42.5t-38 -102.5
q0 -61 38 -103.5t93 -42.5q54 0 92.5 42.5t38.5 103.5q0 60 -38.5 102.5t-92.5 42.5zM1902 117h321q24 0 41.5 -17t17.5 -42q0 -24 -17.5 -41t-41.5 -17h-321q-24 0 -41 17t-17 41q0 25 17 42t41 17zM2889 0q-31 0 -48 25l-302 432v-399q0 -24 -17.5 -41t-41.5 -17t-41 17
t-17 41v584q0 23 17 40.5t42 17.5q30 0 47 -25l302 -432v399q0 24 17 41t42 17q24 0 41 -17t17 -41v-584q0 -23 -17 -40.5t-41 -17.5z" />
    <glyph glyph-name="n_e_w" unicode="newsmall" horiz-adv-x="1684" 
d="M98 117h1487q25 0 42 -17t17 -42q0 -24 -17 -41t-42 -17h-1487q-24 0 -41 17t-17 41q0 25 17 42t41 17zM127 175q-24 0 -41 17t-17 41v409q0 19 11.5 34.5t29.5 20.5q9 3 18 3q30 0 47 -25l180 -257v224q0 24 17 41t41 17t41.5 -17t17.5 -41v-409q0 -19 -11.5 -34.5
t-29.5 -20.5q-9 -3 -18 -3q-29 0 -48 25l-179 257v-224q0 -24 -17 -41t-42 -17zM856 185h-233q-24 0 -41 17t-17 41v397q0 24 17 41t41 17h233q25 0 42 -17t17 -41t-17 -41t-42 -17h-175v-77h117q24 0 41 -17t17 -41t-17 -41t-41 -17h-117v-88h175q25 0 42 -17t17 -41
t-17 -41t-42 -17zM1177 211l-170 408q-5 13 -5 23q0 38 36 53q13 5 23 5q38 0 53 -36l117 -279l28 68l-69 166q-4 9 -4 22q0 40 36 54q12 5 23 5q37 0 53 -36l25 -59l24 59q15 36 54 36q10 0 23 -5q35 -14 35 -54q0 -13 -4 -22l-69 -166l28 -68l117 279q15 36 53 36
q10 0 23 -5q36 -15 36 -53q0 -10 -5 -23l-170 -408q-15 -36 -54 -36t-54 36l-37 91l-38 -91q-15 -36 -54 -36t-54 36z" />
    <glyph glyph-name="n_o_1" unicode="nosmall" horiz-adv-x="1192" 
d="M904 175q-102 0 -175 77t-73 185q0 109 73 186t175 77q103 0 175.5 -77t72.5 -186q0 -108 -72.5 -185t-175.5 -77zM904 583q-54 0 -92.5 -42.5t-38.5 -103.5q0 -60 38.5 -102.5t92.5 -42.5q55 0 93.5 42.5t38.5 102.5q0 61 -38.5 103.5t-93.5 42.5zM963 58q0 -24 -17 -41
t-42 -17q-24 0 -41 17t-17 41q0 25 17 42t41 17q25 0 42 -17t17 -42zM507 0q-31 0 -48 25l-302 432v-399q0 -24 -17.5 -41t-41.5 -17t-41 17t-17 41v584q0 19 11 34t30 21q6 2 17 2q32 0 48 -24l302 -432v399q0 24 17 41t42 17q24 0 41 -17t17 -41v-584q0 -23 -17 -40.5
t-41 -17.5z" />
    <glyph glyph-name="l_t_d" unicode="ltdsmall" horiz-adv-x="1241" 
d="M339 175h-241q-24 0 -41 17t-17 41v402q0 24 17 41.5t41 17.5t41.5 -17.5t17.5 -41.5v-343h182q25 0 42 -17t17 -42q0 -24 -17 -41t-42 -17zM477 583h-58q-24 0 -41 17t-17 42q0 24 17 41t41 17h239q24 0 41.5 -17t17.5 -41q0 -25 -17.5 -42t-41.5 -17h-64v-350
q0 -24 -17 -41t-41 -17q-25 0 -42 17t-17 41v350zM976 175h-120q-24 0 -41 17t-17 41v409q0 24 17 41t41 17h120q57 0 113 -34q112 -68 112 -228q0 -161 -112 -229q-56 -34 -113 -34zM915 583v-291h60q30 0 57 19q52 35 52 127q0 91 -52 126q-27 19 -57 19h-60zM98 117h1040
q25 0 42 -17t17 -42q0 -24 -17 -41t-42 -17h-1040q-24 0 -41 17t-17 41q0 25 17 42t41 17z" />
    <glyph glyph-name="w_i_t_h" unicode="withsmall" horiz-adv-x="1829" 
d="M269 175q-39 0 -54 36l-171 408q-4 9 -4 22q0 40 36 54q13 5 23 5q38 0 53 -36l117 -279l28 68l-69 166q-5 12 -5 23q0 38 36 53q13 5 23 5q39 0 54 -36l24 -59l25 59q14 36 54 36q13 0 22 -4q36 -16 36 -55q0 -13 -4 -22l-70 -166l29 -68l116 279q17 36 54 36
q10 0 23 -5q35 -14 35 -54q0 -13 -4 -22l-170 -408q-15 -36 -54 -36t-54 36l-38 91l-38 -91q-15 -36 -53 -36zM826 175q-24 0 -41 17t-17 41v409q0 24 17 41t41 17q25 0 42 -17t17 -41v-409q0 -24 -17 -41t-42 -17zM1088 583h-59q-24 0 -41 17t-17 42q0 24 17 41t41 17h239
q25 0 42 -17t17 -41q0 -25 -17 -42t-42 -17h-64v-350q0 -24 -17 -41t-41 -17t-41 17t-17 41v350zM1730 700q25 0 42 -17t17 -41v-409q0 -24 -17 -41t-42 -17q-24 0 -41 17t-17 41v146h-147v-146q0 -24 -17 -41t-41 -17q-25 0 -42 17t-17 41v409q0 24 17 41t42 17
q24 0 41 -17t17 -41v-146h147v146q0 24 17 41t41 17zM156 117h1574q25 0 42 -17t17 -42q0 -24 -17 -41t-42 -17h-1574q-25 0 -42 17t-17 41q0 25 17 42t42 17z" />
    <glyph glyph-name="f_i_v_e" unicode="fivestripe" horiz-adv-x="1101" 
d="M1054 610q7 -11 7 -27q0 -35 -32 -51l-114 -59v-415q0 -24 -17 -41t-41 -17q-25 0 -42 17t-17 41v354l-87 -45v-309q0 -24 -17 -41t-42 -17q-24 0 -41 17t-17 41v249l-87 -45v-204q0 -24 -17 -41t-42 -17q-24 0 -41 17t-17 41v144l-88 -46v-98q0 -24 -17 -41t-41 -17
t-41 17t-17 41v38l-61 -31q-16 -7 -27 -7q-34 0 -52 32q-6 12 -6 26q0 36 32 53l114 59v414q0 24 17 41t41 17t41 -17t17 -41v-354l88 45v309q0 24 17 41t41 17q25 0 42 -17t17 -41v-249l87 45v204q0 24 17 41t41 17q25 0 42 -17t17 -41v-143l87 45v98q0 24 17 41t42 17
q24 0 41 -17t17 -41v-38l61 31q11 7 27 7q35 0 51 -32z" />
    <glyph glyph-name=".notdef" horiz-adv-x="360" 
 />
    <glyph glyph-name=".null" horiz-adv-x="0" 
 />
    <glyph glyph-name="nonmarkingreturn" horiz-adv-x="333" 
 />
    <glyph glyph-name="space" unicode=" " horiz-adv-x="268" 
 />
    <glyph glyph-name="exclam" unicode="!" horiz-adv-x="197" 
d="M98 700q24 0 41.5 -17t17.5 -41v-409q0 -24 -17.5 -41t-41.5 -17t-41 17t-17 41v409q0 24 17 41t41 17zM98 117q24 0 41.5 -17t17.5 -42q0 -24 -17.5 -41t-41.5 -17t-41 17t-17 41q0 25 17 42t41 17z" />
    <glyph glyph-name="quotedbl" unicode="&#x22;" horiz-adv-x="384" 
d="M98 496q-9 0 -18 3q-40 13 -40 55q0 10 3 19l29 87q6 18 21.5 29t33.5 11q10 0 19 -3q18 -6 29 -21.5t11 -33.5q0 -9 -32 -106q-6 -18 -21.5 -29t-34.5 -11zM256 497q-9 0 -18 3q-40 13 -40 55q0 10 3 19l29 87q6 18 21.5 29t33.5 11q10 0 19 -3q18 -6 29 -21.5t11 -33.5
q0 -9 -32 -106q-6 -18 -21.5 -29t-34.5 -11z" />
    <glyph glyph-name="numbersign" unicode="#" horiz-adv-x="692" 
d="M594 408h-64l-18 -116h53q24 0 41 -17.5t17 -41.5t-17 -41t-41 -17h-71l-19 -125q-4 -21 -21 -35.5t-36 -14.5q-25 0 -42 17.5t-17 41.5q0 1 1 10q6 39 16 106h-113l-20 -125q-4 -22 -20 -36t-37 -14q-25 0 -42 17.5t-17 41.5q0 1 2 11q6 40 16 105h-47q-24 0 -41 17
t-17 41t17 41.5t41 17.5h64l18 116h-53q-24 0 -41 17t-17 42q0 24 17 41t41 17h71l19 125q4 22 20.5 36t37.5 14q1 0 4 -0.5t5 -0.5q21 -4 35.5 -20t14.5 -37q0 -1 -2 -16q-7 -43 -16 -101h114l19 125q4 22 20 36t37 14q2 0 5 -0.5t4 -0.5q22 -4 36 -20t14 -37q0 -1 -2 -14
q-2 -11 -3 -19.5t-4.5 -32t-7.5 -51.5h46q24 0 41 -17t17 -41q0 -25 -17 -42t-41 -17zM280 292h114l18 116h-114z" />
    <glyph glyph-name="dollar" unicode="$" horiz-adv-x="555" 
d="M386 401q65 -34 97 -71.5t32 -101.5q0 -101 -69.5 -164.5t-173.5 -63.5q-86 0 -159 60t-73 145q0 23 16.5 40t40.5 17q22 0 38.5 -14t20.5 -36q5 -33 28.5 -58t57.5 -33v207q-150 54 -150 191q0 76 60 128.5t149 52.5q48 0 96.5 -24.5t48.5 -63.5q0 -25 -17.5 -41
t-40.5 -16q-14 0 -39 12.5t-36 14.5v-152q44 -14 73 -29zM209 519q0 -46 33 -65v115q-33 -17 -33 -50zM313 304v-182q40 10 58 38t18 59q0 53 -76 85z" />
    <glyph glyph-name="percent" unicode="%" horiz-adv-x="864" 
d="M214 0q-18 0 -35 12q-23 17 -23 46q0 18 12 35l435 581q17 23 46 23q20 0 35 -12q23 -17 23 -46q0 -20 -11 -35l-435 -581q-18 -23 -47 -23zM214 352q-72 0 -123 51t-51 123t51 123t123 51t123 -51t51 -123t-51 -123t-123 -51zM214 584q-24 0 -41 -17t-17 -41t17 -41
t41 -17t41 17t17 41t-17 41t-41 17zM650 3q-72 0 -123.5 51t-51.5 123t51.5 123.5t123.5 51.5t123 -51.5t51 -123.5t-51 -123t-123 -51zM650 235q-24 0 -41 -17t-17 -41t17 -41t41 -17t41 17t17 41t-17 41t-41 17z" />
    <glyph glyph-name="ampersand" unicode="&#x26;" horiz-adv-x="630" 
d="M507 170l60 -75q13 -16 13 -36q0 -29 -22 -46q-16 -13 -37 -13q-29 0 -45 22l-48 60q-17 -20 -27 -30q-61 -52 -141 -52q-91 0 -155.5 65.5t-64.5 158.5q0 63 32 116t86 82q-25 44 -25 93q0 77 54 131t130 54q77 0 131 -54t54 -131v-14q-4 -56 -40.5 -100.5t-90.5 -61.5
l62 -77l56 63q16 19 43 19q22 0 39 -15q19 -16 19 -43q0 -24 -14 -39zM317 583q-28 0 -48 -20t-20 -48q0 -24 15 -42l21 -26h31q28 0 48.5 20t20.5 48v9q-4 26 -23 42.5t-45 16.5zM322 139l32 35l-122 153q-33 -10 -54 -38.5t-21 -64.5q0 -44 30 -75.5t73 -31.5q36 0 62 22z
" />
    <glyph glyph-name="quotesingle" unicode="'" horiz-adv-x="226" 
d="M98 497q-9 0 -18 3q-40 13 -40 55q0 10 3 19l29 87q6 18 21.5 29t33.5 11q10 0 19 -3q18 -6 29 -21.5t11 -33.5q0 -9 -32 -106q-6 -18 -21.5 -29t-34.5 -11z" />
    <glyph glyph-name="parenleft" unicode="(" horiz-adv-x="284" 
d="M186 700q19 0 33 -11q25 -16 25 -47q0 -20 -10 -34q-5 -5 -21 -34t-36 -94t-20 -130t20 -130t36 -94t21 -34q10 -14 10 -34q0 -31 -25 -47q-16 -11 -33 -11q-31 0 -48 25q-6 10 -12 19.5t-23.5 44.5t-29.5 69.5t-22.5 87.5t-10.5 104t10.5 104t22.5 87.5t29.5 69.5
t23.5 44.5t12 19.5q17 25 48 25z" />
    <glyph glyph-name="parenright" unicode=")" horiz-adv-x="284" 
d="M98 0q-19 0 -33 11q-25 17 -25 47q0 18 11 34q0 4 19.5 41t38.5 97t19 120q0 65 -20.5 130t-36.5 94t-21 34q-10 14 -10 34q0 31 25 47q16 11 33 11q31 0 48 -25q6 -10 12 -19.5t23.5 -44.5t29.5 -69.5t22.5 -87.5t10.5 -104t-10.5 -104t-22.5 -87.5t-29.5 -69.5
t-23.5 -44.5t-12 -19.5q-17 -25 -48 -25z" />
    <glyph glyph-name="asterisk" unicode="*" horiz-adv-x="320" 
d="M242 580l21 -21q17 -19 17 -41q0 -24 -17 -41q-16 -17 -41 -17t-41 17l-21 20l-21 -20q-16 -17 -41 -17t-41 17q-17 16 -17 41q0 24 17 41l21 21l-21 20q-17 16 -17 41t17 42t41 17t41 -17l21 -21l21 21q17 17 41 17q22 0 41 -17q17 -19 17 -42q0 -24 -17 -41z" />
    <glyph glyph-name="plus" unicode="+" 
d="M332 408h116q24 0 41.5 -17t17.5 -41t-17.5 -41t-41.5 -17h-116v-117q0 -24 -17.5 -41t-41.5 -17t-41 17t-17 41v117h-117q-24 0 -41 17t-17 41t17 41t41 17h117v117q0 24 17 41t41 17t41.5 -17t17.5 -41v-117z" />
    <glyph glyph-name="comma" unicode="," horiz-adv-x="226" 
d="M98 -87q-9 0 -18 3q-40 13 -40 55q0 10 3 19l29 87q6 18 21.5 29t33.5 11q10 0 19 -3q18 -6 29 -21.5t11 -33.5q0 -9 -32 -106q-6 -18 -21.5 -29t-34.5 -11z" />
    <glyph glyph-name="hyphen" unicode="-" horiz-adv-x="576" 
d="M98 408h379q25 0 42 -17t17 -41t-17 -41t-42 -17h-379q-24 0 -41 17t-17 41t17 41t41 17z" />
    <glyph glyph-name="period" unicode="." horiz-adv-x="197" 
d="M98 117q24 0 41.5 -17t17.5 -42q0 -24 -17.5 -41t-41.5 -17t-41 17t-17 41q0 25 17 42t41 17z" />
    <glyph glyph-name="slash" unicode="/" horiz-adv-x="313" 
d="M226 699q21 -4 34 -20.5t13 -37.5q0 -7 -1 -11l-117 -583q-4 -21 -20 -34t-37 -13q-7 0 -11 1q-21 4 -34 20.5t-13 37.5q0 7 1 11l117 583q4 21 20 34t37 13q7 0 11 -1z" />
    <glyph glyph-name="zero" unicode="0" horiz-adv-x="546" 
d="M440 616q66 -81 66 -208v-116q0 -127 -66 -209.5t-167 -82.5q-102 0 -167.5 83t-65.5 209v116q0 125 67.5 208.5t165.5 83.5q99 0 167 -84zM390 292v116q0 69 -31.5 122t-85.5 53t-85.5 -53t-31.5 -122v-116q0 -76 32 -125.5t85 -49.5q52 0 84.5 49t32.5 126z" />
    <glyph glyph-name="one" unicode="1" horiz-adv-x="254" 
d="M156 0q-24 0 -41 17t-17 41v525q-24 0 -41 17t-17 42q0 24 17 41t41 17h59q24 0 40.5 -17t16.5 -41v-584q0 -24 -17 -41t-41 -17z" />
    <glyph glyph-name="two" unicode="2" horiz-adv-x="494" 
d="M395 0h-296q-25 0 -42 17t-17 42q0 6 0.5 15t5 33.5t11.5 48.5t23 55.5t37.5 59.5t56 57t76.5 50q35 18 56 41.5t25.5 37.5t4.5 26v10q0 37 -26 63t-63 26t-63 -26t-26 -63q0 -25 -17 -42t-42 -17t-42 17t-17 42q0 85 61 146t146 61t145.5 -60t61.5 -145v-10
q0 -20 -5 -41.5t-18.5 -53t-46.5 -63t-81 -55.5q-102 -50 -134 -154h226q25 0 42 -17t17 -42t-17 -42t-42 -17z" />
    <glyph glyph-name="three" unicode="3" 
d="M413 420q94 -71 94 -187q0 -96 -68.5 -164.5t-165.5 -68.5q-96 0 -164.5 68.5t-68.5 164.5q0 25 17 42t41 17q25 0 42 -17t17 -42q0 -48 34 -82t82 -34q49 0 83 34t34 82t-34 82.5t-82 34.5q-25 0 -42 16.5t-17 41.5q0 28 18.5 42t40 16.5t40 16.5t18.5 42q0 24 -17.5 41
t-41.5 17h-116q-25 0 -42 17t-17 42q0 24 17 41t42 17h116q73 0 124 -51.5t51 -123.5q0 -59 -35 -105z" />
    <glyph glyph-name="four" unicode="4" horiz-adv-x="546" 
d="M360 0q-24 0 -41 17t-17 41v88h-204q-32 0 -50 28q-8 12 -8 30q0 15 7 28l233 437q16 31 51 31h29q25 0 42 -17t17 -41v-379h29q24 0 41 -17.5t17 -41.5t-17 -41t-41 -17h-29v-88q0 -24 -17 -41t-42 -17zM302 463l-107 -200h107v200z" />
    <glyph glyph-name="five" unicode="5" 
d="M273 467q97 0 165.5 -68.5t68.5 -165.5q0 -96 -68.5 -164.5t-165.5 -68.5q-96 0 -164.5 68.5t-68.5 164.5q0 25 17 42t41 17q25 0 42 -17t17 -42q0 -48 34 -82t82 -34q49 0 83 34t34 82q0 47 -32 80.5t-78 36.5l-109 -27q-10 -2 -15 -2q-27 0 -42 18.5t-15 46.5l29 262
q2 22 18.5 37t39.5 15h175q24 0 41 -17t17 -41q0 -25 -17 -42t-41 -17h-123l-14 -127l35 9q10 2 14 2z" />
    <glyph glyph-name="six" unicode="6" 
d="M273 0q-96 0 -164.5 68.5t-68.5 164.5q0 59 23 102l178 334q17 31 52 31q25 0 41.5 -17.5t16.5 -40.5q0 -15 -7 -28l-79 -148q3 1 8 1q97 0 165.5 -68.5t68.5 -165.5q0 -96 -68.5 -164.5t-165.5 -68.5zM273 350q-48 0 -82 -34t-34 -83q0 -48 34 -82t82 -34q49 0 83 34
t34 82q0 49 -34 83t-83 34z" />
    <glyph glyph-name="seven" unicode="7" horiz-adv-x="488" 
d="M98 0q-14 0 -26 6q-32 17 -32 52q0 14 6 26l249 499h-197q-24 0 -41 17t-17 42q0 24 17 41t41 17h292q33 0 49 -28q9 -14 9 -31q0 -13 -6 -25l-292 -584q-16 -32 -52 -32z" />
    <glyph glyph-name="eight" unicode="8" 
d="M413 420q94 -71 94 -187q0 -96 -68.5 -164.5t-165.5 -68.5q-96 0 -164.5 68.5t-68.5 164.5q0 56 25 105t68 82q-35 46 -35 105q0 72 51.5 123.5t123.5 51.5q73 0 124 -51.5t51 -123.5q0 -59 -35 -105zM215 525q0 -24 17 -41t41 -17t41.5 17t17.5 41t-17.5 41t-41.5 17
t-41 -17t-17 -41zM273 117q49 0 83 34t34 82q0 49 -34 83t-83 34q-48 0 -82 -34t-34 -83q0 -48 34 -82t82 -34z" />
    <glyph glyph-name="nine" unicode="9" 
d="M273 700q97 0 165.5 -68.5t68.5 -164.5q0 -51 -23 -102l-179 -334q-17 -31 -51 -31q-25 0 -42 17.5t-17 40.5q0 15 7 28l79 148q-2 -1 -8 -1q-96 0 -164.5 68.5t-68.5 165.5q0 96 68.5 164.5t164.5 68.5zM273 350q49 0 83 34t34 83q0 48 -34 82t-83 34q-48 0 -82 -34
t-34 -82q0 -49 34 -83t82 -34z" />
    <glyph glyph-name="colon" unicode=":" horiz-adv-x="197" 
d="M98 292q-24 0 -41 17t-17 41t17 41t41 17q25 0 42 -17t17 -41t-17 -41t-42 -17zM98 0q-24 0 -41 17t-17 42q0 24 17 41t41 17q25 0 42 -17t17 -41q0 -25 -17 -42t-42 -17z" />
    <glyph glyph-name="semicolon" unicode=";" horiz-adv-x="226" 
d="M98 292q-24 0 -41 17t-17 41t17 41t41 17q25 0 42 -17t17 -41t-17 -41t-42 -17zM98 -87q-9 0 -18 3q-40 13 -40 55q0 10 3 19l29 87q6 18 21.5 29t33.5 11q10 0 19 -3q18 -6 29 -21.5t11 -33.5q0 -9 -3 -18l-29 -88q-6 -18 -21.5 -29t-34.5 -11z" />
    <glyph glyph-name="less" unicode="&#x3c;" horiz-adv-x="430" 
d="M332 88q-22 0 -39 15l-233 204q-20 17 -20 44t20 44l233 204q15 14 39 14q26 0 44 -19q14 -17 14 -39q0 -26 -20 -44l-183 -160l183 -160q20 -18 20 -44q0 -22 -14 -39q-18 -20 -44 -20z" />
    <glyph glyph-name="equal" unicode="=" horiz-adv-x="576" 
d="M98 292h379q25 0 42 -17t17 -42q0 -24 -17 -41t-42 -17h-379q-24 0 -41 17t-17 41q0 25 17 42t41 17zM477 408h-379q-24 0 -41 17t-17 42q0 24 17 41t41 17h379q25 0 42 -17t17 -41q0 -25 -17 -42t-42 -17z" />
    <glyph glyph-name="greater" unicode="&#x3e;" horiz-adv-x="430" 
d="M98 88q-26 0 -44 20q-14 17 -14 39q0 26 20 44l183 160l-183 160q-20 18 -20 44q0 22 14 39q18 19 44 19q24 0 39 -14l233 -204q20 -17 20 -44t-20 -44l-233 -204q-17 -15 -39 -15z" />
    <glyph glyph-name="question" unicode="?" horiz-adv-x="488" 
d="M244 700q85 0 144.5 -60t59.5 -144q0 -73 -28 -120t-91 -78q-13 -7 -19.5 -28t-6.5 -37q0 -24 -17 -41t-42 -17q-24 0 -41 17t-17 41q0 12 2 27t9.5 44.5t28 56t51.5 42.5q32 16 43.5 34.5t11.5 58.5q0 36 -25.5 61.5t-62.5 25.5q-36 0 -61.5 -25.5t-25.5 -61.5
q0 -24 -17 -41.5t-42 -17.5q-24 0 -41 17.5t-17 41.5q0 84 60 144t144 60zM244 117q25 0 42 -17t17 -42q0 -24 -17 -41t-42 -17q-24 0 -41 17t-17 41q0 25 17 42t41 17z" />
    <glyph glyph-name="at" unicode="@" horiz-adv-x="780" 
d="M390 700q145 0 247.5 -102.5t102.5 -247.5q0 -54 -15 -100t-34.5 -72t-43 -46t-35.5 -26.5t-18 -8.5q-10 -4 -17 -4q-4 0 -12 2q-78 19 -100 67l-7 22q-39 -21 -80 -21q-72 0 -123.5 55t-51.5 132t51.5 132t123.5 55q46 0 87 -25q13 25 41 25q19 0 32.5 -13.5t13.5 -33.5
v-140v-140q0 -7 -1 -10q6 -4 20 -10q76 49 76 160q0 106 -75.5 181.5t-181.5 75.5t-181.5 -75.5t-75.5 -181.5t75.5 -181.5t181.5 -75.5q42 0 78 13q10 2 14 2q33 0 45 -33q2 -5 2 -14q0 -34 -32 -44q-54 -17 -107 -17q-145 0 -247.5 102.5t-102.5 247.5t102.5 247.5
t247.5 102.5zM379 257q34 0 58 27t24 66q0 38 -24 65.5t-58 27.5t-58 -27.5t-24 -65.5t24 -65.5t58 -27.5z" />
    <glyph glyph-name="A" unicode="A" horiz-adv-x="663" 
d="M386 663l233 -583q4 -9 4 -22q0 -23 -16.5 -40.5t-41.5 -17.5q-18 0 -32.5 10t-21.5 27l-44 109h-271l-44 -109q-7 -17 -21.5 -27t-32.5 -10q-25 0 -41.5 17.5t-16.5 40.5q0 13 4 22l233 583q15 37 55 37q17 0 32 -10.5t22 -26.5zM243 262h177l-88 223z" />
    <glyph glyph-name="B" unicode="B" 
d="M417 400q90 -59 90 -181q0 -96 -64.5 -157.5t-140.5 -61.5h-204q-24 0 -41 17t-17 41v584q0 24 17 41t41 17h161q44 0 91 -23q98 -49 98 -167q0 -64 -31 -110zM157 583v-146h87q10 0 21 2t28 8t28 22.5t11 40.5q0 31 -13.5 48.5t-25.5 21t-26 3.5h-8h-102zM347 131
q43 24 43 88q0 36 -23.5 69t-71.5 33h-138v-204h138q26 0 52 14z" />
    <glyph glyph-name="C" unicode="C" horiz-adv-x="628" 
d="M501 145q22 11 45 4.5t35 -28.5q11 -21 4 -44t-28 -35q-79 -42 -167 -42q-145 0 -247.5 102.5t-102.5 247.5t102.5 247.5t247.5 102.5q88 0 167 -42q21 -12 28 -35t-4 -44q-12 -22 -35 -28.5t-45 4.5q-49 28 -111 28q-96 0 -164.5 -68t-68.5 -165t68.5 -165t164.5 -68
q62 0 111 28z" />
    <glyph glyph-name="D" unicode="D" horiz-adv-x="605" 
d="M268 0h-170q-24 0 -41 17t-17 41v584q0 24 17 41t41 17h170q7 0 18 -0.5t42 -7.5t59 -19t62 -38t58.5 -61.5t41 -93.5t16.5 -130t-16.5 -130t-41 -93.5t-58.5 -61.5t-62 -38t-59 -19t-42 -7.5t-18 -0.5zM157 583v-466h111q46 0 93 30q87 55 87 203q0 150 -91 205
q-46 28 -89 28h-111z" />
    <glyph glyph-name="E" unicode="E" horiz-adv-x="518" 
d="M419 117q25 0 42 -17t17 -42q0 -24 -17 -41t-42 -17h-320q-25 0 -42 17t-17 41v584q0 24 17 41t42 17h320q25 0 42 -17t17 -41q0 -25 -17 -42t-42 -17h-262v-175h204q24 0 41 -17t17 -41t-17 -41t-41 -17h-204v-175h262z" />
    <glyph glyph-name="F" unicode="F" 
d="M98 700h350q24 0 41.5 -17t17.5 -41q0 -25 -17.5 -42t-41.5 -17h-291v-175h233q24 0 41 -17t17 -41t-17 -41t-41 -17h-233v-234q0 -24 -17.5 -41t-41.5 -17t-41 17t-17 41v584q0 24 17 41t41 17z" />
    <glyph glyph-name="G" unicode="G" horiz-adv-x="694" 
d="M390 0q-146 0 -248 102t-102 248q0 145 102 247q101 103 248 103q145 0 248 -103q16 -16 16 -40q0 -25 -17 -42t-41 -17q-25 0 -41 17q-68 68 -165 68t-165 -68q-69 -69 -69 -165t69 -165q67 -69 165 -69q83 0 148 53v123h-146q-24 0 -41.5 17t-17.5 41t17.5 41t41.5 17
h204q24 0 41 -17t17 -41v-206q0 -25 -17 -42q-102 -102 -247 -102z" />
    <glyph glyph-name="H" unicode="H" horiz-adv-x="576" 
d="M477 700q25 0 42 -17t17 -41v-584q0 -24 -17 -41t-42 -17q-24 0 -41 17t-17 41v234h-262v-234q0 -24 -17.5 -41t-41.5 -17t-41 17t-17 41v584q0 24 17 41t41 17t41.5 -17t17.5 -41v-234h262v234q0 24 17 41t41 17z" />
    <glyph glyph-name="I" unicode="I" horiz-adv-x="196" 
d="M98 0q-24 0 -41 17t-17 41v584q0 24 17 41t41 17t41 -17t17 -41v-584q0 -24 -17 -41t-41 -17z" />
    <glyph glyph-name="J" unicode="J" horiz-adv-x="343" 
d="M98 0q-24 0 -41 17t-17 41q0 25 17 42t41 17q27 0 46.5 11.5t27.5 28.5t11 28.5t3 18.5v438q0 24 17 41t41 17q25 0 42 -17t17 -41v-438q0 -49 -25 -99q-52 -105 -180 -105z" />
    <glyph glyph-name="K" unicode="K" horiz-adv-x="546" 
d="M260 350l231 -252q15 -16 15 -40t-17 -41t-41 -17q-25 0 -43 19l-248 272v-233q0 -24 -17.5 -41t-41.5 -17t-41 17t-17 41v584q0 24 17 41t41 17t41.5 -17t17.5 -41v-233l248 272q17 19 43 19q24 0 41 -17t17 -41t-15 -40z" />
    <glyph glyph-name="L" unicode="L" horiz-adv-x="460" 
d="M361 0h-262q-25 0 -42 17t-17 41v584q0 24 17 41t42 17q24 0 41 -17t17 -41v-525h204q24 0 41.5 -17t17.5 -42q0 -24 -17.5 -41t-41.5 -17z" />
    <glyph glyph-name="M" unicode="M" horiz-adv-x="722" 
d="M623 0q-24 0 -41 17t-17 41v409l-157 -210q-18 -24 -47 -24t-47 24l-157 210v-409q0 -24 -17 -41t-42 -17q-24 0 -41 17t-17 41v584q0 24 17 41t42 17q29 0 46 -23l216 -288l216 288q17 23 46 23q25 0 42 -17t17 -41v-584q0 -24 -17 -41t-42 -17z" />
    <glyph glyph-name="N" unicode="N" horiz-adv-x="605" 
d="M507 0q-31 0 -48 25l-302 432v-399q0 -24 -17.5 -41t-41.5 -17t-41 17t-17 41v584q0 23 17 40.5t42 17.5q30 0 47 -25l302 -432v399q0 24 17 41t42 17q24 0 41 -17t17 -41v-584q0 -23 -17 -40.5t-41 -17.5z" />
    <glyph glyph-name="O" unicode="O" horiz-adv-x="751" 
d="M375 0q-139 0 -237 102.5t-98 247.5t98 247.5t237 102.5t237.5 -102.5t98.5 -247.5t-98.5 -247.5t-237.5 -102.5zM375 583q-90 0 -154 -68t-64 -165t64 -165t154 -68q91 0 155 68t64 165t-64 165t-155 68z" />
    <glyph glyph-name="P" unicode="P" horiz-adv-x="532" 
d="M98 0q-24 0 -41 17t-17 41v584q0 24 17 41t41 17h159q57 0 114 -28q121 -60 121 -205q0 -58 -28 -114q-29 -58 -83 -89t-124 -31h-100v-175q0 -24 -17 -41t-42 -17zM157 583v-233h100q73 0 101 53q17 32 17 64q0 73 -56 101q-13 7 -28.5 10.5t-24.5 3.5l-9 1h-100z" />
    <glyph glyph-name="Q" unicode="Q" horiz-adv-x="751" 
d="M638 132l30 -36q14 -17 14 -37q0 -27 -21 -45q-15 -14 -38 -14q-27 0 -45 21l-26 32q-80 -53 -177 -53q-139 0 -237 102.5t-98 247.5t98 247.5t237 102.5t237.5 -102.5t98.5 -247.5q0 -121 -73 -218zM375 117q55 0 102 26l-44 53q-14 17 -14 38q0 28 21 44q17 14 37 14
q27 0 45 -21l38 -46q34 56 34 125q0 97 -64 165t-155 68q-90 0 -154 -68t-64 -165t64 -165t154 -68z" />
    <glyph glyph-name="R" unicode="R" horiz-adv-x="532" 
d="M376 261l107 -172q9 -15 9 -31q0 -32 -28 -49q-14 -9 -30 -9q-33 0 -50 27l-129 206h-98v-175q0 -24 -17.5 -41t-41.5 -17t-41 17t-17 41v584q0 24 17 41t41 17h159q57 0 114 -28q121 -60 121 -205q0 -58 -28 -114q-31 -61 -88 -92zM157 583v-233h100q73 0 101 53
q17 32 17 64q0 73 -56 101q-13 7 -28.5 10.5t-24.5 3.5l-9 1h-100z" />
    <glyph glyph-name="S" unicode="S" horiz-adv-x="520" 
d="M270 436q22 -7 46.5 -17.5t65.5 -34.5t68.5 -63.5t29.5 -87.5v-10q0 -90 -63 -153q-68 -68 -170 -68h-8q-64 2 -116 36t-78 90q-5 10 -5 25q0 38 34 53q10 5 24 5q39 0 54 -34q26 -56 91 -58h5q53 0 85 32q31 31 31 72v4q-2 31 -45.5 59t-82.5 39l-4 2q-155 56 -155 192
v8q3 81 68 129q58 45 137 45h9q63 -1 120 -44q23 -18 23 -46q0 -20 -12 -35q-18 -23 -47 -23q-20 0 -35 11q-23 18 -53 20h-6q-37 0 -62 -17t-26 -44v-4q0 -33 20 -50.5t57 -32.5z" />
    <glyph glyph-name="T" unicode="T" 
d="M98 700h350q24 0 41.5 -17t17.5 -41q0 -25 -17.5 -42t-41.5 -17h-116v-525q0 -24 -17.5 -41t-41.5 -17t-41 17t-17 41v525h-117q-24 0 -41 17t-17 42q0 24 17 41t41 17z" />
    <glyph glyph-name="U" unicode="U" horiz-adv-x="575" 
d="M288 0q-75 0 -131.5 35t-87.5 101q-29 63 -29 127v379q0 24 17 41t41 17t41 -17t17 -41v-379q0 -11 4.5 -30t16 -47.5t41 -48.5t70.5 -20q40 0 68.5 19t40.5 46.5t17 47.5t5 33v379q0 24 17 41t41 17t41 -17t17 -41v-379q0 -66 -28 -127q-31 -66 -87.5 -101t-131.5 -35z
" />
    <glyph glyph-name="V" unicode="V" horiz-adv-x="663" 
d="M332 0q-40 0 -55 37l-233 583q-4 9 -4 21q0 23 16.5 41t41.5 18q18 0 32.5 -10t21.5 -27l180 -448l179 448q7 17 21.5 27t32.5 10q25 0 41.5 -17.5t16.5 -40.5q0 -13 -4 -22l-233 -583q-7 -16 -22 -26.5t-32 -10.5z" />
    <glyph glyph-name="W" unicode="W" horiz-adv-x="945" 
d="M869 695q36 -14 36 -54q0 -13 -4 -22l-244 -583q-15 -36 -53 -36q-39 0 -54 36l-77 185l-78 -185q-15 -36 -53 -36q-39 0 -54 36l-244 583q-4 9 -4 22q0 23 17 41t42 18q38 0 53 -36l190 -454l67 163l-102 246q-5 12 -5 23q0 23 17 40.5t42 17.5q38 0 53 -36l59 -140
l58 140q15 36 53 36q25 0 42 -18t17 -41q0 -13 -4 -22l-103 -246l68 -163l189 454q15 36 53 36q11 0 23 -5z" />
    <glyph glyph-name="X" unicode="X" horiz-adv-x="605" 
d="M374 350l180 -258q11 -17 11 -34q0 -23 -17.5 -40.5t-40.5 -17.5q-31 0 -48 25l-157 223l-156 -223q-17 -25 -48 -25q-24 0 -41 17.5t-17 40.5q0 19 11 34l180 258l-180 258q-11 14 -11 31q0 24 16 42.5t42 18.5q31 0 48 -25l156 -223l157 223q17 25 48 25q24 0 41 -17.5
t17 -40.5q0 -18 -11 -34z" />
    <glyph glyph-name="Y" unicode="Y" horiz-adv-x="605" 
d="M540 689q25 -17 25 -47q0 -18 -11 -34l-193 -276v-274q0 -24 -17 -41t-42 -17q-24 0 -41 17t-17 41v274l-193 276q-11 14 -11 31q0 24 16 42.5t42 18.5q31 0 48 -25l156 -223l157 223q17 25 48 25q17 0 33 -11z" />
    <glyph glyph-name="Z" unicode="Z" 
d="M448 0h-350q-24 0 -41 17t-17 42q0 17 8 29l297 495h-247q-24 0 -41 17t-17 41q0 25 17 42t41 17h350q23 0 40.5 -17t17.5 -41q0 -18 -8 -30l-297 -495h247q24 0 41.5 -17t17.5 -42q0 -24 -17.5 -41t-41.5 -17z" />
    <glyph glyph-name="bracketleft" unicode="[" horiz-adv-x="314" 
d="M99 700h117q24 0 41 -17t17 -42q0 -24 -17 -41t-41 -17h-59v-466h59q24 0 41 -17t17 -42q0 -24 -17 -41t-41 -17h-117q-24 0 -41.5 17t-17.5 41v584q0 24 17.5 41t41.5 17z" />
    <glyph glyph-name="backslash" unicode="\" horiz-adv-x="313" 
d="M87 699q4 1 11 1q21 0 37 -13t20 -34l117 -583q1 -4 1 -11q0 -21 -13 -37.5t-34 -20.5q-4 -1 -11 -1q-21 0 -37 13t-20 34l-117 583q-1 4 -1 11q0 21 13 37.5t34 20.5z" />
    <glyph glyph-name="bracketright" unicode="]" horiz-adv-x="314" 
d="M215 0h-117q-24 0 -41 17t-17 41q0 25 17 42t41 17h59v466h-59q-24 0 -41 17t-17 41q0 25 17 42t41 17h117q24 0 41.5 -17t17.5 -41v-584q0 -24 -17.5 -41t-41.5 -17z" />
    <glyph glyph-name="asciicircum" unicode="^" horiz-adv-x="451" 
d="M60 452q-20 18 -20 44q0 21 14 38l128 146q17 20 44 20t44 -20l127 -146q14 -15 14 -39q0 -27 -19 -43q-15 -14 -39 -14q-27 0 -44 20l-83 95l-84 -95q-16 -20 -44 -20q-23 0 -38 14z" />
    <glyph glyph-name="underscore" unicode="_" horiz-adv-x="576" 
d="M98 0h379q25 0 42 -17t17 -41t-17 -41t-42 -17h-379q-24 0 -41 17t-17 41t17 41t41 17z" />
    <glyph glyph-name="grave" unicode="`" horiz-adv-x="313" 
d="M189 531l-117 58q-32 17 -32 52q0 13 6 27q16 32 53 32q13 0 25 -6l117 -59q32 -17 32 -52q0 -14 -6 -26q-16 -32 -52 -32q-14 0 -26 6z" />
    <glyph glyph-name="a" unicode="a" horiz-adv-x="488" 
d="M447 122l1 -64q0 -23 -17 -40.5t-41 -17.5q-37 0 -52 32q-32 -16 -69 -24q-56 -7 -63 -7q-64 0 -106.5 31t-55.5 88q-4 15 -4 33q0 43 26 77q50 65 179 70q7 0 22 0.5t22 0.5q24 0 38 -2q-6 30 -20 39q-22 12 -50 12q-55 0 -97 -34q-16 -13 -37 -13q-27 0 -45 21
q-13 16 -13 37q0 29 21 45q62 52 143 59q9 1 26 1q62 0 109 -26q36 -20 56.5 -60.5t23.5 -62.5t3 -38v-157zM318 170l5 12q-14 2 -34 2q-27 0 -51 -1q-63 -3 -79 -23q-3 -6 -3 -8v-2q1 -2 1 -3q2 -9 4.5 -13.5t14 -10t30.5 -5.5q18 0 38 4q2 1 4 1q49 9 70 47z" />
    <glyph glyph-name="b" unicode="b" horiz-adv-x="517" 
d="M259 467q90 0 154 -68.5t64 -165.5q0 -96 -64 -164.5t-154 -68.5q-59 0 -109 31q-17 -31 -52 -31q-24 0 -41 17t-17 41v584q0 24 17 41t41 17q25 0 42 -17t17 -41v-202q48 27 102 27zM259 117q42 0 72 34t30 82q0 49 -30 83t-72 34q-43 0 -72.5 -34t-29.5 -83
q0 -48 29.5 -82t72.5 -34z" />
    <glyph glyph-name="c" unicode="c" horiz-adv-x="422" 
d="M259 0q-91 0 -155 68.5t-64 164.5q0 97 64 165.5t155 68.5q47 0 90 -21q33 -14 33 -52q0 -13 -6 -25q-16 -34 -52 -34q-13 0 -25 6q-19 9 -40 9q-42 0 -72 -34t-30 -83q0 -48 30 -82t72 -34q21 0 40 9q10 5 24 5q37 0 53 -33q6 -12 6 -25q0 -37 -33 -53q-45 -20 -90 -20z
" />
    <glyph glyph-name="d" unicode="d" 
d="M40 233q0 97 68.5 165.5t164.5 68.5q63 0 117 -32v207q0 24 17 41t41 17q25 0 42 -17t17 -41v-584q0 -24 -17 -41t-42 -17q-38 0 -53 34q-57 -34 -122 -34q-96 0 -164.5 68.5t-68.5 164.5zM157 233q0 -48 34 -82t82 -34q49 0 83 34t34 82q0 49 -34 83t-83 34
q-48 0 -82 -34t-34 -83z" />
    <glyph glyph-name="e" unicode="e" horiz-adv-x="488" 
d="M258 0q-14 0 -18 1q-95 5 -150 74q-50 64 -50 159q0 97 60 165t144 68q88 0 146 -66q58 -63 58 -157q0 -24 -17 -41.5t-41 -17.5h-227q20 -66 83 -68h6q43 0 68 18q15 9 32 9q32 0 49 -26q10 -13 10 -31q0 -33 -27 -50q-56 -37 -126 -37zM174 302h145q-25 49 -75 49
q-43 0 -70 -49z" />
    <glyph glyph-name="f" unicode="f" horiz-adv-x="401" 
d="M302 467q25 0 42 -17.5t17 -41.5t-17 -41t-42 -17h-58v-292q0 -24 -17 -41t-41 -17t-41.5 17t-17.5 41v292h-29q-24 0 -41 17t-17 41t17 41.5t41 17.5h29v58q0 43 21 84q45 91 154 91q25 0 42 -17t17 -41q0 -25 -17 -42t-42 -17q-36 0 -48 -24q-10 -16 -10 -34v-58h58z
" />
    <glyph glyph-name="g" unicode="g" horiz-adv-x="517" 
d="M477 234v-234q0 -88 -54 -154q-65 -79 -165 -79h-14q-50 4 -94 31t-72 71q-9 15 -9 31q0 32 27 49q14 10 32 10q31 0 48 -27q29 -45 76 -48h6q44 0 75 36q28 34 28 80v27q-49 -27 -102 -27q-91 0 -155 68.5t-64 165.5q0 96 64 164.5t155 68.5q58 0 109 -31q16 31 51 31
q24 0 41 -17t17 -41v-175zM259 117q42 0 72 34t30 83q0 48 -30 82t-72 34q-43 0 -72.5 -34t-29.5 -82q0 -49 29.5 -83t72.5 -34z" />
    <glyph glyph-name="h" unicode="h" horiz-adv-x="488" 
d="M420 364q28 -50 28 -102v-204q0 -24 -17 -41t-42 -17q-24 0 -41 17t-17 41v204q0 24 -14 48q-25 40 -91 40h-70v-292q0 -24 -17 -41t-41 -17t-41 17t-17 41v584q0 24 17 41t41 17t41 -17t17 -41v-175h70q136 0 194 -103z" />
    <glyph glyph-name="i" unicode="i" horiz-adv-x="197" 
d="M98 0q-24 0 -41 17t-17 41v350q0 24 17 41.5t41 17.5t41.5 -17.5t17.5 -41.5v-350q0 -24 -17.5 -41t-41.5 -17zM157 612q0 -25 -17.5 -42t-41.5 -17t-41 17t-17 42q0 24 17 41t41 17t41.5 -17t17.5 -41z" />
    <glyph glyph-name="j" unicode="j" horiz-adv-x="314" 
d="M274 612q0 -25 -17 -42t-41 -17q-25 0 -42 17t-17 42q0 24 17 41t42 17q24 0 41 -17t17 -41zM98 -175q-24 0 -41 17t-17 41q0 25 17 42t41 17q38 0 50 26q4 7 6 15t2 13l1 4v408q0 24 17 41.5t41 17.5q25 0 42 -17.5t17 -41.5v-408q0 -43 -21 -84q-45 -91 -155 -91z" />
    <glyph glyph-name="k" unicode="k" horiz-adv-x="459" 
d="M268 233l134 -133q17 -17 17 -42q0 -24 -17 -41t-41 -17t-41 17l-163 163v-122q0 -24 -17.5 -41t-41.5 -17t-41 17t-17 41v584q0 24 17 41t41 17t41.5 -17t17.5 -41v-355l163 163q16 16 41 16q24 0 41 -16q17 -19 17 -42q0 -24 -17 -41z" />
    <glyph glyph-name="l" unicode="l" horiz-adv-x="197" 
d="M98 700q25 0 42 -17t17 -41v-584q0 -24 -17 -41t-42 -17q-24 0 -41 17t-17 41v584q0 24 17 41t41 17z" />
    <glyph glyph-name="m" unicode="m" horiz-adv-x="623" 
d="M418 467q56 0 95.5 -31t54.5 -70t15 -80v-228q0 -24 -17.5 -41t-41.5 -17t-41 17t-17 41v228q0 20 -10 40q-11 24 -38 24q-28 0 -39 -24q-9 -21 -9 -40v-228q0 -24 -17.5 -41t-41.5 -17t-41 17t-17 41v228q0 19 -9 40q-13 24 -39 24q-28 0 -39 -24q-9 -21 -9 -40v-228
q0 -24 -17 -41t-42 -17q-24 0 -41 17t-17 41v350q0 24 17 41.5t41 17.5q21 0 38 -14q31 14 69 14q64 0 106 -39q44 39 107 39z" />
    <glyph glyph-name="n" unicode="n" horiz-adv-x="488" 
d="M390 467q24 0 41 -17t17 -42v-350q0 -18 -10.5 -33t-27.5 -21q-9 -4 -21 -4q-26 0 -44 21l-188 226v-189q0 -24 -17 -41t-42 -17q-24 0 -41 17t-17 41v350q0 19 10.5 34t27.5 21q9 4 21 4q26 0 44 -21l189 -226v188q0 25 17 42t41 17z" />
    <glyph glyph-name="o" unicode="o" 
d="M273 467q97 0 165.5 -68.5t68.5 -165.5q0 -96 -68.5 -164.5t-165.5 -68.5q-96 0 -164.5 68.5t-68.5 164.5q0 97 68.5 165.5t164.5 68.5zM273 117q49 0 83 34t34 82q0 49 -34 83t-83 34q-48 0 -82 -34t-34 -83q0 -48 34 -82t82 -34z" />
    <glyph glyph-name="p" unicode="p" 
d="M98 -233q-24 0 -41 17t-17 41v584q0 24 17 41t41 17q38 0 53 -34q58 34 122 34q97 0 165.5 -68.5t68.5 -164.5q0 -97 -68.5 -165.5t-165.5 -68.5q-62 0 -116 32v-207q0 -24 -17.5 -41t-41.5 -17zM273 350q-48 0 -82 -34t-34 -82q0 -49 34 -83t82 -34q49 0 83 34t34 83
q0 48 -34 82t-83 34z" />
    <glyph glyph-name="q" unicode="q" 
d="M507 -175q0 -24 -17 -41t-42 -17q-24 0 -41 17t-17 41v207q-54 -32 -117 -32q-96 0 -164.5 68.5t-68.5 165.5q0 96 68.5 164.5t164.5 68.5q65 0 122 -34q15 34 53 34q25 0 42 -17t17 -41v-584zM390 234q0 48 -34 82t-83 34q-48 0 -82 -34t-34 -82q0 -49 34 -83t82 -34
q49 0 83 34t34 83z" />
    <glyph glyph-name="r" unicode="r" horiz-adv-x="313" 
d="M215 467q24 0 41 -17t17 -42q0 -24 -17 -41t-41 -17q-42 0 -54 -18l-4 -11v-263q0 -24 -17 -41t-42 -17q-24 0 -41 17t-17 41v350q0 25 17 42t41 17q22 0 38 -14q34 14 79 14z" />
    <glyph glyph-name="s" unicode="s" horiz-adv-x="430" 
d="M291 294q92 -44 99 -119v-11q0 -61 -41 -105q-54 -59 -145 -59q-49 0 -91 23t-65 62q-8 14 -8 30q0 33 29 50q14 8 29 8q34 0 51 -30q15 -26 55 -26q41 0 59 21q11 11 11 27q-4 9 -30 22t-52 19q-3 0 -4 1q-130 37 -130 145q0 58 48 97t120 39q51 0 94 -27q28 -17 28 -50
q0 -16 -9 -31q-17 -27 -49 -27q-17 0 -32 9q-14 9 -32 9q-16 0 -28.5 -4t-17.5 -8t-5 -7q0 -20 44 -33q35 -8 72 -25z" />
    <glyph glyph-name="t" unicode="t" horiz-adv-x="430" 
d="M332 467q24 0 41 -17t17 -42q0 -24 -17 -41t-41 -17h-59v-292q0 -24 -17 -41t-41 -17t-41 17t-17 41v292h-59q-24 0 -41 17t-17 41q0 25 17 42t41 17h59v175q0 24 17 41t41 17t41 -17t17 -41v-175h59z" />
    <glyph glyph-name="u" unicode="u" horiz-adv-x="453" 
d="M355 467q24 0 41 -17t17 -42v-227q0 -45 -22 -88q-50 -93 -164 -93q-116 0 -164 93q-23 43 -23 88v227q0 25 17 42t41 17t41.5 -17t17.5 -42v-227q0 -18 10 -37q17 -27 60 -27q44 0 59 27q11 19 11 37v227q0 25 17 42t41 17z" />
    <glyph glyph-name="v" unicode="v" horiz-adv-x="529" 
d="M456 461q33 -16 33 -53q0 -13 -6 -25l-166 -350q-15 -33 -52 -33t-53 33l-166 350q-6 12 -6 25q0 37 33 53q12 6 25 6q37 0 53 -34l114 -239l113 239q16 34 53 34q13 0 25 -6z" />
    <glyph glyph-name="w" unicode="w" horiz-adv-x="688" 
d="M609 463q18 -6 28.5 -21.5t10.5 -33.5q0 -10 -3 -19l-123 -350q-14 -39 -55 -39t-55 39l-68 194l-68 -194q-14 -39 -55 -39t-55 39l-123 350q-3 9 -3 19q0 42 39 55q9 3 20 3q41 0 54 -38l68 -193l67 193q12 37 54 39h4q40 -2 53 -39l68 -193l68 193q13 38 54 38
q9 0 20 -3z" />
    <glyph glyph-name="x" unicode="x" horiz-adv-x="459" 
d="M304 235l103 -138q12 -16 12 -36q0 -29 -23 -46q-16 -12 -35 -12q-29 0 -47 24l-83 111l-86 -115q-18 -23 -47 -23q-18 0 -35 12q-23 17 -23 46q0 18 12 35l106 142l-106 142q-12 15 -12 34q0 30 23 47q16 12 35 12q30 0 47 -23l86 -115l83 111q17 23 47 23q20 0 35 -11
q23 -17 23 -46q0 -20 -12 -36z" />
    <glyph glyph-name="y" unicode="y" horiz-adv-x="529" 
d="M483 383l-166 -350l-7 -11l-100 -221q-15 -34 -53 -34q-15 0 -25 5q-33 14 -33 53q0 14 5 24l95 211l-153 323q-6 12 -6 25q0 37 33 53q12 6 25 6q37 0 53 -34l114 -239l113 239q16 34 53 34q13 0 25 -6q33 -16 33 -53q0 -13 -6 -25z" />
    <glyph glyph-name="z" unicode="z" horiz-adv-x="488" 
d="M390 117q24 0 41 -17t17 -42q0 -24 -17 -41t-41 -17h-292q-37 0 -53 34q-5 10 -5 25q0 21 13 37l212 254h-167q-24 0 -41 17t-17 41q0 25 17 42t41 17h292q37 0 53 -34q5 -13 5 -24q0 -22 -13 -38l-212 -254h167z" />
    <glyph glyph-name="braceleft" unicode="{" horiz-adv-x="401" 
d="M273 117h29q25 0 42 -17t17 -42q0 -24 -17 -41t-42 -17h-58q-24 0 -41 17q-21 21 -40 59q-36 72 -36 157q0 9 -18.5 30.5t-42.5 38.5l-16 16q-10 14 -10 32q0 32 26 49q19 12 36 30q25 25 25 38q0 85 36 157q19 38 40 59q17 17 41 17h58q25 0 42 -17t17 -41
q0 -25 -17 -42t-42 -17h-29q-29 -48 -29 -116q0 -59 -56 -117q56 -58 56 -117q0 -68 29 -116z" />
    <glyph glyph-name="bar" unicode="|" horiz-adv-x="196" 
d="M98 -59q-24 0 -41 17t-17 41v751q0 24 17 41t41 17t41 -17t17 -41v-751q0 -24 -17 -41t-41 -17z" />
    <glyph glyph-name="braceright" unicode="}" horiz-adv-x="401" 
d="M127 583h-29q-24 0 -41 17t-17 42q0 24 17 41t41 17h59q24 0 41 -17l5 -5q5 -6 9.5 -12.5t12 -18t13.5 -23.5q35 -70 35 -157q0 -9 19 -30.5t43 -38.5l16 -16q10 -14 10 -32q0 -32 -26 -49q-1 0 -6 -3.5t-13.5 -11t-16.5 -15.5q-26 -26 -26 -38q0 -87 -35 -157
q-6 -12 -13.5 -23.5t-12 -18t-9.5 -12.5l-5 -5q-17 -17 -41 -17h-59q-24 0 -41 17t-17 41q0 25 17 42t41 17h29q30 46 30 116q0 59 56 117q-56 58 -56 117q0 70 -30 116z" />
    <glyph glyph-name="asciitilde" unicode="~" horiz-adv-x="401" 
d="M244 554q-24 0 -55 14.5t-40 14.5q-17 -29 -51 -29q-24 0 -41 17t-17 41q0 31 27.5 59.5t89.5 28.5q23 0 54 -14.5t41 -14.5q17 29 51 29q24 0 41 -17t17 -41q0 -45 -32 -66.5t-85 -21.5z" />
    <glyph glyph-name="exclamdown" unicode="&#xa1;" horiz-adv-x="197" 
d="M99 0q-24 0 -41.5 17t-17.5 41v409q0 24 17.5 41t41.5 17t41 -17t17 -41v-409q0 -24 -17 -41t-41 -17zM99 583q-24 0 -41.5 17t-17.5 42q0 24 17.5 41t41.5 17t41 -17t17 -41q0 -25 -17 -42t-41 -17z" />
    <glyph glyph-name="sterling" unicode="&#xa3;" horiz-adv-x="544" 
d="M481 166q23 -17 23 -47q0 -24 -12 -36q-56 -67 -121 -80q-13 -3 -30 -3q-62 0 -110 49q-10 9 -21 9q-33 0 -71 -38q-16 -17 -41 -17t-41 16q-17 17 -17 42t16 41l6 5q5 5 10.5 9.5t15.5 12t19.5 13.5t22.5 13t26 11v128h-29q-24 0 -41 16.5t-17 41.5q0 24 17 41t41 17h29
v116q0 43 21 84q45 90 153 90h58q24 0 41 -17t17 -41t-17 -41t-41 -17h-58q-36 0 -50 -26l-8 -32v-116h87q24 0 41 -17t17 -41q0 -25 -17 -41.5t-41 -16.5h-87v-133q23 -11 41 -30q15 -15 28 -15h4l3 1q25 4 52 37q17 23 46 23q20 0 35 -11z" />
    <glyph glyph-name="currency" unicode="&#xa4;" horiz-adv-x="567" 
d="M510 577q17 -19 17 -42q0 -24 -17 -41l-47 -47q25 -45 25 -97t-25 -97l47 -47q17 -19 17 -42q0 -24 -17 -41t-41 -17t-41 17l-47 47q-45 -24 -98 -24q-52 0 -97 24l-47 -47q-17 -17 -41 -17t-41 17q-17 16 -17 41t17 42l47 47q-25 45 -25 97t25 97l-47 47q-17 16 -17 41
t17 42t41 17q22 0 41 -17l47 -47q45 24 97 24q53 0 98 -24l47 47q17 17 41 17t41 -17zM222 288q25 -25 61 -25q37 0 62 25t25 62t-25 62q-26 26 -62 26q-9 0 -24 -6.5t-25 -12t-12 -7.5q-26 -25 -26 -62t26 -62z" />
    <glyph glyph-name="yen" unicode="&#xa5;" horiz-adv-x="605" 
d="M540 689q25 -17 25 -47q0 -18 -11 -34l-160 -229h54q25 0 42 -17t17 -41q0 -25 -17 -42t-42 -17h-87v-29h87q25 0 42 -17t17 -41t-17 -41t-42 -17h-87v-59q0 -24 -17 -41t-42 -17q-24 0 -41 17t-17 41v59h-87q-25 0 -42 17t-17 41t17 41t42 17h87v29h-87q-25 0 -42 17
t-17 42q0 24 17 41t42 17h54l-160 229q-11 17 -11 34q0 28 25 47q14 10 33 10q32 0 48 -24l156 -223l157 223q17 25 48 25q17 0 33 -11z" />
    <glyph glyph-name="brokenbar" unicode="&#xa6;" horiz-adv-x="196" 
d="M98 -58q-24 0 -41 17t-17 41v262q0 25 17 42t41 17t41 -17t17 -42v-262q0 -24 -17 -41t-41 -17zM98 379q-24 0 -41 17t-17 41v255q0 24 17 41t41 17t41 -17t17 -41v-255q0 -24 -17 -41t-41 -17z" />
    <glyph glyph-name="section" unicode="&#xa7;" horiz-adv-x="361" 
d="M264 246q57 -39 57 -106q0 -58 -41 -99t-99 -41q-50 0 -89 31.5t-49 80.5q-1 3 -1 9q0 14 9.5 25.5t23.5 13.5q3 1 8 1q14 0 25.5 -9.5t13.5 -22.5q5 -21 21 -34.5t38 -13.5q25 0 42 17.5t17 41.5q0 19 -13 33t-59 29l-5 2q-22 7 -38 15t-38 23.5t-34.5 41t-12.5 57.5
q0 71 57 113q-57 40 -57 105q0 59 41 100t100 41q50 0 88.5 -31.5t48.5 -80.5q1 -3 1 -9q0 -14 -9 -25.5t-23 -13.5q-3 -1 -9 -1q-14 0 -25.5 9t-13.5 23q-5 21 -21 34.5t-37 13.5q-25 0 -42.5 -17.5t-17.5 -42.5q0 -18 13.5 -32t58.5 -29l6 -2q21 -8 37 -15.5t38 -23
t34.5 -41t12.5 -57.5q0 -71 -57 -113zM181 401q-21 0 -40 -16t-19 -38q5 -21 21 -34.5t38 -13.5t40 16t18 38q-5 21 -21 34.5t-37 13.5z" />
    <glyph glyph-name="dieresis" unicode="&#xa8;" horiz-adv-x="360" 
d="M157 584q0 -25 -17 -42t-41 -17q-25 0 -42 17t-17 42q0 24 17 41t42 17q24 0 41 -17t17 -41zM320 584q0 -25 -17 -42t-41 -17t-41 17t-17 42q0 24 17 41t41 17t41 -17t17 -41z" />
    <glyph glyph-name="copyright" unicode="&#xa9;" horiz-adv-x="780" 
d="M461 426q-32 32 -77 32t-76 -31q-32 -32 -32 -77t31 -76q32 -32 77 -32t77 32q7 7 19 7q11 0 19 -7q7 -8 7 -20t-7 -19q-49 -47 -115 -47q-67 0 -114 47q-48 48 -48 115t48 115q47 47 114 47q66 0 115 -47q7 -8 7 -20t-7 -19q-10 -8 -19 -8q-11 0 -19 8zM638 597
q102 -102 102 -247q0 -144 -102 -248q-102 -102 -248 -102q-145 0 -247 102q-103 103 -103 248t102 247q103 103 248 103q147 0 248 -103zM555 185q69 69 69 165t-69 165q-68 68 -165 68t-165 -68t-68 -165q0 -98 68 -165q68 -68 165 -68t165 68z" />
    <glyph glyph-name="guillemotleft" unicode="&#xab;" horiz-adv-x="602" 
d="M57 391l175 175q17 17 41 17q23 0 40 -17t17 -41q0 -25 -17 -41l-134 -134l134 -134q17 -17 17 -41q0 -25 -17 -41q-17 -17 -40 -17q-24 0 -41 17l-175 175q-17 17 -17 41q0 22 17 41zM288 391l176 175q19 17 41 17q23 0 40 -17t17 -41q0 -25 -17 -41l-134 -134l134 -134
q17 -17 17 -41q0 -25 -17 -41q-17 -17 -41 -17q-23 0 -40 17l-176 175q-17 17 -17 40t17 42z" />
    <glyph glyph-name="registered" unicode="&#xae;" horiz-adv-x="780" 
d="M491 404q0 -68 -55 -95l-6 -3l56 -75q5 -6 5 -16q0 -14 -11 -22q-7 -5 -16 -5q-13 0 -21 11l-81 108q-5 6 -5 17q0 7 2 11q8 15 24 15q15 0 29 7q25 13 25 47q0 33 -24 46q-16 8 -30 8h-40v-243q0 -11 -8 -19t-19 -8t-19 8t-8 19v270q0 11 8 19t19 8h67q28 0 53 -13
q55 -27 55 -95zM638 597q102 -102 102 -247t-102 -247q-103 -103 -248 -103t-247 102q-103 103 -103 248t102 247q103 103 248 103t248 -103zM555 185q68 68 68 165t-68 165t-165 68t-165 -68t-68 -165q0 -98 68 -165q68 -68 165 -68t165 68z" />
    <glyph glyph-name="degree" unicode="&#xb0;" horiz-adv-x="428" 
d="M214 352q-72 0 -123 51t-51 123t51 123t123 51t123 -51t51 -123t-51 -123t-123 -51zM214 584q-24 0 -41 -17t-17 -41t17 -41t41 -17t41 17t17 41t-17 41t-41 17z" />
    <glyph glyph-name="plusminus" unicode="&#xb1;" horiz-adv-x="488" 
d="M390 117q24 0 41 -17t17 -42q0 -24 -17 -41t-41 -17h-292q-24 0 -41 17t-17 41q0 25 17 42t41 17h292zM98 292q-24 0 -41 17t-17 41t17 41t41 17h88v88q0 24 17 41t41 17t41 -17t17 -41v-88h88q24 0 41 -17t17 -41t-17 -41t-41 -17h-88v-88q0 -24 -17 -41t-41 -17t-41 17
t-17 41v88h-88z" />
    <glyph glyph-name="twosuperior" unicode="&#xb2;" horiz-adv-x="313" 
d="M239 316h-165q-17 0 -28 14q-6 9 -6 20q0 3 2 11q2 7 10.5 26t34.5 53t58 55q36 23 48 35.5t12 30.5q0 19 -14 33t-34 14t-34.5 -14t-14.5 -33q0 -14 -10 -24t-24 -10t-24 10t-10 24q0 47 34 81t83 34q48 0 82 -34t34 -81q0 -30 -15.5 -55t-30 -36.5t-44.5 -31.5
q-32 -21 -53 -54h109q14 0 24 -10t10 -24t-10 -24t-24 -10z" />
    <glyph glyph-name="threesuperior" unicode="&#xb3;" horiz-adv-x="323" 
d="M244 512q39 -32 39 -83q0 -47 -36 -80t-86 -33t-85.5 33t-35.5 80q0 14 10 24t24 10t24 -10t10 -24q0 -19 15.5 -32t37.5 -13q23 0 38.5 13t15.5 32t-15.5 32.5t-38.5 13.5q-14 0 -24 10t-10 24t10 24t24 10q16 0 27 9t11 22t-11 22t-27 9t-26.5 -9t-10.5 -22
q0 -14 -10 -24t-24 -10t-24 10t-10 24q0 41 30.5 70t74.5 29t75 -29t31 -70q0 -34 -23 -62z" />
    <glyph glyph-name="acute" unicode="&#xb4;" horiz-adv-x="313" 
d="M98 525q-36 0 -52 32q-6 12 -6 26q0 35 32 52l117 59q12 6 25 6q37 0 53 -32q6 -14 6 -27q0 -35 -32 -52l-117 -58q-12 -6 -26 -6z" />
    <glyph glyph-name="mu" unicode="&#xb5;" horiz-adv-x="454" 
d="M355 466q25 0 42 -17t17 -41v-227q0 -46 -23 -89q-48 -92 -164 -92q-37 0 -70 11v-70q0 -24 -17 -41t-41 -17q-25 0 -42 17t-17 41v467q0 24 17 41t42 17q24 0 41 -17t17 -41v-227q0 -18 11 -37q15 -28 59 -28t61 30q9 19 9 35v227q0 24 17 41t41 17z" />
    <glyph glyph-name="paragraph" unicode="&#xb6;" horiz-adv-x="486" 
d="M388 698q24 0 41 -17t17 -41v-582q0 -24 -17 -41t-41 -17q-25 0 -42 17t-17 41v235h-27v-233q0 -24 -17 -41.5t-41 -17.5t-41 17.5t-17 41.5v241q-64 19 -105 73t-41 122q0 84 60 143t144 59h144zM329 409v174h-85v-174h85z" />
    <glyph glyph-name="onesuperior" unicode="&#xb9;" horiz-adv-x="181" 
d="M107 316q-14 0 -24 10t-10 24v258q-14 1 -23.5 11t-9.5 23q0 14 10 24t24 10h33q13 0 23.5 -10t10.5 -24v-292q0 -14 -10 -24t-24 -10z" />
    <glyph glyph-name="guillemotright" unicode="&#xbb;" horiz-adv-x="602" 
d="M545 391q17 -19 17 -41q0 -24 -17 -41l-175 -175q-17 -17 -41 -17q-23 0 -40 17q-17 16 -17 41q0 24 17 41l134 134l-134 134q-17 16 -17 41q0 24 17 41t40 17q24 0 41 -17zM314 391q17 -19 17 -42t-17 -40l-176 -175q-17 -17 -40 -17q-24 0 -41 17q-17 16 -17 41
q0 24 17 41l134 134l-134 134q-17 16 -17 41q0 24 17 41t40 17q22 0 41 -17z" />
    <glyph glyph-name="onequarter" unicode="&#xbc;" horiz-adv-x="642" 
d="M514 691q27 -17 27 -49q0 -18 -10 -32l-379 -583q-16 -27 -49 -27q-17 0 -32 9q-26 17 -26 49q0 17 9 32l380 583q17 27 49 27q16 0 31 -9zM72 608q-13 1 -22.5 10.5t-9.5 23.5t10 24t24 10h32q14 0 24 -10t10 -24v-292q0 -14 -10 -24t-24 -10t-24 10t-10 24v258z
M602 327v-262q0 -14 -10 -24t-24 -10t-24 10t-10 24v113h-112q-14 0 -24 10t-10 24v115q0 14 10 24t24 10t24.5 -10t10.5 -24v-81h77v81q0 14 10 24t24 10t24 -10t10 -24z" />
    <glyph glyph-name="onehalf" unicode="&#xbd;" horiz-adv-x="673" 
d="M515 691q26 -17 26 -49q0 -17 -9 -32l-380 -583q-16 -27 -48 -27q-17 0 -32 9q-27 17 -27 49q0 18 10 32l379 583q17 27 50 27q16 0 31 -9zM543 146q-28 -17 -53 -54h109q14 0 24 -10t10 -24t-10 -24t-24 -10h-164q-18 0 -28 15q-7 8 -7 20q0 3 2 11l2 6q3 5 7 13.5
t10 19.5t14.5 23.5t18.5 24.5t23.5 24.5t28.5 22.5q35 22 47 35t12 31q0 19 -14 32.5t-34 13.5t-34 -13.5t-14 -32.5q0 -14 -10 -24t-24 -10t-24 10t-10 24q0 47 34 80.5t82 33.5t82 -33.5t34 -80.5q0 -23 -7 -42t-22.5 -34.5t-27 -24t-33.5 -23.5zM72 608q-13 1 -22.5 11
t-9.5 23q0 14 10 24t24 10h32q14 0 24.5 -10t10.5 -24v-292q0 -14 -10.5 -24t-24.5 -10t-24 10t-10 24v258z" />
    <glyph glyph-name="threequarters" unicode="&#xbe;" horiz-adv-x="704" 
d="M573 691q26 -17 26 -49q0 -17 -9 -32l-379 -583q-18 -27 -49 -27q-17 0 -32 9q-27 17 -27 49q0 18 10 32l379 583q17 27 50 27q16 0 31 -9zM283 432q0 -47 -35.5 -80t-85.5 -33t-86 33t-36 80q0 14 10 24t24 10t24 -10t10 -24q0 -19 16 -32t38 -13t37.5 13t15.5 32
t-15.5 32.5t-37.5 13.5q-14 0 -24 10t-10 24t10 24t24 10q15 0 26 9t11 22t-11 22t-26 9q-16 0 -27 -9t-11 -22q0 -14 -10 -24t-24 -10t-24 10t-10 24q0 41 31 70t75 29q43 0 74 -29t31 -70q0 -36 -23 -62q39 -34 39 -83zM664 321v-263q0 -14 -10 -24t-24 -10t-24 10t-10 24
v114h-112q-14 0 -24 10t-10 24v115q0 14 10 24t24 10t24 -10t10 -24v-81h78v81q0 14 10 24t24 10t24 -10t10 -24z" />
    <glyph glyph-name="questiondown" unicode="&#xbf;" horiz-adv-x="500" 
d="M250 0q-87 0 -148.5 61.5t-61.5 148.5q0 71 42.5 126.5t108.5 75.5v26q0 24 17.5 41t41.5 17t41 -17t17 -41v-76q0 -25 -17 -42t-41 -17q-39 0 -66 -27.5t-27 -65.5t27.5 -65.5t65.5 -27.5q33 0 52.5 15.5t27 37.5t14 44.5t20 38t38.5 15.5q24 0 41 -17t17 -41
q0 -87 -61.5 -148.5t-148.5 -61.5zM253 583q-24 0 -41 17t-17 42q0 24 17 41t41 17t41 -17t17 -41q0 -25 -17 -42t-41 -17z" />
    <glyph glyph-name="Agrave" unicode="&#xc0;" horiz-adv-x="663" 
d="M390 725q-14 0 -26 6l-117 58q-32 15 -32 53q0 14 6 26q15 31 54 31q14 0 24 -5l117 -59q32 -17 32 -52q0 -14 -6 -26q-16 -32 -52 -32zM386 663l233 -583q4 -9 4 -22q0 -23 -16.5 -40.5t-41.5 -17.5q-18 0 -32.5 10t-21.5 27l-44 109h-271l-44 -109q-7 -17 -21.5 -27
t-32.5 -10q-25 0 -41.5 17.5t-16.5 40.5q0 13 4 22l233 583q15 37 55 37q17 0 32 -10.5t22 -26.5zM243 262h89h88l-88 223z" />
    <glyph glyph-name="Aacute" unicode="&#xc1;" horiz-adv-x="663" 
d="M273 725q-36 0 -52 32q-6 12 -6 26q0 35 32 52l117 59q12 6 25 6q37 0 53 -32q6 -12 6 -26q0 -37 -32 -53l-117 -58q-12 -6 -26 -6zM44 80l233 583q7 16 22 26.5t32 10.5q40 0 55 -37l233 -583q4 -9 4 -22q0 -23 -16.5 -40.5t-41.5 -17.5q-18 0 -32.5 10t-21.5 27
l-44 109h-271l-44 -109q-7 -17 -21.5 -27t-32.5 -10q-25 0 -41.5 17.5t-16.5 40.5q0 13 4 22zM331 485l-88 -223h177z" />
    <glyph glyph-name="Acircumflex" unicode="&#xc2;" horiz-adv-x="663" 
d="M44 80l233 583q7 16 22 26.5t32 10.5q40 0 55 -37l233 -583q4 -9 4 -22q0 -23 -16.5 -40.5t-41.5 -17.5q-18 0 -32.5 10t-21.5 27l-44 109h-271l-44 -109q-7 -17 -21.5 -27t-32.5 -10q-25 0 -41.5 17.5t-16.5 40.5q0 13 4 22zM331 485l-88 -223h177zM331 900q13 0 27 -6
l116 -59q32 -18 32 -51q0 -14 -6 -27q-15 -32 -52 -32q-14 0 -26 6l-91 45l-90 -45q-14 -6 -26 -6q-36 0 -52 32q-6 13 -6 27q0 33 32 51l116 59q13 6 26 6z" />
    <glyph glyph-name="Atilde" unicode="&#xc3;" horiz-adv-x="663" 
d="M375 754q-23 0 -55 14.5t-40 14.5q-17 -29 -51 -29q-24 0 -41 17t-17 41q0 31 27.5 59.5t89.5 28.5q23 0 54 -14.5t41 -14.5q17 29 51 29q24 0 41 -17t17 -41q0 -45 -32 -66.5t-85 -21.5zM386 663l233 -583q4 -9 4 -22q0 -23 -16.5 -40.5t-41.5 -17.5q-18 0 -32.5 10
t-21.5 27l-44 109h-271l-44 -109q-7 -17 -21.5 -27t-32.5 -10q-25 0 -41.5 17.5t-16.5 40.5q0 13 4 22l233 583q15 37 55 37q17 0 32 -10.5t22 -26.5zM243 262h89h88l-88 223z" />
    <glyph glyph-name="Adieresis" unicode="&#xc4;" horiz-adv-x="663" 
d="M308 842q0 -25 -17 -42t-41 -17t-41.5 17t-17.5 42q0 24 17.5 41t41.5 17t41 -17t17 -41zM471 842q0 -25 -17 -42t-41 -17t-41 17t-17 42q0 24 17 41t41 17t41 -17t17 -41zM44 80l233 583q7 16 22 26.5t32 10.5q40 0 55 -37l233 -583q4 -9 4 -22q0 -23 -16.5 -40.5
t-41.5 -17.5q-18 0 -32.5 10t-21.5 27l-44 109h-271l-44 -109q-7 -17 -21.5 -27t-32.5 -10q-25 0 -41.5 17.5t-16.5 40.5q0 13 4 22zM331 485l-88 -223h177z" />
    <glyph glyph-name="Aring" unicode="&#xc5;" horiz-adv-x="663" 
d="M409 605l210 -525q4 -9 4 -22q0 -23 -16.5 -40.5t-41.5 -17.5q-18 0 -32.5 10t-21.5 27l-44 109h-271l-44 -109q-7 -17 -21.5 -27t-32.5 -10q-25 0 -41.5 17.5t-16.5 40.5q0 13 4 22l210 525q-44 22 -71 64t-27 93q0 72 51.5 123.5t123.5 51.5q73 0 124 -51.5t51 -123.5
q0 -51 -26.5 -93t-70.5 -64zM331 820q-24 0 -41 -17t-17 -41t17 -41.5t41 -17.5q25 0 42 17.5t17 41.5t-17 41t-42 17zM243 262h89h88l-88 223z" />
    <glyph glyph-name="Egrave" unicode="&#xc8;" 
d="M332 725q-14 0 -26 6l-117 58q-32 15 -32 53q0 14 6 26q15 32 53 32q13 0 25 -6l117 -59q32 -17 32 -52q0 -14 -6 -26q-16 -32 -52 -32zM157 117h291q24 0 41.5 -17t17.5 -42q0 -24 -17.5 -41t-41.5 -17h-350q-24 0 -41 17t-17 41v584q0 24 17 41t41 17h350
q24 0 41.5 -17t17.5 -41q0 -25 -17.5 -42t-41.5 -17h-291v-175h233q24 0 41 -17t17 -41t-17 -41t-41 -17h-233v-175z" />
    <glyph glyph-name="Eacute" unicode="&#xc9;" 
d="M215 725q-36 0 -52 32q-6 12 -6 26q0 35 32 52l117 59q12 6 25 6q37 0 53 -32q6 -12 6 -26q0 -37 -32 -53l-117 -58q-12 -6 -26 -6zM157 117h291q24 0 41.5 -17t17.5 -42q0 -24 -17.5 -41t-41.5 -17h-350q-24 0 -41 17t-17 41v584q0 24 17 41t41 17h350q24 0 41.5 -17
t17.5 -41q0 -25 -17.5 -42t-41.5 -17h-291v-175h233q24 0 41 -17t17 -41t-17 -41t-41 -17h-233v-175z" />
    <glyph glyph-name="Ecircumflex" unicode="&#xca;" 
d="M273 900q13 0 27 -6l116 -59q32 -18 32 -51q0 -14 -6 -27q-15 -32 -52 -32q-14 0 -26 6l-91 45l-90 -45q-13 -6 -26 -6q-36 0 -52 32q-6 13 -6 27q0 33 32 51l116 59q14 6 26 6zM157 117h291q24 0 41.5 -17t17.5 -42q0 -24 -17.5 -41t-41.5 -17h-350q-24 0 -41 17t-17 41
v584q0 24 17 41t41 17h350q24 0 41.5 -17t17.5 -41q0 -25 -17.5 -42t-41.5 -17h-291v-175h233q24 0 41 -17t17 -41t-17 -41t-41 -17h-233v-175z" />
    <glyph glyph-name="Edieresis" unicode="&#xcb;" 
d="M250 842q0 -25 -17 -42t-41 -17t-41.5 17t-17.5 42q0 24 17.5 41t41.5 17t41 -17t17 -41zM413 842q0 -25 -17 -42t-41 -17t-41 17t-17 42q0 24 17 41t41 17t41 -17t17 -41zM157 117h291q24 0 41.5 -17t17.5 -42q0 -24 -17.5 -41t-41.5 -17h-350q-24 0 -41 17t-17 41v584
q0 24 17 41t41 17h350q24 0 41.5 -17t17.5 -41q0 -25 -17.5 -42t-41.5 -17h-291v-175h233q24 0 41 -17t17 -41t-17 -41t-41 -17h-233v-175z" />
    <glyph glyph-name="Igrave" unicode="&#xcc;" horiz-adv-x="203" 
d="M160 725q-14 0 -26 6l-117 58q-32 15 -32 53q0 14 6 26q15 32 52 32q14 0 26 -6l117 -59q32 -16 32 -51q0 -14 -6 -27q-16 -32 -52 -32zM102 0q-25 0 -42 17t-17 41v584q0 24 17 41t42 17q24 0 41 -17t17 -41v-584q0 -24 -17 -41t-41 -17z" />
    <glyph glyph-name="Iacute" unicode="&#xcd;" horiz-adv-x="203" 
d="M43 725q-36 0 -52 32q-6 12 -6 26q0 35 32 52l117 59q12 6 25 6q37 0 53 -32q6 -14 6 -27q0 -35 -32 -52l-117 -58q-12 -6 -26 -6zM102 0q-25 0 -42 17t-17 41v584q0 24 17 41t42 17q24 0 41 -17t17 -41v-584q0 -24 -17 -41t-41 -17z" />
    <glyph glyph-name="Icircumflex" unicode="&#xce;" horiz-adv-x="320" 
d="M160 900q14 0 26 -6l117 -59q32 -16 32 -53q0 -13 -6 -25q-17 -32 -52 -32q-14 0 -26 6l-91 45l-91 -45q-12 -6 -26 -6q-37 0 -52 32q-6 13 -6 26q0 33 32 52l117 59q12 6 26 6zM160 0q-24 0 -41 17t-17 41v584q0 24 17 41t41 17t41 -17t17 -41v-584q0 -24 -17 -41
t-41 -17z" />
    <glyph glyph-name="Idieresis" unicode="&#xcf;" horiz-adv-x="250" 
d="M102 842q0 -25 -17 -42t-42 -17q-24 0 -41 17t-17 42q0 24 17 41t41 17q25 0 42 -17t17 -41zM265 842q0 -25 -17 -42t-41 -17q-25 0 -42 17t-17 42q0 24 17 41t42 17q24 0 41 -17t17 -41zM125 0q-24 0 -41 17t-17 41v584q0 24 17 41t41 17t41 -17t17 -41v-584
q0 -24 -17 -41t-41 -17z" />
    <glyph glyph-name="Eth" unicode="&#xd0;" horiz-adv-x="722" 
d="M535 655q147 -90 147 -305t-147 -305q-74 -45 -150 -45h-170q-24 0 -41 17t-17 41v234h-59q-24 0 -41 17t-17 41t17 41t41 17h59v234q0 24 17 41t41 17h170q76 0 150 -45zM477 147q88 56 88 203q0 149 -91 205q-46 28 -89 28h-112v-175h59q24 0 41 -17t17 -41t-17 -41
t-41 -17h-59v-175h112q46 0 92 30z" />
    <glyph glyph-name="Ntilde" unicode="&#xd1;" horiz-adv-x="605" 
d="M346 754q-24 0 -55 14.5t-40 14.5q-17 -29 -51 -29q-24 0 -41 17t-17 41q0 31 27.5 59.5t89.5 28.5q23 0 54 -14.5t41 -14.5q17 29 51 29q24 0 41 -17t17 -41q0 -45 -32 -66.5t-85 -21.5zM507 0q-31 0 -48 25l-302 432v-399q0 -24 -17.5 -41t-41.5 -17t-41 17t-17 41v584
q0 23 17 40.5t42 17.5q30 0 47 -25l302 -432v399q0 24 17 41t42 17q24 0 41 -17t17 -41v-584q0 -23 -17 -40.5t-41 -17.5z" />
    <glyph glyph-name="Ograve" unicode="&#xd2;" horiz-adv-x="751" 
d="M376 0q-139 0 -237.5 102.5t-98.5 247.5t98.5 247.5t237.5 102.5t237 -102.5t98 -247.5t-98 -247.5t-237 -102.5zM157 350q0 -97 64 -165t155 -68q90 0 154 68t64 165t-64 165t-154 68q-91 0 -155 -68t-64 -165zM408 731l-117 58q-32 16 -32 54q0 13 6 25q15 32 53 32
q14 0 26 -6l116 -59q32 -18 32 -52q0 -13 -6 -26q-16 -32 -52 -32q-14 0 -26 6z" />
    <glyph glyph-name="Oacute" unicode="&#xd3;" horiz-adv-x="751" 
d="M375 0q-139 0 -237 102.5t-98 247.5t98 247.5t237 102.5t237.5 -102.5t98.5 -247.5t-98.5 -247.5t-237.5 -102.5zM375 583q-90 0 -154 -68t-64 -165t64 -165t154 -68q91 0 155 68t64 165t-64 165t-155 68zM318 725q-36 0 -52 32q-6 13 -6 26q0 34 32 52l116 59q12 6 26 6
q38 0 53 -32q6 -12 6 -25q0 -38 -32 -54l-117 -58q-12 -6 -26 -6z" />
    <glyph glyph-name="Ocircumflex" unicode="&#xd4;" horiz-adv-x="751" 
d="M376 0q-139 0 -237.5 102.5t-98.5 247.5t98.5 247.5t237.5 102.5t237 -102.5t98 -247.5t-98 -247.5t-237 -102.5zM157 350q0 -97 64 -165t155 -68q90 0 154 68t64 165t-64 165t-154 68q-91 0 -155 -68t-64 -165zM375 900q13 0 27 -6l116 -59q32 -18 32 -51q0 -14 -6 -27
q-15 -32 -52 -32q-14 0 -26 6l-91 45l-90 -45q-14 -6 -26 -6q-36 0 -52 32q-6 13 -6 27q0 33 32 51l116 59q13 6 26 6z" />
    <glyph glyph-name="Otilde" unicode="&#xd5;" horiz-adv-x="751" 
d="M376 0q-139 0 -237.5 102.5t-98.5 247.5t98.5 247.5t237.5 102.5t237 -102.5t98 -247.5t-98 -247.5t-237 -102.5zM157 350q0 -97 64 -165t155 -68q90 0 154 68t64 165t-64 165t-154 68q-91 0 -155 -68t-64 -165zM419 754q-23 0 -55 14.5t-40 14.5q-17 -29 -51 -29
q-24 0 -41 17t-17 41q0 31 27.5 59.5t89.5 28.5q23 0 54 -14.5t41 -14.5q17 29 51 29q24 0 41 -17t17 -41q0 -45 -32 -66.5t-85 -21.5z" />
    <glyph glyph-name="Odieresis" unicode="&#xd6;" horiz-adv-x="751" 
d="M375 0q-139 0 -237 102.5t-98 247.5t98 247.5t237 102.5t237.5 -102.5t98.5 -247.5t-98.5 -247.5t-237.5 -102.5zM375 583q-90 0 -154 -68t-64 -165t64 -165t154 -68q91 0 155 68t64 165t-64 165t-155 68zM353 842q0 -25 -17 -42t-41 -17q-25 0 -42 17t-17 42q0 24 17 41
t42 17q24 0 41 -17t17 -41zM516 842q0 -25 -17 -42t-41 -17t-41 17t-17 42q0 24 17 41t41 17t41 -17t17 -41z" />
    <glyph glyph-name="multiply" unicode="&#xd7;" horiz-adv-x="402" 
d="M283 350l62 -62q17 -19 17 -41q0 -24 -17 -41q-16 -17 -41 -17q-22 0 -41 17l-62 61l-62 -61q-17 -17 -41 -17q-25 0 -41 17q-17 16 -17 41q0 24 17 41l61 62l-61 62q-17 17 -17 41q0 25 17 41q17 17 41 17q22 0 41 -17l62 -62l62 62q17 17 41 17t41 -17t17 -41t-17 -41z
" />
    <glyph glyph-name="Oslash" unicode="&#xd8;" horiz-adv-x="751" 
d="M637 568q74 -97 74 -218q0 -145 -98.5 -247.5t-237.5 -102.5q-96 0 -176 52l-27 -31q-18 -21 -45 -21q-20 0 -37 14q-21 18 -21 45q0 20 14 37l30 36q-73 95 -73 218q0 145 98 247.5t237 102.5q95 0 177 -52l27 31q18 21 45 21q20 0 37 -14q21 -18 21 -45q0 -20 -14 -37z
M157 350q0 -71 35 -126l283 333q-46 26 -100 26q-90 0 -154 -68t-64 -165zM375 117q91 0 155 68t64 165q0 69 -35 126l-283 -334q45 -25 99 -25z" />
    <glyph glyph-name="Ugrave" unicode="&#xd9;" horiz-adv-x="575" 
d="M346 725q-12 0 -26 6l-116 58q-22 10 -30 33.5t3 45.5q10 22 34 29.5t45 -3.5l116 -59q22 -11 29.5 -33t-3.5 -45q-16 -32 -52 -32zM288 0q-75 0 -131.5 35t-87.5 101q-29 63 -29 127v379q0 24 17 41t41 17t41 -17t17 -41v-379q0 -11 4.5 -30t16 -47.5t41 -48.5t70.5 -20
q40 0 68.5 19t40.5 46.5t17 47.5t5 33v379q0 24 17 41t41 17t41 -17t17 -41v-379q0 -64 -29 -127q-31 -66 -87 -101t-131 -35z" />
    <glyph glyph-name="Uacute" unicode="&#xda;" horiz-adv-x="575" 
d="M229 725q-37 0 -53 32q-11 22 -2.5 44.5t29.5 33.5l116 59q22 11 44.5 3t33.5 -29q11 -22 3.5 -45.5t-29.5 -33.5l-116 -58q-13 -6 -26 -6zM287 0q-156 0 -218 136q-29 61 -29 127v379q0 24 17 41t41 17t41 -17t17 -41v-379q0 -13 5 -33t17 -47.5t40.5 -46.5t68.5 -19
q41 0 70.5 20t41 48.5t16 47.5t4.5 30v379q0 24 17 41t41 17t41 -17t17 -41v-379q0 -64 -29 -127q-31 -66 -87.5 -101t-131.5 -35z" />
    <glyph glyph-name="Ucircumflex" unicode="&#xdb;" horiz-adv-x="575" 
d="M287 900q13 0 27 -6l116 -59q22 -11 29.5 -33t-3.5 -45q-10 -22 -33 -29.5t-45 3.5l-91 45l-90 -45q-22 -11 -44.5 -3.5t-33.5 29.5q-11 23 -3.5 45t29.5 33l116 59q13 6 26 6zM288 0q-75 0 -131.5 35t-87.5 101q-29 63 -29 127v379q0 24 17 41t41 17t41 -17t17 -41v-379
q0 -11 4.5 -30t16 -47.5t41 -48.5t70.5 -20q40 0 68.5 19t40.5 46.5t17 47.5t5 33v379q0 24 17 41t41 17t41 -17t17 -41v-379q0 -64 -29 -127q-31 -66 -87 -101t-131 -35z" />
    <glyph glyph-name="Udieresis" unicode="&#xdc;" horiz-adv-x="575" 
d="M265 842q0 -25 -17 -42t-42 -17q-24 0 -41 17t-17 42q0 24 17 41t41 17q25 0 42 -17t17 -41zM428 842q0 -25 -17 -42t-41 -17q-25 0 -42 17t-17 42q0 24 17 41t42 17q24 0 41 -17t17 -41zM287 0q-75 0 -131 35t-87 101q-29 63 -29 127v379q0 24 17 41t41 17t41 -17
t17 -41v-379q0 -13 5 -33t17 -47.5t41 -46.5t69 -19q41 0 70 20t40.5 48.5t16 47.5t4.5 30v379q0 24 17 41t41 17t41 -17t17 -41v-379q0 -64 -29 -127q-31 -66 -87 -101t-132 -35z" />
    <glyph glyph-name="germandbls" unicode="&#xdf;" 
d="M417 400q90 -59 90 -181q0 -103 -60 -157.5t-140 -60.5q-1 -1 -4 -1h-59q-24 0 -41 17t-17 41t17 41.5t41 17.5h56q31 3 54 19q36 24 36 83q0 63 -43 87q-26 15 -52 15h-51q-24 0 -41 17t-17 41t17 41.5t41 17.5h14q23 0 43 11q31 18 31 61q0 44 -31 62q-9 5 -19.5 7.5
t-16.5 3.5l-6 1q-2 0 -4.5 -0.5t-3.5 -0.5h-94v-525q0 -24 -17.5 -41t-41.5 -17t-41 17t-17 41v584q0 24 17 41t41 17h161q46 0 91 -23q98 -48 98 -167q0 -64 -31 -110z" />
    <glyph glyph-name="agrave" unicode="&#xe0;" horiz-adv-x="488" 
d="M447 122l1 -64q0 -23 -17.5 -40.5t-40.5 -17.5q-37 0 -52 32q-32 -16 -69 -24q-44 -7 -63 -7q-64 0 -106.5 31t-55.5 88q-4 15 -4 33q0 43 26 77q50 65 179 70q7 0 21.5 0.5t22.5 0.5q24 0 38 -2q-6 30 -20 39q-22 12 -50 12q-55 0 -97 -34q-16 -13 -37 -13q-27 0 -45 21
q-13 16 -13 37q0 29 21 45q62 51 142 59q9 1 27 1q62 0 109 -26q36 -20 56.5 -60.5t23.5 -62.5t3 -38v-157zM318 170q4 8 4 12q-14 2 -33 2q-27 0 -40 -1q-74 -3 -90 -23q-3 -3 -3 -7t1 -6q2 -9 4.5 -13.5t14 -10t30.5 -5.5q18 0 38 4q2 1 4 1q49 9 70 47zM277 531l-117 58
q-32 17 -32 52q0 13 6 27q16 32 53 32q13 0 25 -6l117 -59q32 -17 32 -52q0 -14 -6 -26q-16 -32 -52 -32q-14 0 -26 6z" />
    <glyph glyph-name="aacute" unicode="&#xe1;" horiz-adv-x="488" 
d="M447 122l1 -64q0 -23 -17.5 -40.5t-40.5 -17.5q-37 0 -52 32q-32 -16 -69 -24q-44 -7 -63 -7q-64 0 -106.5 31t-55.5 88q-4 15 -4 33q0 43 26 77q50 65 179 70q7 0 21.5 0.5t22.5 0.5q24 0 38 -2q-6 30 -20 39q-22 12 -50 12q-55 0 -97 -34q-16 -13 -37 -13q-27 0 -45 21
q-13 16 -13 37q0 29 21 45q62 51 142 59q9 1 27 1q62 0 109 -26q36 -20 56.5 -60.5t23.5 -62.5t3 -38v-157zM318 170q4 8 4 12q-14 2 -33 2q-27 0 -40 -1q-74 -3 -90 -23q-3 -3 -3 -7t1 -6q2 -9 4.5 -13.5t14 -10t30.5 -5.5q18 0 38 4q2 1 4 1q49 9 70 47zM185 525
q-36 0 -52 32q-6 12 -6 26q0 35 32 52l117 59q12 6 25 6q37 0 53 -32q6 -14 6 -27q0 -35 -32 -52l-117 -58q-12 -6 -26 -6z" />
    <glyph glyph-name="acircumflex" unicode="&#xe2;" horiz-adv-x="488" 
d="M447 122l1 -64q0 -23 -17.5 -40.5t-40.5 -17.5q-37 0 -52 32q-32 -16 -69 -24q-44 -7 -63 -7q-64 0 -106.5 31t-55.5 88q-4 15 -4 33q0 43 26 77q50 65 179 70q7 0 21.5 0.5t22.5 0.5q24 0 38 -2q-6 30 -20 39q-22 12 -50 12q-55 0 -97 -34q-16 -13 -37 -13q-27 0 -45 21
q-13 16 -13 37q0 29 21 45q62 51 142 59q9 1 27 1q62 0 109 -26q36 -20 56.5 -60.5t23.5 -62.5t3 -38v-157zM318 170q4 8 4 12q-14 2 -33 2q-27 0 -40 -1q-74 -3 -90 -23q-3 -3 -3 -7t1 -6q2 -9 4.5 -13.5t14 -10t30.5 -5.5q18 0 38 4q2 1 4 1q49 9 70 47zM243 700
q13 0 27 -6l116 -59q32 -18 32 -51q0 -14 -6 -27q-15 -32 -52 -32q-14 0 -26 6l-91 45l-90 -45q-13 -6 -26 -6q-36 0 -52 32q-6 13 -6 27q0 33 32 51l116 59q14 6 26 6z" />
    <glyph glyph-name="atilde" unicode="&#xe3;" horiz-adv-x="488" 
d="M447 122l1 -64q0 -23 -17.5 -40.5t-40.5 -17.5q-37 0 -52 32q-32 -16 -69 -24q-44 -7 -63 -7q-64 0 -106.5 31t-55.5 88q-4 15 -4 33q0 43 26 77q50 65 179 70q7 0 21.5 0.5t22.5 0.5q24 0 38 -2q-6 30 -20 39q-22 12 -50 12q-55 0 -97 -34q-16 -13 -37 -13q-27 0 -45 21
q-13 16 -13 37q0 29 21 45q62 51 142 59q9 1 27 1q62 0 109 -26q36 -20 56.5 -60.5t23.5 -62.5t3 -38v-157zM318 170q4 8 4 12q-14 2 -33 2q-27 0 -40 -1q-74 -3 -90 -23q-3 -3 -3 -7t1 -6q2 -9 4.5 -13.5t14 -10t30.5 -5.5q18 0 38 4q2 1 4 1q49 9 70 47zM287 554
q-23 0 -55 14.5t-40 14.5q-17 -29 -51 -29q-24 0 -41 17t-17 41q0 31 27.5 59.5t89.5 28.5q23 0 54 -14.5t41 -14.5q17 29 51 29q24 0 41 -17t17 -41q0 -45 -32 -66.5t-85 -21.5z" />
    <glyph glyph-name="adieresis" unicode="&#xe4;" horiz-adv-x="488" 
d="M447 122l1 -64q0 -23 -17.5 -40.5t-40.5 -17.5q-37 0 -52 32q-32 -16 -69 -24q-44 -7 -63 -7q-64 0 -106.5 31t-55.5 88q-4 15 -4 33q0 43 26 77q50 65 179 70q7 0 21.5 0.5t22.5 0.5q24 0 38 -2q-6 30 -20 39q-22 12 -50 12q-55 0 -97 -34q-16 -13 -37 -13q-27 0 -45 21
q-13 16 -13 37q0 29 21 45q62 51 142 59q9 1 27 1q62 0 109 -26q36 -20 56.5 -60.5t23.5 -62.5t3 -38v-157zM318 170q4 8 4 12q-14 2 -33 2q-27 0 -40 -1q-74 -3 -90 -23q-3 -3 -3 -7t1 -6q2 -9 4.5 -13.5t14 -10t30.5 -5.5q18 0 38 4q2 1 4 1q49 9 70 47zM221 584
q0 -25 -17 -42t-41 -17q-25 0 -42 17t-17 42q0 24 17 41t42 17q24 0 41 -17t17 -41zM384 584q0 -25 -17 -42t-41 -17t-41 17t-17 42q0 24 17 41t41 17t41 -17t17 -41z" />
    <glyph glyph-name="ae" unicode="&#xe6;" horiz-adv-x="780" 
d="M740 243q0 -24 -17 -41t-41 -17h-225q24 -65 81 -68q42 0 74 36q18 19 43 19q23 0 39 -15q19 -18 19 -44q0 -23 -15 -39q-67 -74 -163 -74q-89 0 -150 77q-25 -35 -67.5 -56t-91.5 -21q-77 0 -131.5 47t-54.5 113q0 67 54.5 114t131.5 47q58 0 106 -29v58h-175
q-25 0 -42 17t-17 41q0 25 17 42t42 17h233q33 0 49 -28q45 28 97 28q86 0 146 -66q58 -64 58 -158zM226 117q26 0 47.5 12.5t21.5 30.5t-21.5 31t-47.5 13t-47.5 -13t-21.5 -31t21.5 -30.5t47.5 -12.5zM465 301h145q-24 49 -74 49q-45 0 -71 -49z" />
    <glyph glyph-name="egrave" unicode="&#xe8;" horiz-adv-x="488" 
d="M277 531l-117 58q-32 17 -32 52q0 13 6 27q16 32 53 32q13 0 25 -6l117 -59q32 -17 32 -52q0 -14 -6 -26q-16 -32 -52 -32q-14 0 -26 6zM258 0q-14 0 -18 1q-95 5 -150 74q-50 64 -50 159q0 97 60 165t144 68q88 0 146 -66q58 -63 58 -157q0 -24 -17 -41.5t-41 -17.5
h-227q20 -66 83 -68h6q43 0 68 18q15 9 32 9q32 0 49 -26q10 -13 10 -31q0 -33 -27 -50q-56 -37 -126 -37zM174 302h145q-25 49 -75 49q-43 0 -70 -49z" />
    <glyph glyph-name="eacute" unicode="&#xe9;" horiz-adv-x="488" 
d="M185 525q-36 0 -52 32q-6 12 -6 26q0 35 32 52l117 59q12 6 25 6q37 0 53 -32q6 -14 6 -27q0 -35 -32 -52l-117 -58q-12 -6 -26 -6zM258 0q-14 0 -18 1q-95 5 -150 74q-50 64 -50 159q0 97 60 165t144 68q88 0 146 -66q58 -63 58 -157q0 -24 -17 -41.5t-41 -17.5h-227
q20 -66 83 -68h6q43 0 68 18q15 9 32 9q32 0 49 -26q10 -13 10 -31q0 -33 -27 -50q-56 -37 -126 -37zM174 302h145q-25 49 -75 49q-43 0 -70 -49z" />
    <glyph glyph-name="ecircumflex" unicode="&#xea;" horiz-adv-x="488" 
d="M243 700q13 0 27 -6l116 -59q32 -18 32 -51q0 -14 -6 -27q-15 -32 -52 -32q-14 0 -26 6l-91 45l-90 -45q-13 -6 -26 -6q-36 0 -52 32q-6 13 -6 27q0 33 32 51l116 59q14 6 26 6zM258 0q-14 0 -18 1q-95 5 -150 74q-50 64 -50 159q0 97 60 165t144 68q88 0 146 -66
q58 -63 58 -157q0 -24 -17 -41.5t-41 -17.5h-227q20 -66 83 -68h6q43 0 68 18q15 9 32 9q32 0 49 -26q10 -13 10 -31q0 -33 -27 -50q-56 -37 -126 -37zM174 302h145q-25 49 -75 49q-43 0 -70 -49z" />
    <glyph glyph-name="edieresis" unicode="&#xeb;" horiz-adv-x="488" 
d="M221 584q0 -25 -17 -42t-41 -17q-25 0 -42 17t-17 42q0 24 17 41t42 17q24 0 41 -17t17 -41zM384 584q0 -25 -17 -42t-41 -17t-41 17t-17 42q0 24 17 41t41 17t41 -17t17 -41zM258 0q-14 0 -18 1q-95 5 -150 74q-50 64 -50 159q0 97 60 165t144 68q88 0 146 -66
q58 -63 58 -157q0 -24 -17 -41.5t-41 -17.5h-227q20 -66 83 -68h6q43 0 68 18q15 9 32 9q32 0 49 -26q10 -13 10 -31q0 -33 -27 -50q-56 -37 -126 -37zM174 302h145q-25 49 -75 49q-43 0 -70 -49z" />
    <glyph glyph-name="igrave" unicode="&#xec;" horiz-adv-x="313" 
d="M189 531l-117 58q-32 17 -32 52q0 13 6 27q16 32 53 32q13 0 25 -6l117 -59q32 -17 32 -52q0 -14 -6 -26q-16 -32 -52 -32q-14 0 -26 6zM97 58v350q0 24 17.5 41.5t41.5 17.5t41 -17.5t17 -41.5v-350q0 -24 -17 -41t-41 -17t-41.5 17t-17.5 41z" />
    <glyph glyph-name="iacute" unicode="&#xed;" horiz-adv-x="313" 
d="M98 525q-36 0 -52 32q-6 12 -6 26q0 35 32 52l117 59q12 6 25 6q37 0 53 -32q6 -14 6 -27q0 -35 -32 -52l-117 -58q-12 -6 -26 -6zM156 0q-24 0 -41 17t-17 41v350q0 24 17 41.5t41 17.5t41.5 -17.5t17.5 -41.5v-350q0 -24 -17.5 -41t-41.5 -17z" />
    <glyph glyph-name="icircumflex" unicode="&#xee;" horiz-adv-x="429" 
d="M214 700q14 0 27 -6l116 -59q32 -18 32 -51q0 -14 -6 -27q-15 -32 -52 -32q-14 0 -26 6l-91 45l-90 -45q-14 -6 -26 -6q-36 0 -52 32q-6 13 -6 27q0 33 32 51l116 59q13 6 26 6zM156 58v350q0 24 17.5 41.5t41.5 17.5t41 -17.5t17 -41.5v-350q0 -24 -17 -41t-41 -17
t-41.5 17t-17.5 41z" />
    <glyph glyph-name="idieresis" unicode="&#xef;" horiz-adv-x="360" 
d="M157 584q0 -25 -17 -42t-41 -17q-25 0 -42 17t-17 42q0 24 17 41t42 17q24 0 41 -17t17 -41zM320 584q0 -25 -17 -42t-41 -17t-41 17t-17 42q0 24 17 41t41 17t41 -17t17 -41zM179 0q-24 0 -41 17t-17 41v350q0 24 17 41.5t41 17.5t41.5 -17.5t17.5 -41.5v-350
q0 -24 -17.5 -41t-41.5 -17z" />
    <glyph glyph-name="ntilde" unicode="&#xf1;" horiz-adv-x="488" 
d="M287 554q-23 0 -55 14.5t-40 14.5q-17 -29 -51 -29q-24 0 -41 17t-17 41q0 31 27.5 59.5t89.5 28.5q23 0 54 -14.5t41 -14.5q17 29 51 29q24 0 41 -17t17 -41q0 -45 -32 -66.5t-85 -21.5zM390 467q24 0 41 -17t17 -42v-350q0 -18 -10.5 -33t-27.5 -21q-9 -4 -21 -4
q-26 0 -44 21l-188 226v-189q0 -24 -17 -41t-42 -17q-24 0 -41 17t-17 41v350q0 19 10.5 34t27.5 21q9 4 21 4q26 0 44 -21l189 -226v188q0 25 17 42t41 17z" />
    <glyph glyph-name="ograve" unicode="&#xf2;" 
d="M307 531l-117 58q-32 17 -32 52q0 13 6 27q16 32 53 32q13 0 25 -6l117 -59q32 -17 32 -52q0 -14 -6 -26q-16 -32 -52 -32q-14 0 -26 6zM273 467q97 0 165.5 -68.5t68.5 -165.5q0 -96 -68.5 -164.5t-165.5 -68.5q-96 0 -164.5 68.5t-68.5 164.5q0 97 68.5 165.5
t164.5 68.5zM273 117q49 0 83 34t34 82q0 49 -34 83t-83 34q-48 0 -82 -34t-34 -83q0 -48 34 -82t82 -34z" />
    <glyph glyph-name="oacute" unicode="&#xf3;" 
d="M215 525q-36 0 -52 32q-6 12 -6 26q0 35 32 52l117 59q12 6 25 6q37 0 53 -32q6 -14 6 -27q0 -35 -32 -52l-117 -58q-12 -6 -26 -6zM274 467q96 0 164.5 -68.5t68.5 -165.5q0 -96 -68.5 -164.5t-164.5 -68.5q-97 0 -165.5 68.5t-68.5 164.5q0 97 68.5 165.5t165.5 68.5z
M157 233q0 -48 34 -82t83 -34q48 0 82 34t34 82q0 49 -34 83t-82 34q-49 0 -83 -34t-34 -83z" />
    <glyph glyph-name="ocircumflex" unicode="&#xf4;" 
d="M273 700q13 0 27 -6l116 -59q32 -18 32 -51q0 -14 -6 -27q-15 -32 -52 -32q-14 0 -26 6l-91 45l-90 -45q-14 -6 -26 -6q-36 0 -52 32q-6 13 -6 27q0 33 32 51l116 59q14 6 26 6zM274 467q96 0 164.5 -68.5t68.5 -165.5q0 -96 -68.5 -164.5t-164.5 -68.5
q-97 0 -165.5 68.5t-68.5 164.5q0 97 68.5 165.5t165.5 68.5zM157 233q0 -48 34 -82t83 -34q48 0 82 34t34 82q0 49 -34 83t-82 34q-49 0 -83 -34t-34 -83z" />
    <glyph glyph-name="otilde" unicode="&#xf5;" 
d="M317 554q-24 0 -55.5 14.5t-39.5 14.5q-17 -29 -51 -29q-24 0 -41 17t-17 41q0 31 27.5 59.5t89.5 28.5q23 0 54 -14.5t41 -14.5q17 29 51 29q24 0 41 -17t17 -41q0 -45 -32 -66.5t-85 -21.5zM274 467q96 0 164.5 -68.5t68.5 -165.5q0 -96 -68.5 -164.5t-164.5 -68.5
q-97 0 -165.5 68.5t-68.5 164.5q0 97 68.5 165.5t165.5 68.5zM157 233q0 -48 34 -82t83 -34q48 0 82 34t34 82q0 49 -34 83t-82 34q-49 0 -83 -34t-34 -83z" />
    <glyph glyph-name="odieresis" unicode="&#xf6;" 
d="M274 467q96 0 164.5 -68.5t68.5 -165.5q0 -96 -68.5 -164.5t-164.5 -68.5q-97 0 -165.5 68.5t-68.5 164.5q0 97 68.5 165.5t165.5 68.5zM157 233q0 -48 34 -82t83 -34q48 0 82 34t34 82q0 49 -34 83t-82 34q-49 0 -83 -34t-34 -83zM251 584q0 -25 -17 -42t-41 -17
q-25 0 -42 17t-17 42q0 24 17 41t42 17q24 0 41 -17t17 -41zM414 584q0 -25 -17 -42t-41 -17t-41 17t-17 42q0 24 17 41t41 17t41 -17t17 -41z" />
    <glyph glyph-name="oslash" unicode="&#xf8;" horiz-adv-x="518" 
d="M447 114l15 -16q16 -16 16 -40q0 -27 -19 -43q-17 -15 -40 -15q-25 0 -43 19l-10 11q-51 -30 -107 -30q-91 0 -155 68.5t-64 164.5q0 65 31 119l-15 17q-16 16 -16 40q0 26 19 42q16 15 40 15q25 0 43 -18l10 -11q49 30 107 30q91 0 155 -68.5t64 -165.5q0 -62 -31 -119z
M259 350q-13 0 -25 -3l125 -137q2 16 2 23q0 49 -30 83t-72 34zM259 117q13 0 25 3l-125 136q-2 -14 -2 -23q0 -48 30 -82t72 -34z" />
    <glyph glyph-name="ugrave" unicode="&#xf9;" horiz-adv-x="454" 
d="M99 467q24 0 41 -17t17 -42v-227q0 -18 11 -37q15 -27 59 -27t59 27q11 19 11 37v227q0 25 17 42t41 17t41.5 -17t17.5 -42v-227q0 -45 -23 -88q-48 -93 -164 -93t-164 93q-23 43 -23 88v227q0 25 17 42t42 17zM260 531l-117 58q-32 17 -32 52q0 13 6 27q16 32 53 32
q13 0 25 -6l117 -59q32 -17 32 -52q0 -14 -6 -26q-16 -32 -52 -32q-14 0 -26 6z" />
    <glyph glyph-name="uacute" unicode="&#xfa;" horiz-adv-x="454" 
d="M355 467q24 0 41.5 -17t17.5 -42v-227q0 -45 -23 -88q-48 -93 -164 -93t-164 93q-23 43 -23 88v227q0 25 17 42t42 17q24 0 41 -17t17 -42v-227q0 -18 11 -37q15 -27 59 -27t59 27q11 19 11 37v227q0 25 17 42t41 17zM168 525q-36 0 -52 32q-6 12 -6 26q0 35 32 52
l117 59q12 6 25 6q37 0 53 -32q6 -14 6 -27q0 -35 -32 -52l-117 -58q-12 -6 -26 -6z" />
    <glyph glyph-name="ucircumflex" unicode="&#xfb;" horiz-adv-x="454" 
d="M355 467q24 0 41.5 -17t17.5 -42v-227q0 -45 -23 -88q-48 -93 -164 -93t-164 93q-23 43 -23 88v227q0 25 17 42t42 17q24 0 41 -17t17 -42v-227q0 -18 11 -37q15 -27 59 -27t59 27q11 19 11 37v227q0 25 17 42t41 17zM226 700q14 0 27 -6l116 -59q32 -18 32 -51
q0 -14 -6 -27q-15 -32 -52 -32q-14 0 -26 6l-91 45l-90 -45q-13 -6 -26 -6q-36 0 -52 32q-6 13 -6 27q0 33 32 51l116 59q14 6 26 6z" />
    <glyph glyph-name="udieresis" unicode="&#xfc;" horiz-adv-x="454" 
d="M355 467q24 0 41.5 -17t17.5 -42v-227q0 -45 -23 -88q-48 -93 -164 -93t-164 93q-23 43 -23 88v227q0 25 17 42t42 17q24 0 41 -17t17 -42v-227q0 -18 11 -37q15 -27 59 -27t59 27q11 19 11 37v227q0 25 17 42t41 17zM204 584q0 -25 -17 -42t-41 -17q-25 0 -42 17t-17 42
q0 24 17 41t42 17q24 0 41 -17t17 -41zM367 584q0 -25 -17 -42t-41 -17t-41 17t-17 42q0 24 17 41t41 17t41 -17t17 -41z" />
    <glyph glyph-name="yacute" unicode="&#xfd;" horiz-adv-x="529" 
d="M206 540q-36 0 -52 32q-6 12 -6 26q0 35 32 52l117 59q12 6 25 6q37 0 53 -32q6 -12 6 -26q0 -37 -32 -53l-117 -58q-12 -6 -26 -6zM483 383l-166 -350l-7 -11l-100 -221q-15 -34 -53 -34q-15 0 -25 5q-33 14 -33 53q0 14 5 24l95 211l-153 323q-6 12 -6 25q0 37 33 53
q12 6 25 6q37 0 53 -34l114 -239l113 239q16 34 53 34q13 0 25 -6q33 -16 33 -53q0 -13 -6 -25z" />
    <glyph glyph-name="ydieresis" unicode="&#xff;" horiz-adv-x="529" 
d="M242 599q0 -25 -17 -42t-41 -17q-25 0 -42 17t-17 42q0 24 17 41t42 17q24 0 41 -17t17 -41zM405 599q0 -25 -17 -42t-41 -17t-41 17t-17 42q0 24 17 41t41 17t41 -17t17 -41zM483 383l-166 -350l-7 -11l-100 -221q-15 -34 -53 -34q-15 0 -25 5q-33 14 -33 53q0 14 5 24
l95 211l-153 323q-6 12 -6 25q0 37 33 53q12 6 25 6q37 0 53 -34l114 -239l113 239q16 34 53 34q13 0 25 -6q33 -16 33 -53q0 -13 -6 -25z" />
    <glyph glyph-name="dotlessi" unicode="&#x131;" horiz-adv-x="282" 
d="M185 463q24 0 40.5 -17t16.5 -41v-347q0 -24 -16.5 -41t-40.5 -17t-41 17t-17 41v289h-29q-24 0 -41 17t-17 41t17 41t41 17h87z" />
    <glyph glyph-name="ij" unicode="&#x133;" horiz-adv-x="430" 
d="M332 467q24 0 41 -17t17 -41v-467q0 -43 -21 -84q-45 -91 -154 -91q-24 0 -41 17t-17 41q0 25 17 42t41 17q36 0 50 26q4 7 6 15t2 13v4v408h-116v-291q0 -25 -17 -42t-42 -17q-24 0 -41 17t-17 42v350q0 24 17 41t41 17h234zM98 642q25 0 42 -17.5t17 -41.5t-17 -41
t-42 -17q-24 0 -41 17t-17 41t17 41.5t41 17.5zM332 642q24 0 41 -17.5t17 -41.5t-17 -41t-41 -17q-25 0 -42 17t-17 41t17 41.5t42 17.5z" />
    <glyph glyph-name="omacron" unicode="&#x14d;" horiz-adv-x="576" 
d="M288 525q103 0 175.5 -77t72.5 -186q0 -108 -72.5 -185t-175.5 -77t-175.5 77t-72.5 185q0 109 72.5 186t175.5 77zM288 117q54 0 92.5 42.5t38.5 102.5q0 61 -38.5 103.5t-92.5 42.5q-55 0 -93 -42.5t-38 -103.5q0 -60 38 -102.5t93 -42.5zM448 583h-321q-24 0 -41 17
t-17 42q0 24 17 41t41 17h321q24 0 41.5 -17t17.5 -41q0 -25 -17.5 -42t-41.5 -17z" />
    <glyph glyph-name="oe" unicode="&#x153;" horiz-adv-x="848" 
d="M808 244q0 -24 -17 -41.5t-41 -17.5h-227q20 -66 83 -68h6q43 0 68 18q15 9 32 9q32 0 49 -26q10 -13 10 -31q0 -33 -27 -50q-56 -37 -126 -37q-14 0 -18 1q-95 5 -150 74l-3 3q-68 -78 -174 -78q-96 0 -164.5 68.5t-68.5 164.5q0 97 68.5 165.5t164.5 68.5
q107 0 177 -81q60 81 154 81q88 0 146 -66q58 -63 58 -157zM273 117q49 0 83 34t34 82q0 49 -34 83t-83 34q-48 0 -82 -34t-34 -83q0 -48 34 -82t82 -34zM534 302h145q-25 49 -75 49q-43 0 -70 -49z" />
    <glyph glyph-name="Ydieresis" unicode="&#x178;" horiz-adv-x="605" 
d="M540 689q25 -17 25 -47q0 -18 -11 -34l-193 -276v-274q0 -24 -17 -41t-42 -17q-24 0 -41 17t-17 41v274l-193 276q-11 14 -11 31q0 24 16 42.5t42 18.5q31 0 48 -25l156 -223l157 223q17 25 48 25q17 0 33 -11zM279 842q0 -25 -17 -42t-41 -17q-25 0 -42 17t-17 42
q0 24 17 41t42 17q24 0 41 -17t17 -41zM442 842q0 -25 -17 -42t-41 -17t-41 17t-17 42q0 24 17 41t41 17t41 -17t17 -41z" />
    <glyph glyph-name="zcaron" unicode="&#x17e;" horiz-adv-x="488" 
d="M244 540q-14 0 -27 6l-116 59q-32 18 -32 51q0 14 6 27q15 32 52 32q14 0 26 -6l91 -45l90 45q14 6 26 6q36 0 52 -32q6 -13 6 -27q0 -33 -32 -51l-116 -59q-14 -6 -26 -6zM390 117q24 0 41 -17t17 -42q0 -24 -17 -41t-41 -17h-292q-37 0 -53 34q-5 10 -5 25q0 21 13 37
l212 254h-167q-24 0 -41 17t-17 41q0 25 17 42t41 17h292q37 0 53 -34q5 -13 5 -24q0 -22 -13 -38l-212 -254h167z" />
    <glyph glyph-name="florin" unicode="&#x192;" horiz-adv-x="428" 
d="M330 469q24 0 41 -17t17 -41t-17 -41t-41 -17h-58v-319q0 -42 -21 -83q-45 -90 -153 -90q-24 0 -41 17t-17 41t17 41t41 17q34 0 49 23q9 18 9 35v318h-29q-24 0 -41 17t-17 41t17 41t41 17h29v57q0 43 21 84q45 90 153 90q24 0 41 -17t17 -41t-17 -41t-41 -17
q-34 0 -49 -23q-9 -18 -9 -35v-57h58z" />
    <glyph glyph-name="circumflex" unicode="&#x2c6;" horiz-adv-x="429" 
d="M214 900q14 0 27 -6l116 -59q32 -18 32 -51q0 -14 -6 -27q-15 -32 -52 -32q-14 0 -26 6l-91 45l-90 -45q-14 -6 -26 -6q-36 0 -52 32q-6 13 -6 27q0 33 32 51l116 59q13 6 26 6z" />
    <glyph glyph-name="tilde" unicode="&#x2dc;" horiz-adv-x="401" 
d="M244 754q-24 0 -55 14.5t-40 14.5q-17 -29 -51 -29q-24 0 -41 17t-17 41q0 31 27.5 59.5t89.5 28.5q23 0 54 -14.5t41 -14.5q17 29 51 29q24 0 41 -17t17 -41q0 -45 -32 -66.5t-85 -21.5z" />
    <glyph glyph-name="Gamma" unicode="&#x393;" horiz-adv-x="427" 
d="M329 700q24 0 41 -17t17 -42q0 -24 -17 -41t-41 -17h-172v-525q0 -24 -17 -41t-42 -17q-24 0 -41 17t-17 41v584q0 24 17 41t42 17h230z" />
    <glyph glyph-name="Epsilon" unicode="&#x395;" horiz-adv-x="488" 
d="M390 292h-234v-175h234q24 0 41 -17t17 -42q0 -24 -17 -41t-41 -17h-292q-24 0 -41 17t-17 41v584q0 24 17 41t41 17h292q24 0 41 -17t17 -41q0 -25 -17 -42t-41 -17h-234v-175h234q24 0 41 -17t17 -41t-17 -41t-41 -17z" />
    <glyph glyph-name="Theta" unicode="&#x398;" horiz-adv-x="780" 
d="M637 597q103 -103 103 -247q0 -145 -103 -248q-102 -102 -247 -102q-144 0 -248 102q-102 102 -102 248q0 145 102 247q103 103 248 103q146 0 247 -103zM555 185q68 68 68 165q0 95 -68 165q-68 68 -165 68t-165 -68t-68 -165q0 -98 68 -165q68 -68 165 -68t165 68z
M390 437q36 0 61.5 -25.5t25.5 -61.5t-25.5 -62t-61.5 -26t-62 26t-26 62t26 61.5t62 25.5z" />
    <glyph glyph-name="Iota" unicode="&#x399;" horiz-adv-x="314" 
d="M215 117q25 0 42 -17t17 -42q0 -24 -17 -41t-42 -17h-116q-25 0 -42 17t-17 41q0 25 17 42t42 17v466q-25 0 -42 17t-17 42q0 24 17 41t42 17h116q25 0 42 -17t17 -41q0 -25 -17 -42t-42 -17v-466z" />
    <glyph glyph-name="Lambda" unicode="&#x39b;" horiz-adv-x="606" 
d="M562 78q8 -23 -2 -45t-33 -30q-11 -3 -20 -3q-40 0 -55 39l-149 426l-149 -426q-8 -22 -29.5 -33t-44.5 -3t-33.5 30t-2.5 45l204 583q14 39 55 39t55 -39z" />
    <glyph glyph-name="Xi" unicode="&#x39e;" horiz-adv-x="546" 
d="M98 583q-24 0 -41 17t-17 42q0 24 17 41t41 17h350q24 0 41 -17t17 -41q0 -25 -17 -42t-41 -17h-350zM448 117q24 0 41 -17t17 -42q0 -24 -17 -41t-41 -17h-350q-24 0 -41 17t-17 41q0 25 17 42t41 17h350zM393 408q24 0 41 -17t17 -41t-17 -41t-41 -17h-237
q-24 0 -41 17t-17 41t17 41t41 17h237z" />
    <glyph glyph-name="Pi" unicode="&#x3a0;" horiz-adv-x="488" 
d="M390 700q24 0 41 -17t17 -41v-584q0 -24 -17 -41t-41 -17t-41 17t-17 41v525h-175v-525q0 -24 -17.5 -41t-41.5 -17t-41 17t-17 41v584q0 24 17 41t41 17h292z" />
    <glyph glyph-name="theta" unicode="&#x3b8;" horiz-adv-x="780" 
d="M390 700q145 0 247.5 -102.5t102.5 -247.5t-102.5 -247.5t-247.5 -102.5t-247.5 102.5t-102.5 247.5t102.5 247.5t247.5 102.5zM390 583q-82 0 -145 -50.5t-82 -127.5h454q-19 77 -82 127.5t-145 50.5zM390 117q80 0 142.5 48t82.5 123h-450q20 -75 82.5 -123t142.5 -48z
" />
    <glyph glyph-name="upsilon" unicode="&#x3c5;" horiz-adv-x="522" 
d="M366 455q4 -3 14.5 -11.5t29 -29.5t34 -44.5t27 -58t11.5 -69.5q0 -25 -6 -52q-20 -76 -71 -125q-70 -65 -179 -65q-115 0 -163 93q-23 43 -23 88v227q0 25 17 42t41 17t41 -17t17 -42v-227l1 -6q1 -6 3.5 -14.5t6.5 -16.5q17 -27 59 -27q112 0 136 101q3 12 3 24
q0 27 -16 56.5t-32 46.5t-21 17q-23 17 -23 47q0 19 12 34q17 23 47 23q20 0 34 -11z" />
    <glyph glyph-name="phi" unicode="&#x3c6;" 
d="M332 576q77 -20 126 -82.5t49 -143.5q0 -80 -49.5 -143t-125.5 -83v-66q0 -24 -17 -41t-41 -17q-25 0 -42 17t-17 41v66q-76 20 -125.5 83t-49.5 143q0 81 49.5 143.5t125.5 82.5v66q0 24 17 41t42 17q24 0 41 -17t17 -41v-66zM157 350q0 -68 58 -101v202
q-58 -33 -58 -101zM332 249q58 33 58 101t-58 101v-202z" />
    <glyph glyph-name="chi" unicode="&#x3c7;" horiz-adv-x="634" 
d="M551 115q19 -5 31 -20.5t12 -35.5q0 -5 -2 -15q-5 -20 -20.5 -32t-35.5 -12q-5 0 -15 2q-81 21 -127.5 76t-97.5 165l-117 -213q-17 -30 -51 -30q-16 0 -29 7q-30 17 -30 52q0 15 7 28l158 286q-57 108 -172 223q-22 17 -22 46q0 20 13 36q17 22 45 22q21 0 37 -13
q9 -7 27 -23.5t60 -65.5t77 -106l98 178q17 30 51 30q15 0 28 -7q31 -17 31 -51q0 -14 -8 -28l-134 -245l19 -40q56 -120 85.5 -160.5t81.5 -53.5z" />
    <glyph glyph-name="afii10145" unicode="&#x40f;" horiz-adv-x="488" 
d="M390 700q24 0 41 -17t17 -41v-584q0 -24 -17 -41t-41 -17h-88v-112q0 -25 -17 -42t-41 -17t-41 17t-17 42v112h-88q-24 0 -41 17t-17 41v584q0 24 17 41t41 17t41 -17t17 -41v-525h175v525q0 24 17.5 41t41.5 17z" />
    <glyph glyph-name="afii10018" unicode="&#x411;" horiz-adv-x="479" 
d="M320 439q119 -60 119 -206q0 -145 -119 -205q-57 -28 -114 -28h-107q-25 0 -42 17t-17 41v584q0 24 17 41t42 17h230q24 0 41 -17t17 -42q0 -24 -17 -41t-41 -17h-172v-116h49q57 0 114 -28zM270 134q53 28 53 99q0 72 -53 100q-32 17 -64 17h-49v-233h49q32 0 64 17z
" />
    <glyph glyph-name="afii10022" unicode="&#x415;" horiz-adv-x="488" 
d="M390 292h-234v-175h234q24 0 41 -17t17 -42q0 -24 -17 -41t-41 -17h-292q-24 0 -41 17t-17 41v584q0 24 17 41t41 17h292q24 0 41 -17t17 -41q0 -25 -17 -42t-41 -17h-234v-175h234q24 0 41 -17t17 -41t-17 -41t-41 -17z" />
    <glyph glyph-name="uni0417" unicode="&#x417;" horiz-adv-x="430" 
d="M186 700q84 0 144 -60t60 -144q0 -86 -62 -146q62 -60 62 -146q0 -84 -60 -144t-144 -60h-88q-24 0 -41 17t-17 41q0 25 17 42t41 17h88q36 0 61.5 25.5t25.5 61.5t-24.5 62t-59.5 26h-32q-25 0 -42 17t-17 41t17 41t42 17h29q36 0 61.5 26t25.5 62t-25.5 61.5
t-61.5 25.5h-88q-24 0 -41 17t-17 42q0 24 17 41t41 17h88z" />
    <glyph glyph-name="afii10029" unicode="&#x41b;" horiz-adv-x="576" 
d="M477 700q25 0 42 -17t17 -41v-584q0 -24 -17 -41t-42 -17q-24 0 -41 17t-17 41v525h-175v-437q0 -54 -36.5 -100t-109.5 -46q-24 0 -41 17t-17 41q0 25 17 42t41 17q19 0 24 10q5 9 5 20v495q0 24 17.5 41t41.5 17h291z" />
    <glyph glyph-name="afii10033" unicode="&#x41f;" horiz-adv-x="635" 
d="M536 0q-24 0 -41 17t-17 41v525h-321v-525q0 -24 -17 -41t-42 -17q-24 0 -41 17t-17 41v584q0 24 17 41t42 17h437q24 0 41.5 -17t17.5 -41v-584q0 -24 -17 -41t-42 -17z" />
    <glyph glyph-name="afii10041" unicode="&#x427;" horiz-adv-x="459" 
d="M361 700q24 0 41 -17t17 -41v-584q0 -24 -17 -41t-41 -17t-41 17t-17 41v175h-59q-126 0 -179 106q-25 49 -25 99v204q0 24 17 41t42 17q24 0 41 -17t17 -41v-204q0 -25 13 -50q21 -38 74 -38h59v292q0 24 17 41t41 17z" />
    <glyph glyph-name="afii10042" unicode="&#x428;" horiz-adv-x="605" 
d="M507 700q24 0 41 -17t17 -41v-584q0 -24 -17 -41t-41 -17h-204h-204q-24 0 -41.5 17t-17.5 41v584q0 24 17.5 41t41.5 17t41 -17t17 -41v-525h88v525q0 24 17 41t41 17t41 -17t17 -41v-525h88v525q0 24 17 41t41 17z" />
    <glyph glyph-name="uni0437" unicode="&#x437;" horiz-adv-x="488" 
d="M244 0q-85 0 -144.5 60t-59.5 144q0 24 17 41t41 17t41 -17t17 -41q0 -36 26 -61.5t62 -25.5t61.5 25.5t25.5 61.5t-25.5 62t-61.5 26q-24 0 -41 17t-17 41t17 41t41 17q36 0 61.5 26t25.5 62t-25.5 61.5t-61.5 25.5t-62 -25.5t-26 -61.5q0 -24 -17 -41.5t-41 -17.5
t-41 17.5t-17 41.5q0 84 59.5 144t144.5 60t144.5 -60t59.5 -144q0 -87 -61 -146q61 -59 61 -146q0 -84 -59.5 -144t-144.5 -60z" />
    <glyph glyph-name="afii10077" unicode="&#x43b;" horiz-adv-x="576" 
d="M477 467q25 0 42 -17t17 -42v-350q0 -24 -17 -41t-42 -17q-24 0 -41 17t-17 41v292h-175v-204q0 -54 -36.5 -100t-109.5 -46q-24 0 -41 17t-17 41q0 25 17 42t41 17q19 0 24 10q5 9 5 20v261q0 25 17.5 42t41.5 17h291z" />
    <glyph glyph-name="afii10079" unicode="&#x43d;" horiz-adv-x="488" 
d="M390 467q24 0 41 -17.5t17 -41.5v-350q0 -24 -17 -41t-41 -17t-41 17t-17 41v117h-175v-117q0 -24 -17 -41t-41 -17q-25 0 -42 17t-17 41v350q0 24 17 41.5t42 17.5q24 0 41 -17.5t17 -41.5v-116h175v116q0 24 17 41.5t41 17.5z" />
    <glyph glyph-name="afii10090" unicode="&#x448;" horiz-adv-x="605" 
d="M507 467q24 0 41 -17.5t17 -41.5v-350q0 -24 -17 -41t-41 -17h-409q-24 0 -41 17t-17 41v350q0 24 17 41.5t41 17.5t41.5 -17.5t17.5 -41.5v-291h87v291q0 24 17 41.5t41 17.5q25 0 42 -17.5t17 -41.5v-291h87v291q0 24 17 41.5t42 17.5z" />
    <glyph glyph-name="afii10196" unicode="&#x475;" horiz-adv-x="488" 
d="M198 0q-19 0 -34.5 9t-26 26.5t-15 28.5t-11.5 31q-14 44 -33 127q-9 39 -18 83t-14 69.5t-5 26.5q-1 4 -1 11q0 21 13.5 37t34.5 20q4 1 11 1q21 0 37 -13.5t20 -34.5q17 -99 39 -189q25 58 64.5 113.5t60.5 78t31 30.5q17 15 39 15q25 0 43 -19q15 -17 15 -39
q0 -27 -19 -43l-3 -3q-14 -14 -30 -33t-44 -57t-50 -87.5t-30 -99.5q-5 -31 -12 -45q-18 -41 -62 -44z" />
    <glyph glyph-name="wacute" unicode="&#x1e83;" horiz-adv-x="688" 
d="M609 463q18 -6 28.5 -21.5t10.5 -33.5q0 -10 -3 -19l-123 -350q-14 -39 -55 -39t-55 39l-68 194l-68 -194q-14 -39 -55 -39t-55 39l-123 350q-3 9 -3 19q0 42 39 55q9 3 20 3q41 0 54 -38l68 -193l67 193q12 37 54 39h4q40 -2 53 -39l68 -193l68 193q13 38 54 38
q9 0 20 -3zM285 540q-36 0 -52 32q-6 12 -6 26q0 35 32 52l117 59q12 6 25 6q37 0 53 -32q6 -12 6 -26q0 -37 -32 -53l-117 -58q-12 -6 -26 -6z" />
    <glyph glyph-name="Wdieresis" unicode="&#x1e84;" horiz-adv-x="945" 
d="M869 695q36 -14 36 -54q0 -13 -4 -22l-244 -583q-15 -36 -53 -36q-39 0 -54 36l-77 185l-78 -185q-15 -36 -53 -36q-39 0 -54 36l-244 583q-4 9 -4 22q0 23 17 41t42 18q38 0 53 -36l190 -454l67 163l-102 246q-5 12 -5 23q0 23 17 40.5t42 17.5q38 0 53 -36l59 -140
l58 140q15 36 53 36q25 0 42 -18t17 -41q0 -13 -4 -22l-103 -246l68 -163l189 454q15 36 53 36q11 0 23 -5zM449 842q0 -25 -17 -42t-41 -17t-41.5 17t-17.5 42q0 24 17.5 41t41.5 17t41 -17t17 -41zM612 842q0 -25 -17 -42t-41 -17t-41 17t-17 42q0 24 17 41t41 17t41 -17
t17 -41z" />
    <glyph glyph-name="wdieresis" unicode="&#x1e85;" horiz-adv-x="688" 
d="M609 463q18 -6 28.5 -21.5t10.5 -33.5q0 -10 -3 -19l-123 -350q-14 -39 -55 -39t-55 39l-68 194l-68 -194q-14 -39 -55 -39t-55 39l-123 350q-3 9 -3 19q0 42 39 55q9 3 20 3q41 0 54 -38l68 -193l67 193q12 37 54 39h4q40 -2 53 -39l68 -193l68 193q13 38 54 38
q9 0 20 -3zM319 583q0 -25 -17 -42t-41 -17q-25 0 -42 17t-17 42q0 24 17 41t42 17q24 0 41 -17t17 -41zM482 583q0 -25 -17 -42t-41 -17t-41 17t-17 42q0 24 17 41t41 17t41 -17t17 -41z" />
    <glyph glyph-name="dagger" unicode="&#x2020;" 
d="M328 525h120q25 0 42 -17t17 -42q0 -24 -17 -41t-42 -17h-120v-350q0 -24 -17 -41t-42 -17q-24 0 -41 17t-17 41v350h-113q-24 0 -41 17t-17 41q0 25 17 42t41 17h113v117q0 24 17 41t41 17q25 0 42 -17t17 -41v-117z" />
    <glyph glyph-name="daggerdbl" unicode="&#x2021;" 
d="M328 292h120q25 0 42 -17t17 -42q0 -24 -17 -41t-42 -17h-120v-117q0 -24 -17 -41t-42 -17q-24 0 -41 17t-17 41v117h-113q-24 0 -41 17t-17 41q0 25 17 42t41 17h113v116h-113q-24 0 -41 17t-17 41q0 25 17 42t41 17h113v117q0 24 17 41t41 17q25 0 42 -17t17 -41v-117
h120q25 0 42 -17t17 -42q0 -24 -17 -41t-42 -17h-120v-116z" />
    <glyph glyph-name="bullet" unicode="&#x2022;" horiz-adv-x="255" 
d="M215 350q0 -36 -25.5 -62t-61.5 -26t-62 26t-26 62t26 61.5t62 25.5t61.5 -25.5t25.5 -61.5z" />
    <glyph glyph-name="ellipsis" unicode="&#x2026;" horiz-adv-x="506" 
d="M253 117q24 0 41.5 -17t17.5 -42q0 -24 -17.5 -41t-41.5 -17t-41 17t-17 41q0 25 17 42t41 17zM407 117q24 0 41.5 -17t17.5 -42q0 -24 -17.5 -41t-41.5 -17t-41 17t-17 41q0 25 17 42t41 17zM98 117q24 0 41.5 -17t17.5 -42q0 -24 -17.5 -41t-41.5 -17t-41 17t-17 41
q0 25 17 42t41 17z" />
    <glyph glyph-name="guilsinglleft" unicode="&#x2039;" horiz-adv-x="386" 
d="M287 102q-24 0 -41 17l-189 190q-17 17 -17 41q0 22 17 41l189 190q16 17 42 17q24 0 41 -17q17 -19 17 -42q0 -24 -17 -41l-149 -148l149 -148q17 -17 17 -41q0 -23 -17 -42q-19 -17 -42 -17z" />
    <glyph glyph-name="guilsinglright" unicode="&#x203a;" horiz-adv-x="386" 
d="M99 102q-23 0 -42 17q-17 19 -17 42q0 24 17 41l149 148l-149 148q-17 17 -17 41q0 23 17 42q17 17 41 17q26 0 42 -17l189 -190q17 -19 17 -41q0 -24 -17 -41l-189 -190q-17 -17 -41 -17z" />
    <glyph glyph-name="fraction" unicode="&#x2044;" horiz-adv-x="313" 
d="M226 699q21 -4 34 -20.5t13 -37.5q0 -7 -1 -11l-117 -583q-4 -21 -20 -34t-37 -13q-7 0 -11 1q-21 4 -34 20.5t-13 37.5q0 7 1 11l117 583q4 21 20 34t37 13q7 0 11 -1z" />
    <glyph glyph-name="zerosuperior" unicode="&#x2070;" horiz-adv-x="318" 
d="M244 657q34 -42 34 -106v-59q0 -65 -34 -107t-85 -42q-52 0 -85.5 42t-33.5 107v59q0 64 34 106.5t85 42.5q50 0 85 -43zM218 492v59q0 35 -15.5 62t-43.5 27t-44 -27t-16 -62v-59q0 -39 16.5 -64t43.5 -25q26 0 42.5 25t16.5 64z" />
    <glyph glyph-name="foursuperior" unicode="&#x2074;" horiz-adv-x="303" 
d="M203 343q-12 0 -20.5 8.5t-8.5 21.5v44h-104q-13 0 -21.5 9t-8.5 22q0 9 4 14l134 224q9 14 26 14q12 0 20.5 -9t8.5 -21v-193q13 0 21.5 -9t8.5 -21t-8.5 -21t-21.5 -9v-44q0 -13 -8.5 -21.5t-21.5 -8.5zM174 563l-52 -86h52v86z" />
    <glyph glyph-name="fivesuperior" unicode="&#x2075;" horiz-adv-x="318" 
d="M159 581q49 0 84 -34.5t35 -84.5q0 -49 -35 -84t-84 -35t-84 35t-35 84q0 13 8.5 21.5t21.5 8.5t21.5 -8.5t8.5 -21.5q0 -25 17 -42t42 -17t42.5 17t17.5 42q0 24 -16.5 40.5t-39.5 18.5l-56 -13q-3 -1 -8 -1q-14 0 -21.5 9.5t-7.5 23.5l15 133q2 12 10 19.5t20 7.5h89
q12 0 20.5 -8.5t8.5 -21.5q0 -12 -8.5 -21t-20.5 -9h-63l-7 -64l18 4q2 1 7 1z" />
    <glyph glyph-name="sixsuperior" unicode="&#x2076;" horiz-adv-x="318" 
d="M159 343q-49 0 -84 35t-35 84q0 32 12 52l90 170q10 16 27 16q12 0 21 -9t9 -21q0 -7 -4 -14l-40 -75h4q49 0 84 -34.5t35 -84.5q0 -49 -35 -84t-84 -35zM159 521q-25 0 -42 -17t-17 -42t17 -42t42 -17t42 17t17 42t-17 42t-42 17z" />
    <glyph glyph-name="sevensuperior" unicode="&#x2077;" horiz-adv-x="288" 
d="M69 343q-7 0 -13 3q-16 9 -16 27q0 7 3 13l127 254h-101q-12 0 -20.5 9t-8.5 21q0 13 8.5 21.5t20.5 8.5h149q17 0 25 -14q5 -8 5 -16q0 -7 -3 -13l-149 -298q-8 -16 -27 -16z" />
    <glyph glyph-name="eightsuperior" unicode="&#x2078;" horiz-adv-x="318" 
d="M230 557q48 -36 48 -95q0 -49 -35.5 -84t-84.5 -35t-83.5 35t-34.5 84q0 58 47 95q-18 25 -18 54q0 37 26.5 63t62.5 26q37 0 63.5 -26t26.5 -63q0 -29 -18 -54zM129 611q0 -13 8.5 -21.5t20.5 -8.5q13 0 22 8.5t9 21.5q0 12 -9 20.5t-22 8.5q-12 0 -20.5 -8.5
t-8.5 -20.5zM158 403q25 0 42.5 17t17.5 42t-17.5 42t-42.5 17q-24 0 -41.5 -17t-17.5 -42t17.5 -42t41.5 -17z" />
    <glyph glyph-name="ninesuperior" unicode="&#x2079;" horiz-adv-x="318" 
d="M158 700q49 0 84.5 -35t35.5 -84q0 -25 -12 -52l-91 -170q-10 -16 -26 -16q-13 0 -21.5 9t-8.5 21q0 7 3 14l40 75h-4q-49 0 -83.5 35t-34.5 84t34.5 84t83.5 35zM158 521q25 0 42.5 17.5t17.5 42.5t-17.5 42t-42.5 17q-24 0 -41.5 -17t-17.5 -42t17.5 -42.5t41.5 -17.5z
" />
    <glyph glyph-name="zeroinferior" unicode="&#x2080;" horiz-adv-x="318" 
d="M244 314q34 -42 34 -106v-59q0 -65 -34 -107t-85 -42q-52 0 -85.5 42t-33.5 107v59q0 64 34 106.5t85 42.5q50 0 85 -43zM218 149v59q0 35 -15.5 62t-43.5 27t-44 -27t-16 -62v-59q0 -39 16.5 -64t43.5 -25q26 0 42.5 25t16.5 64z" />
    <glyph glyph-name="oneinferior" unicode="&#x2081;" horiz-adv-x="181" 
d="M107 0q-14 0 -24 10t-10 24v258q-14 1 -23.5 11t-9.5 23q0 14 10 24t24 10h33q13 0 23.5 -10t10.5 -24v-292q0 -14 -10 -24t-24 -10z" />
    <glyph glyph-name="twoinferior" unicode="&#x2082;" horiz-adv-x="313" 
d="M239 0h-165q-17 0 -28 14q-6 9 -6 20q0 3 2 11q2 7 10.5 26t34.5 53t58 55q36 23 48 35.5t12 30.5q0 19 -14 33t-34 14t-34.5 -14t-14.5 -33q0 -14 -10 -24t-24 -10t-24 10t-10 24q0 47 34 81t83 34q48 0 82 -34t34 -81q0 -30 -15.5 -55t-30 -36.5t-44.5 -31.5
q-32 -21 -53 -54h109q14 0 24 -10t10 -24t-10 -24t-24 -10z" />
    <glyph glyph-name="threeinferior" unicode="&#x2083;" horiz-adv-x="323" 
d="M244 196q39 -32 39 -83q0 -47 -36 -80t-86 -33t-85.5 33t-35.5 80q0 14 10 24t24 10t24 -10t10 -24q0 -19 15.5 -32t37.5 -13q23 0 38.5 13t15.5 32t-15.5 32.5t-38.5 13.5q-14 0 -24 10t-10 24t10 24t24 10q16 0 27 9t11 22t-11 22t-27 9t-26.5 -9t-10.5 -22
q0 -14 -10 -24t-24 -10t-24 10t-10 24q0 41 30.5 70t74.5 29t75 -29t31 -70q0 -34 -23 -62z" />
    <glyph glyph-name="fourinferior" unicode="&#x2084;" horiz-adv-x="303" 
d="M203 0q-12 0 -20.5 8.5t-8.5 21.5v44h-104q-13 0 -21.5 9t-8.5 22q0 9 4 14l134 224q9 14 26 14q12 0 20.5 -9t8.5 -21v-193q13 0 21.5 -9t8.5 -21t-8.5 -21t-21.5 -9v-44q0 -13 -8.5 -21.5t-21.5 -8.5zM174 220l-52 -86h52v86z" />
    <glyph glyph-name="fiveinferior" unicode="&#x2085;" horiz-adv-x="318" 
d="M159 238q49 0 84 -35t35 -84t-35 -84t-84 -35t-84 35t-35 84q0 13 8.5 21.5t21.5 8.5t21.5 -8.5t8.5 -21.5q0 -25 17 -42t42 -17t42.5 17t17.5 42q0 24 -16.5 40.5t-39.5 18.5l-56 -13q-3 -1 -8 -1q-14 0 -21.5 9.5t-7.5 23.5l15 133q2 12 10 19.5t20 7.5h89
q12 0 20.5 -8.5t8.5 -21.5q0 -12 -8.5 -21t-20.5 -9h-63l-7 -64l18 4q2 1 7 1z" />
    <glyph glyph-name="sixinferior" unicode="&#x2086;" horiz-adv-x="318" 
d="M159 0q-49 0 -84 35t-35 84q0 32 12 52l90 170q10 16 27 16q12 0 21 -9t9 -21q0 -7 -4 -14l-40 -75h4q49 0 84 -35t35 -84t-35 -84t-84 -35zM159 178q-25 0 -42 -17t-17 -42t17 -42t42 -17t42 17t17 42t-17 42t-42 17z" />
    <glyph glyph-name="seveninferior" unicode="&#x2087;" horiz-adv-x="288" 
d="M69 0q-7 0 -13 3q-16 9 -16 27q0 7 3 13l127 254h-101q-12 0 -20.5 9t-8.5 21q0 13 8.5 21.5t20.5 8.5h149q17 0 25 -14q5 -8 5 -16q0 -7 -3 -13l-149 -298q-8 -16 -27 -16z" />
    <glyph glyph-name="eightinferior" unicode="&#x2088;" horiz-adv-x="318" 
d="M230 214q48 -36 48 -95q0 -49 -35.5 -84t-84.5 -35t-83.5 35t-34.5 84q0 58 47 95q-18 25 -18 54q0 37 26.5 63t62.5 26q37 0 63.5 -26t26.5 -63q0 -29 -18 -54zM129 268q0 -13 8.5 -21.5t20.5 -8.5q13 0 22 8.5t9 21.5q0 12 -9 20.5t-22 8.5q-12 0 -20.5 -8.5
t-8.5 -20.5zM158 60q25 0 42.5 17t17.5 42t-17.5 42t-42.5 17q-24 0 -41.5 -17t-17.5 -42t17.5 -42t41.5 -17z" />
    <glyph glyph-name="nineinferior" unicode="&#x2089;" horiz-adv-x="318" 
d="M158 357q49 0 84.5 -35t35.5 -84q0 -25 -12 -52l-91 -170q-10 -16 -26 -16q-13 0 -21.5 9t-8.5 21q0 6 3 14l40 75h-4q-49 0 -83.5 35t-34.5 84t34.5 84t83.5 35zM158 178q25 0 42.5 17.5t17.5 42.5t-17.5 42t-42.5 17q-24 0 -41.5 -17t-17.5 -42t17.5 -42.5t41.5 -17.5z
" />
    <glyph glyph-name="Euro" unicode="&#x20ac;" horiz-adv-x="664" 
d="M618 106q6 -14 6 -26q0 -41 -56.5 -60.5t-119.5 -19.5q-104 0 -189.5 56t-128.5 148h-32q-24 0 -41 17t-17 41q0 25 17.5 42t42.5 17q-2 18 -2 29q0 5 0.5 14.5t0.5 14.5q-25 0 -42 17t-17 41q0 25 17 42t41 17h32q42 91 128 147.5t190 56.5q63 0 119.5 -19.5t56.5 -60.5
q0 -12 -6 -26q-16 -35 -53 -35q-10 0 -23 5q-44 19 -94 19q-111 0 -182 -87h211q25 0 42 -17t17 -42q0 -24 -17 -41t-42 -17h-260q-2 -18 -2 -29t2 -29h260q25 0 42 -17t17 -42q0 -24 -17 -41t-42 -17h-211q71 -87 182 -87q50 0 94 19q12 5 23 5q39 0 53 -35z" />
    <glyph glyph-name="afii61352" unicode="&#x2116;" horiz-adv-x="1192" 
d="M904 175q-102 0 -175 77t-73 185q0 109 73 186t175 77q103 0 175.5 -77t72.5 -186q0 -108 -72.5 -185t-175.5 -77zM904 583q-54 0 -92.5 -42.5t-38.5 -103.5q0 -60 38.5 -102.5t92.5 -42.5q55 0 93.5 42.5t38.5 102.5q0 61 -38.5 103.5t-93.5 42.5zM963 58q0 -24 -17 -41
t-42 -17q-24 0 -41 17t-17 41q0 25 17 42t41 17q25 0 42 -17t17 -42zM507 0q-31 0 -48 25l-302 432v-399q0 -24 -17.5 -41t-41.5 -17t-41 17t-17 41v584q0 19 11 34t30 21q6 2 17 2q32 0 48 -24l302 -432v399q0 24 17 41t42 17q24 0 41 -17t17 -41v-584q0 -23 -17 -40.5
t-41 -17.5z" />
    <glyph glyph-name="trademark" unicode="&#x2122;" horiz-adv-x="833" 
 />
    <glyph glyph-name="Delta" unicode="&#x2206;" horiz-adv-x="576" 
d="M477 0h-379q-24 0 -41 17t-17 41q0 9 3 18l189 584q6 18 21.5 29t34.5 11t34 -11t21 -29l190 -584q3 -9 3 -18q0 -24 -17 -41t-42 -17zM288 453l-109 -336h218z" />
    <glyph glyph-name="product" unicode="&#x220f;" horiz-adv-x="635" 
d="M536 0q-24 0 -41 17t-17 41v525h-321v-525q0 -24 -17 -41t-42 -17q-24 0 -41 17t-17 41v584q0 24 17 41t42 17h437q24 0 41.5 -17t17.5 -41v-584q0 -24 -17 -41t-42 -17z" />
    <glyph glyph-name="summation" unicode="&#x2211;" 
d="M448 0h-350q-36 0 -52 32q-6 12 -6 26q0 18 11 34l185 258l-185 258q-11 16 -11 34q0 14 6 26q16 32 52 32h350q25 0 42 -17t17 -41q0 -25 -17 -42t-42 -17h-236l144 -199q10 -14 10 -34q0 -21 -10 -34l-144 -199h236q25 0 42 -17t17 -42q0 -24 -17 -41t-42 -17z" />
    <glyph glyph-name="minus" unicode="&#x2212;" horiz-adv-x="529" 
d="M430 411q25 0 42 -17t17 -41t-17 -41t-42 -17h-331q-24 0 -41.5 17t-17.5 41t17.5 41t41.5 17h331z" />
    <glyph glyph-name="lessequal" unicode="&#x2264;" horiz-adv-x="488" 
d="M276 163l-146 146q-17 16 -17 41t17 41l146 146q17 17 41 17q22 0 41 -17q17 -17 17 -41q0 -22 -17 -41l-104 -105l104 -104q17 -19 17 -42q0 -24 -17 -41t-41 -17t-41 17zM390 117q24 0 41 -17t17 -42q0 -24 -17 -41t-41 -17h-292q-24 0 -41 17t-17 41q0 25 17 42t41 17
h292z" />
    <glyph glyph-name="greaterequal" unicode="&#x2265;" horiz-adv-x="488" 
d="M358 309l-146 -146q-17 -17 -41 -17t-41 17t-17 41q0 23 17 42l104 104l-104 105q-17 19 -17 41q0 24 17 41q19 17 41 17q24 0 41 -17l146 -146q17 -16 17 -41t-17 -41zM98 117h292q24 0 41 -17t17 -42q0 -24 -17 -41t-41 -17h-292q-24 0 -41 17t-17 41q0 25 17 42t41 17
z" />
    <glyph glyph-name="lozenge" unicode="&#x25ca;" horiz-adv-x="664" 
d="M377 678l234 -292q13 -18 13 -36q0 -20 -13 -36l-234 -292q-17 -22 -45 -22q-29 0 -46 22l-233 292q-13 14 -13 36q0 20 13 36l233 292q17 22 46 22q28 0 45 -22zM332 152l158 198l-158 198l-159 -198z" />
    <glyph glyph-name="apple" unicode="&#xf8ff;" horiz-adv-x="854" 
d="M731 614l2 -3q81 -120 81 -248q0 -48 -13 -102q-11 -41 -31 -84t-49 -84t-71 -67t-87 -26q-72 0 -136 62q-66 -62 -137 -62q-84 0 -148.5 81.5t-88.5 179.5q-13 54 -13 103q0 131 81 247q0 1 2 3q8 11 23 25.5t54.5 36t82.5 24.5q50 0 89 -16q0 3 -0.5 10t-0.5 11
q0 99 60 146q15 12 35 12q30 0 46 -22q12 -15 12 -35q0 -28 -22 -46q-16 -13 -16 -59q0 -3 0.5 -8t0.5 -7q33 13 84 13q42 -2 82 -23.5t55 -36t23 -25.5zM563 116q52 0 93.5 78.5t41.5 167.5q0 94 -59 181q-26 39 -72 39q-52 0 -94 -44q-18 -18 -46 -18h-4q-25 0 -42 18
q-44 44 -91 44q-43 0 -76 -39q-59 -87 -59 -181q0 -93 42.5 -169.5t92.5 -76.5q22 0 46 20t38 40q18 26 48 26h10q31 0 48 -26q13 -20 37.5 -40t45.5 -20z" />
    <glyph glyph-name="fi" unicode="&#xfb01;" horiz-adv-x="546" 
d="M448 467q24 0 40 -17t18 -42v-350q0 -24 -17 -41t-41 -17t-41 17t-17 41v292h-146v-292q0 -24 -17 -41t-42 -17q-24 0 -41 17t-17 41v292h-29q-24 0 -41 17t-17 41q0 25 17 42t41 17h29v58q0 43 21 84q45 91 154 91q24 0 41 -17t17 -41q0 -25 -17 -42t-41 -17
q-36 0 -50 -26l-8 -32v-58h204zM448 525q-24 0 -41 17t-17 41q0 25 17 42t41 17t41 -17t17 -42q0 -24 -17 -41t-41 -17z" />
    <glyph glyph-name="fl" unicode="&#xfb02;" horiz-adv-x="546" 
d="M458 497q-4 -1 -13 -1q-21 0 -37 12t-21 32q-10 43 -56 43h-29q-36 0 -50 -26l-8 -32v-58h58q24 0 41.5 -17t17.5 -42q0 -24 -17.5 -41t-41.5 -17h-58v-292q0 -24 -17 -41t-41 -17q-25 0 -42 17t-17 41v292h-29q-24 0 -41 17t-17 41q0 25 17 42t41 17h29v58q0 43 21 84
q45 91 154 91h29q65 0 110 -35t60 -97q1 -4 1 -13q0 -20 -12 -36.5t-32 -21.5zM448 467q24 0 41 -17.5t17 -41.5v-350q0 -24 -17 -41t-41 -17t-41 17t-17 41v350q0 24 17 41.5t41 17.5z" />
    <glyph glyph-name="E.alt4" 
d="M448 288h-112l-124 -171h236q25 0 42 -17t17 -42q0 -24 -17 -41t-42 -17h-350q-36 0 -52 32q-6 12 -6 26q0 18 11 34l185 258l-185 258q-11 16 -11 34q0 14 6 26q16 32 52 32h350q25 0 42 -17t17 -41q0 -25 -17 -42t-42 -17h-236l129 -178h107q25 0 42 -17t17 -41
t-17 -41.5t-42 -17.5z" />
    <glyph glyph-name="f.alt3" 
d="M98 700h350q25 0 42 -17t17 -41q0 -25 -17.5 -42t-41.5 -17h-291v-525q0 -24 -17 -41t-42 -17q-24 0 -41 17t-17 41v584q0 24 17 41t41 17zM302 408q25 0 42 -17t17 -41t-17 -41t-42 -17q-24 0 -41 17t-17 41t17 41t41 17z" />
    <glyph glyph-name="N.001" horiz-adv-x="546" 
d="M448 700q24 0 41 -17t17 -41v-584q0 -20 -11.5 -35.5t-30.5 -20.5q-10 -2 -16 -2q-34 0 -50 28l-242 403v-373q0 -24 -17 -41t-41 -17t-41 17t-17 41v584q0 20 11.5 35.5t30.5 20.5q10 2 16 2q34 0 50 -28l242 -403v373q0 24 17 41t41 17z" />
    <glyph glyph-name="i.alt1" horiz-adv-x="196" 
d="M98 467q24 0 41 -17t17 -42v-350q0 -24 -17 -41t-41 -17t-41 17t-17 41v350q0 25 17 42t41 17z" />
    <glyph glyph-name="m.alt1" horiz-adv-x="664" 
d="M565 350h-175v-292q0 -24 -17 -41t-41 -17t-41 17t-17 41v292h-117v-292q0 -24 -17 -41t-41 -17q-25 0 -42 17t-17 41v350q0 25 17 42t42 17h466q25 0 42 -17t17 -42q0 -24 -17 -41t-42 -17zM565 292q25 0 42 -17t17 -42v-175q0 -24 -17 -41t-42 -17q-24 0 -41 17t-17 41
v175q0 25 17 42t41 17z" />
    <glyph glyph-name="z.alt3" horiz-adv-x="548" 
d="M348 583h-249q-24 0 -41 17t-17 42q0 24 17 41t41 17h350q33 0 50 -29.5t1 -57.5l-1 -1q-6 -11 -18 -30.5t-21.5 -36t-17.5 -32.5q-16 -30 -51 -30t-51 29t0 57q3 7 8 14zM274 408q25 0 42 -17t17 -41t-17 -41t-42 -17q-24 0 -41 17t-17 41t17 41t41 17zM201 117h248
q25 0 42 -17t17 -42q0 -24 -17 -41t-42 -17h-350q-14 0 -32 8.5t-18 21.5q-18 29 0 58q6 9 14.5 25.5t15 29t16 27.5t19 24.5t20.5 16.5t24.5 6.5t27.5 -7.5q21 -11 27.5 -34.5t-4.5 -44.5l-3.5 -7t-4.5 -7z" />
    <glyph glyph-name="K.001" horiz-adv-x="605" 
d="M549 681q16 -16 16 -39q0 -25 -19 -43l-329 -304h115q27 0 45 -21l146 -179q13 -16 13 -36q0 -27 -22 -46q-14 -13 -37 -13q-27 0 -45 21l-128 157h-147v-120q0 -24 -17.5 -41t-41.5 -17t-41 17t-17 41v584q0 24 17 41t41 17t41.5 -17t17.5 -41v-244l310 287q16 15 40 15
q26 0 42 -19z" />
    <glyph glyph-name="seven.alt1" horiz-adv-x="490" 
d="M441 672q16 -28 2 -56l-292 -584q-16 -32 -52 -32q-13 0 -26 6q-22 11 -29.5 34t3.5 44l75 149h-23q-24 0 -41 17t-17 42q0 24 17 41t41 17h81l117 233h-139v-58q0 -24 -17 -41t-42 -17q-24 0 -41 17t-17 41v117q0 24 17 41t41 17h292q33 0 50 -28z" />
    <glyph glyph-name="C.alt1" horiz-adv-x="488" 
d="M390 0q-145 0 -247.5 102.5t-102.5 247.5t102.5 247.5t247.5 102.5q24 0 41 -17t17 -41q0 -25 -17 -42t-41 -17q-97 0 -165 -68t-68 -165t68 -165t165 -68q24 0 41 -17t17 -42q0 -24 -17 -41t-41 -17z" />
    <glyph glyph-name="M.alt3" horiz-adv-x="663" 
d="M623 642v-584q0 -24 -17 -41t-41 -17t-41 17t-17 41v417l-130 -161q-17 -22 -45 -22q-29 0 -46 22l-129 161v-417q0 -24 -17 -41t-42 -17q-24 0 -41 17t-17 41v584q0 18 11 33.5t28 21.5q12 3 24 3h456q17 0 25 -3q18 -6 28.5 -21.5t10.5 -33.5zM332 443l112 140h-224z
" />
    <glyph glyph-name="one.alt1" horiz-adv-x="342" 
d="M186 700h58q24 0 41 -17t17 -41v-584q0 -24 -17 -41t-41 -17t-41 17t-17 41v175h-88q-24 0 -41 17t-17 42q0 24 17 41t41 17h88v58h-59q-24 0 -41 17t-17 42q0 24 17 41t41 17h59v58q-24 0 -41.5 17t-17.5 42q0 24 17.5 41t41.5 17z" />
    <glyph glyph-name="three.alt1" horiz-adv-x="546" 
d="M413 420q93 -70 93 -187q0 -96 -68 -164.5t-165 -68.5t-165 68.5t-68 164.5q0 97 68 165.5t165 68.5h5q23 2 38 19t15 39q0 24 -17 41t-41 17h-117q-24 0 -41 17t-17 42q0 24 17 41t41 17h117q72 0 123.5 -51.5t51.5 -123.5q0 -59 -35 -105zM273 117q48 0 82.5 34
t34.5 82q0 49 -34.5 83t-82.5 34t-82.5 -34t-34.5 -83q0 -48 34.5 -82t82.5 -34z" />
    <glyph glyph-name="nine.alt1" 
d="M273 700q97 0 165.5 -68.5t68.5 -164.5q0 -97 -68.5 -165.5t-165.5 -68.5q-5 0 -7 1l-113 -204q-17 -30 -52 -30q-15 0 -28 7q-30 17 -30 51q0 15 8 29l100 181q-51 31 -81 84t-30 115q0 96 68.5 164.5t164.5 68.5zM273 350q49 0 83 34t34 83q0 48 -34 82t-83 34
q-48 0 -82 -34t-34 -82q0 -49 34 -83t82 -34z" />
    <glyph glyph-name="six.alt1" 
d="M273 0q-96 0 -164.5 68.5t-68.5 164.5q0 97 68.5 165.5t164.5 68.5q5 0 8 -1l113 204q17 30 51 30q15 0 28 -7q31 -17 31 -51q0 -15 -8 -29l-101 -181q51 -31 81.5 -84t30.5 -115q0 -96 -68.5 -164.5t-165.5 -68.5zM273 350q-48 0 -82 -34t-34 -83q0 -48 34 -82t82 -34
q49 0 83 34t34 82q0 49 -34 83t-83 34z" />
    <glyph glyph-name="f_i_v_e.001" horiz-adv-x="1101" 
d="M47 610q16 32 51 32q16 0 27 -7l61 -31v38q0 24 17 41t41 17q25 0 42 -17t17 -41v-98l87 -45v143q0 24 17 41t42 17q24 0 41 -17t17 -41v-204l87 -45v249q0 24 17 41t42 17q24 0 41 -17t17 -41v-309l88 -45v354q0 24 17 41t41 17t41 -17t17 -41v-414l114 -59
q32 -17 32 -53q0 -14 -6 -26q-18 -32 -52 -32q-11 0 -27 7l-61 31v-38q0 -24 -17 -41t-41 -17t-41 17t-17 41v98l-88 46v-144q0 -24 -17 -41t-41 -17q-25 0 -42 17t-17 41v204l-87 45v-249q0 -24 -17 -41t-41 -17q-25 0 -42 17t-17 41v309l-87 45v-354q0 -24 -17 -41
t-42 -17q-24 0 -41 17t-17 41v415l-114 59q-32 16 -32 51q0 16 7 27z" />
    <glyph glyph-name="two.alt1" horiz-adv-x="494" 
d="M395 118q25 0 42 -17t17 -42t-17 -42t-42 -17h-296q-25 0 -42 17t-17 42q0 8 1 19t7 41t16.5 58.5t33.5 65.5t54 67q-49 25 -79.5 72.5t-32.5 105.5v5q0 11 2 31q11 76 69.5 126.5t135.5 50.5q85 0 146 -60.5t61 -146.5v-10q0 -20 -5 -41.5t-19 -52.5t-46.5 -62.5
t-80.5 -55.5q-102 -50 -134 -154h226zM167 532q-9 -18 -9 -38q0 -37 26 -63t63 -26t63 26t26 63v7q-3 34 -29 57.5t-60 23.5q-26 0 -47.5 -14t-32.5 -36z" />
    <glyph glyph-name="zero.alt1" 
d="M440 616q67 -81 67 -208v-116q0 -127 -64 -208q-67 -84 -170 -84q-102 0 -169 84q-64 81 -64 208v116q0 127 66 208q68 84 167 84t167 -84zM273 583q-34 0 -59.5 -22.5t-39.5 -59.5l216 -198v105q0 69 -31.5 122t-85.5 53zM273 117q48 0 78 39q4 5 10 15l-204 187v-66
q0 -87 38 -136q31 -39 78 -39z" />
    <glyph glyph-name="w.alt4" horiz-adv-x="896" 
d="M815 698q19 -6 30 -21.5t11 -34.5q0 -11 -2 -17l-175 -583q-5 -19 -20.5 -30.5t-35.5 -11.5q-19 0 -34.5 11.5t-21.5 30.5l-119 397l-119 -397q-5 -19 -20.5 -30.5t-35.5 -11.5q-19 0 -34.5 11.5t-21.5 30.5l-175 583q-2 5 -2 16q0 19 11.5 35t30.5 22q5 2 16 2
q19 0 34.5 -11.5t21.5 -30.5l119 -397l119 397q6 19 21.5 30.5t34.5 11.5q20 0 35.5 -11.5t20.5 -30.5l119 -397l119 397q6 19 22 30.5t35 11.5q11 0 16 -2z" />
    <glyph glyph-name="H.alt1.001" horiz-adv-x="573" 
d="M475 700q24 0 41 -17t17 -41v-584q0 -24 -17 -41t-41 -17t-41 17t-17 41v241l-92 -81q-17 -14 -39 -14q-11 0 -24 5q-34 16 -34 53v25l-58 -64l-13 -11v-154q0 -24 -17 -41t-42 -17q-24 0 -41 17t-17 41v584q0 24 17 41t41 17q25 0 42 -17t17 -41v-260l86 95q17 19 43 19
q12 0 21 -4q38 -15 38 -55v-46l64 55q3 4 8 6v190q0 24 17 41t41 17z" />
    <glyph glyph-name="A.alt1.001" horiz-adv-x="664" 
d="M536 289l84 -209q11 -28 -5.5 -54t-48.5 -26q-18 0 -32.5 10t-21.5 27l-56 138l-76 -108q-17 -25 -47 -25q-31 0 -48 25l-76 108l-56 -138q-9 -23 -31 -32.5t-44 -0.5q-23 9 -32.5 31.5t-0.5 44.5l84 209l-19 28q-23 33 0.5 67t64.5 22l103 257q15 37 55 37
q17 0 32 -10.5t22 -26.5l103 -257q42 12 64.5 -22t0.5 -67zM261 305l72 -103l72 103l-72 180z" />
    <glyph glyph-name="G.alt1.001" horiz-adv-x="751" 
d="M581 292l122 -204q8 -14 8 -29q0 -23 -16.5 -41t-41.5 -18q-35 0 -51 28l-18 31q-88 -59 -194 -59q-139 0 -244.5 102t-105.5 248q0 147 104.5 248.5t245.5 101.5q146 0 247 -102q17 -17 17 -42q0 -24 -17.5 -41t-40.5 -17q-24 0 -41 17q-68 68 -165 68q-95 0 -164 -69.5
t-69 -163.5q0 -95 69 -164t164 -69q74 0 134 42l-97 161q-8 14 -8 30q0 24 17 41t41 17h175q25 0 42 -17t17 -41t-17 -41t-42 -17h-71z" />
    <glyph glyph-name="Q.alt1" horiz-adv-x="692" 
d="M652 350q0 -127 -70.5 -224t-177.5 -120v-61q0 -24 -17 -41t-41 -17q-25 0 -42 17t-17 41v62q-107 23 -177 119.5t-70 223.5q0 145 89.5 247.5t216.5 102.5t216.5 -102.5t89.5 -247.5zM404 179v-51q58 23 95 84t37 138q0 97 -55.5 165t-134.5 68q-78 0 -133.5 -68
t-55.5 -165q0 -77 36 -138t94 -84v51q0 24 17 41t42 17q24 0 41 -17t17 -41z" />
    <glyph glyph-name="R.alt1" horiz-adv-x="518" 
d="M315 239l145 -144q17 -17 17 -42t-16 -41q-19 -17 -42 -17q-22 0 -41 17l-221 216v-175q0 -24 -17 -41t-41 -17q-25 0 -42 17t-17 41v584q0 24 17 41t42 17h145q57 0 114 -28q120 -61 120 -205q0 -145 -120 -206q-24 -11 -43 -17zM157 578v-233h87q32 0 64 17
q53 28 53 100q0 71 -53 99q-32 17 -64 17h-87z" />
    <glyph glyph-name="V.alt1" horiz-adv-x="663" 
d="M332 0q-40 0 -55 37l-233 583q-4 9 -4 21q0 18 10 33t27 22q9 4 21 4q18 0 32.5 -10t21.5 -27l180 -448l147 368h-31q-24 0 -41 17t-17 41q0 25 17 42t41 17h117q30 0 48 -26q10 -14 10 -32q0 -13 -4 -22l-233 -583q-7 -16 -22 -26.5t-32 -10.5z" />
    <glyph glyph-name="x.alt7" 
d="M98 0q-17 0 -29 8q-29 17 -29 50q0 15 8 29l116 204q17 30 51 30h117q35 0 50 -30l117 -204q8 -14 8 -29q0 -33 -30 -50q-14 -8 -29 -8q-33 0 -50 29l-100 175h-49l-100 -175q-17 -29 -51 -29zM312 408h-107q-32 0 -50 28l-106 175q-9 15 -9 31q0 33 28 49q15 9 31 9
q32 0 49 -28l90 -147h41l90 147q17 28 50 28q16 0 31 -9q28 -16 28 -49q0 -16 -9 -31l-107 -175q-18 -28 -50 -28z" />
    <glyph glyph-name="t.alt1" horiz-adv-x="310" 
d="M212 467q24 0 41 -17t17 -42q0 -24 -17 -41t-41 -17h-55v-292q0 -24 -17.5 -41t-41.5 -17t-41 17t-17 41v584q0 24 17 41t41 17t41.5 -17t17.5 -41v-175h55z" />
    <glyph glyph-name="ampersand.alt1" horiz-adv-x="654" 
d="M608 84q6 -12 6 -25q0 -36 -33 -53q-12 -6 -26 -6q-36 0 -52 32l-36 72q-31 -48 -82.5 -76t-111.5 -28q-96 0 -164.5 68.5t-68.5 164.5q0 97 68.5 165.5t164.5 68.5q9 0 13 -1l-74 150q-6 12 -6 26q0 16 8 30q17 28 50 28h204q24 0 41 -17t17 -41q0 -25 -17 -42t-41 -17
h-110l113 -226q14 -22 20 -40zM390 233q0 20 -6 38l-14 28q-35 51 -97 51q-48 0 -82 -34t-34 -83q0 -48 34 -82t82 -34q49 0 83 34t34 82z" />
    <glyph glyph-name="w.alt7.001" horiz-adv-x="945" 
d="M76 695q12 5 23 5q38 0 53 -36l189 -454l68 162q0 1 -103 247q-4 9 -4 22q0 39 36 55q9 4 22 4q40 0 54 -36l189 -454l190 454q15 36 53 36q10 0 23 -5q36 -14 36 -54q0 -13 -4 -22l-244 -583q-15 -36 -54 -36q-38 0 -53 36l-78 185l-77 -185q-15 -36 -54 -36
q-38 0 -53 36l-244 583q-4 9 -4 22q0 40 36 54z" />
    <glyph glyph-name="e.alt7" 
d="M181 117h267q25 0 42 -17t17 -42q0 -24 -17 -41t-42 -17h-350q-24 0 -41 17t-17 41v584q0 24 17 41t41 17h350q25 0 42 -17t17 -41q0 -25 -17.5 -42t-41.5 -17h-267l192 -192q17 -19 17 -41q0 -24 -17 -41zM157 257l92 93l-92 92v-185z" />
    <glyph glyph-name="m.alt4" horiz-adv-x="722" 
d="M642 697q18 -6 29 -21t11 -34v-584q0 -24 -17.5 -41t-41.5 -17t-41 17t-17 41v409l-146 -195v-214q0 -24 -17 -41t-41 -17t-41.5 17t-17.5 41v214l-145 195v-409q0 -24 -17 -41t-42 -17q-24 0 -41 17t-17 41v584q0 19 11 34t29 21q9 3 19 3q29 0 46 -23l216 -288l216 288
q17 23 46 23q10 0 19 -3z" />
    <glyph glyph-name="seven.001" horiz-adv-x="488" 
d="M440 672q8 -14 8 -30q0 -14 -6 -26l-292 -584q-16 -32 -52 -32q-25 0 -41.5 17.5t-16.5 41.5q0 13 6 26l250 498h-139v-58q0 -24 -17.5 -41t-41.5 -17t-41 17t-17 41v117q0 24 17 41t41 17h292q33 0 50 -28z" />
    <glyph glyph-name="e.alt3" 
d="M448 0h-350q-24 0 -41 17t-17 41v584q0 24 17 41t41 17h350q25 0 42 -17t17 -41q0 -25 -17.5 -42t-41.5 -17h-291v-466h291q25 0 42 -17t17 -42q0 -24 -17 -41t-42 -17zM361 350q0 -24 -17 -41t-42 -17q-24 0 -41 17t-17 41t17 41t41 17q25 0 42 -17t17 -41z" />
    <glyph glyph-name="O.002" horiz-adv-x="751" 
d="M376 700q24 0 41 -17t17 -41q0 -25 -17 -42t-41 -17q-91 0 -155 -68t-64 -165t64 -165t155 -68q90 0 154 68t64 165q0 24 17.5 41t41.5 17t41 -17t17 -41q0 -145 -98 -247.5t-237 -102.5t-237.5 102.5t-98.5 247.5t98.5 247.5t237.5 102.5z" />
    <glyph glyph-name="zero.001" horiz-adv-x="725" 
d="M618 616q67 -81 67 -208v-116q0 -127 -64 -208q-67 -84 -169 -84q-47 0 -90 20q-42 -20 -89 -20q-102 0 -169 84q-64 81 -64 208v116q0 127 66 208q68 84 167 84q47 0 89 -21q42 21 90 21q98 0 166 -84zM335 408v-116q0 -70 27 -119q28 48 28 119v116q0 68 -28 115
q-27 -48 -27 -115zM195 156q27 -33 65 -38q-42 72 -42 174v116q0 100 43 175q-48 -6 -76 -58t-28 -117v-116q0 -87 38 -136zM568 292v116q0 65 -28 117t-77 58q44 -74 44 -175v-116q0 -99 -42 -174q38 5 64 38q39 50 39 136z" />
    <glyph glyph-name="Z.002" horiz-adv-x="486" 
d="M388 0l-291 3q-31 0 -49 28q-8 14 -8 30q0 14 6 26l248 497h-138v-58q0 -24 -17 -41t-41 -17t-41 17t-17 41v116q0 24 17 41t41 17h290q33 0 50 -28q8 -14 8 -30q0 -14 -6 -26l-249 -498h139v56q0 24 17 41t41 17t41 -17t17 -41v-116q0 -24 -17 -41t-41 -17z" />
    <glyph glyph-name="A.alt3.002" horiz-adv-x="604" 
d="M98 700q24 0 41 -17t17 -41v-399l302 432q19 25 48 25q17 0 33 -11q25 -16 25 -47q0 -20 -10 -34l-409 -583q-17 -25 -47 -25q-9 0 -18 3q-18 5 -29 20.5t-11 34.5v584q0 24 17 41t41 17z" />
    <glyph glyph-name="U.001" horiz-adv-x="575" 
d="M288 0q-75 0 -131.5 35t-87.5 101q-29 63 -29 127v379q0 24 17 41t41 17t41 -17t17 -41v-379q0 -11 4.5 -30t16 -47.5t41 -48.5t70.5 -20q40 0 68.5 19t40.5 46.5t17 47.5t5 33v379q0 24 17 41t41 17t41 -17t17 -41v-379q0 -66 -28 -127q-31 -66 -87.5 -101t-131.5 -35z
" />
    <glyph glyph-name="D.alt1.001" horiz-adv-x="605" 
d="M268 0h-170q-24 0 -41 17t-17 41v292q0 24 17 41t41 17h346q-15 104 -87 147q-46 28 -89 28h-170q-24 0 -41 17t-17 42q0 24 17 41t41 17h170q76 0 150 -45q147 -90 147 -305t-147 -305q-74 -45 -150 -45zM157 292v-175h111q47 0 93 30q68 44 83 145h-287z" />
    <glyph glyph-name="notequal.001" horiz-adv-x="488" 
d="M276 163l-146 146q-17 16 -17 41t17 41l146 146q17 17 41 17q22 0 41 -17q17 -17 17 -41q0 -22 -17 -41l-104 -105l104 -104q17 -19 17 -42q0 -24 -17 -41t-41 -17t-41 17zM390 117q24 0 41 -17t17 -42q0 -24 -17 -41t-41 -17h-292q-24 0 -41 17t-17 41q0 25 17 42t41 17
h292z" />
    <glyph glyph-name="w.alt1" horiz-adv-x="693" 
d="M619 461q34 -16 34 -53q0 -13 -6 -25l-165 -350q-16 -33 -53 -33t-53 33l-30 64l-30 -64q-15 -33 -52 -33q-38 0 -53 33l-165 350q-6 12 -6 26q0 36 33 52q12 6 25 6q37 0 53 -34l113 -238l18 38l-71 150q-6 12 -6 25q0 37 34 53q12 6 25 6q36 0 52 -34l30 -63l30 63
q16 34 53 34q13 0 25 -6q34 -16 34 -53q0 -13 -6 -25l-71 -150l18 -38l112 238q16 34 53 34q13 0 25 -6z" />
    <glyph glyph-name="e.001" 
d="M448 117q25 0 42 -17t17 -42q0 -24 -17 -41t-42 -17h-350q-24 0 -41 17t-17 41v584q0 24 17 41t41 17h146q24 0 41 -17t17 -41q0 -25 -17 -42t-41 -17h-87v-116h175q24 0 41 -17.5t17 -41.5t-17 -41t-41 -17h-175v-58h233q24 0 41 -17.5t17 -41.5t-17 -41t-41 -17h-233
v-58h291z" />
    <glyph glyph-name="g.001" horiz-adv-x="692" 
d="M594 408q24 0 41 -17t17 -41v-292q0 -24 -17 -41t-41 -17t-41 17t-17 41v234h-372q20 -77 82.5 -126t143.5 -49q24 0 41 -17t17 -42q0 -24 -17 -41t-41 -17q-145 0 -247.5 102.5t-102.5 247.5v-350v350q0 145 102.5 247.5t247.5 102.5h204q24 0 41 -17t17 -41
q0 -25 -17 -42t-41 -17h-204q-81 0 -143.5 -49t-82.5 -126h430z" />
    <glyph glyph-name="J.alt1" horiz-adv-x="430" 
d="M98 0q-24 0 -41 17t-17 41q0 25 17 42t41 17q56 0 76 40q5 10 8 22t4 19v6v438q0 24 17 41t41 17h88q24 0 41 -17t17 -42q0 -24 -17 -41t-41 -17h-29v-379q0 -49 -25 -99q-52 -105 -180 -105z" />
    <glyph glyph-name="K.alt1.001" horiz-adv-x="605" 
d="M395 292l157 -197q15 -19 12.5 -43t-21.5 -39q-16 -13 -36 -13q-27 0 -46 22l-216 270h-88v-234q0 -24 -17.5 -41t-41.5 -17t-41 17t-17 41v584q0 24 17 41t41 17t41.5 -17t17.5 -41v-234h88l216 270q15 19 39 21.5t43 -12.5t21.5 -39t-12.5 -43l-157 -197h112
q24 0 41 -17t17 -41t-17 -41t-41 -17h-112z" />
    <glyph glyph-name="m.001" horiz-adv-x="722" 
d="M654 691q28 -16 28 -49v-584q0 -24 -17 -41t-42 -17q-24 0 -41 17t-17 41v285l-204 102l-204 -102v-285q0 -24 -17 -41t-42 -17q-24 0 -41 17t-17 41v584q0 33 28 49q14 9 31 9q13 0 25 -6l237 -118l236 118q12 6 26 6q17 0 31 -9zM157 474l73 36l-73 37v-73zM491 510
l74 -36v73z" />
    <glyph glyph-name="N.alt1" horiz-adv-x="634" 
d="M536 700q24 0 41 -17t17 -41v-584q0 -20 -12 -35.5t-31 -20.5q-10 -2 -15 -2q-34 0 -50 28l-242 403v-373q0 -24 -17 -41t-41 -17t-41.5 17t-17.5 41v525h-29q-24 0 -41 17t-17 42q0 24 17 41t41 17h85q35 2 53 -28l241 -403v373q0 24 17.5 41t41.5 17z" />
    <glyph glyph-name="o.001" horiz-adv-x="780" 
d="M390 0q-144 0 -248 102q-102 104 -102 248q0 145 102 247q103 103 248 103q146 0 247 -103q103 -101 103 -247q0 -145 -103 -248q-102 -102 -247 -102zM390 583q-97 0 -165 -68t-68 -165t68 -165t165 -68t165 68t68 165t-68 165t-165 68zM369 189q-25 0 -41 17l-82 82
q-17 17 -17 41.5t17 41.5q16 17 40.5 17t41.5 -17l83 -83q17 -17 17 -41.5t-17 -40.5q-17 -17 -42 -17zM493 312q-24 0 -41 17l-83 83q-17 17 -17 41.5t17 40.5q17 17 41.5 17t41.5 -17l82 -82q17 -17 17 -41.5t-17 -41.5t-41 -17z" />
    <glyph glyph-name="P.alt1" horiz-adv-x="517" 
d="M98 0q-24 0 -41 17t-17 41v234q0 24 17 41t41 17h145q72 0 101 53q17 32 17 64q0 73 -56 101q-14 7 -29.5 10.5t-23.5 3.5l-9 1h-86v-58q0 -24 -17 -41t-42 -17q-24 0 -41 17t-17 41v117q0 24 17 41t41 17h145q57 0 114 -28q120 -60 120 -205q0 -60 -28 -114
q-61 -120 -206 -120h-86v-175q0 -24 -17 -41t-42 -17z" />
    <glyph glyph-name="r.001" horiz-adv-x="488" 
d="M299 428l145 -347q4 -9 4 -22q0 -40 -36 -54q-12 -5 -22 -5q-39 0 -54 36l-119 285l-60 -78v-185q0 -24 -17 -41t-42 -17q-24 0 -41 17t-17 41v584q0 24 17 41t41 17h292q36 0 52 -33q6 -12 6 -26q0 -20 -12 -35zM157 583v-149l114 149h-114z" />
    <glyph glyph-name="S.alt1.001" horiz-adv-x="518" 
d="M244 0q-64 0 -117 32.5t-81 87.5q-6 12 -6 26q0 18 9 31l110 177q-94 58 -94 165q0 80 63 132q60 49 145 49q64 0 122 -40q24 -16 24 -47q0 -20 -11 -34q-18 -24 -48 -24q-19 0 -33 10q-26 18 -54 18q-39 0 -65.5 -18t-26.5 -46q0 -35 21 -53t59 -31q22 -6 47 -16
t66.5 -33t70.5 -62t32 -86q0 -3 0.5 -8.5t0.5 -8.5q0 -84 -59 -149q-67 -72 -175 -72zM269 309l-101 -162q30 -30 76 -30q57 0 90 35q27 30 27 70v7q-4 43 -92 80z" />
    <glyph glyph-name="t.001" horiz-adv-x="605" 
d="M535 576q30 -17 30 -51q0 -15 -8 -29q-17 -29 -51 -29q-15 0 -28 7l-117 67v-483q0 -24 -17 -41t-42 -17q-24 0 -41 17t-17 41v483l-117 -67q-14 -8 -29 -8q-33 0 -50 30q-8 14 -8 30q0 33 29 50l204 116q14 8 29 8t29 -8z" />
    <glyph glyph-name="x.001" horiz-adv-x="663" 
d="M511 350l108 -270q4 -9 4 -22q0 -40 -36 -54q-9 -4 -22 -4q-18 0 -32.5 10t-21.5 27l-63 156l-62 -156q-7 -16 -22 -26.5t-32 -10.5q-40 0 -55 37l-62 156l-63 -156q-7 -17 -21.5 -27t-32.5 -10q-12 0 -21 4q-17 7 -27 22t-10 33q0 12 4 21l108 270l-108 270q-4 9 -4 21
q0 18 10 33t27 22q9 4 21 4q18 0 32.5 -10t21.5 -27l63 -156l62 156q15 37 55 37q17 0 32 -10.5t22 -26.5l62 -156l63 156q7 17 22 27t33 10q12 0 21 -4q36 -14 36 -54q0 -13 -4 -22zM332 215l53 135l-53 135l-54 -135z" />
    <glyph glyph-name="Z.alt1.001" 
d="M448 117q25 0 42 -17t17 -42q0 -24 -17 -41t-42 -17h-350q-34 0 -50 30q-8 12 -8 29t8 29l122 204h-72q-24 0 -41 17t-17 41t17 41t41 17h142l105 175h-247q-24 0 -41 17t-17 42q0 24 17 41t41 17h350q35 0 51 -30q7 -13 7 -28q0 -18 -8 -30l-122 -204h72q25 0 42 -17
t17 -41t-17 -41t-42 -17h-142l-105 -175h247z" />
    <glyph glyph-name="k.001" horiz-adv-x="576" 
d="M334 386l192 -296q10 -14 10 -32q0 -32 -27 -49q-15 -9 -31 -9q-33 0 -50 27l-179 275l-92 -93v-151q0 -24 -17.5 -41t-41.5 -17t-41 17t-17 41v584q0 19 11.5 34.5t30.5 21.5q10 2 16 2q32 0 49 -27l122 -187l167 168q17 17 41 17q23 0 42 -17q16 -17 16 -42t-16 -41z
M157 374l27 28l-27 43v-71z" />
    <glyph glyph-name="a.alt1" horiz-adv-x="488" 
d="M390 467q24 0 41 -17t17 -42v-350q0 -24 -17 -41t-41 -17q-37 0 -52 32q-51 -32 -112 -32q-77 0 -131.5 47t-54.5 114q0 66 54.5 113t131.5 47q57 0 105 -29v58h-175q-24 0 -41 17t-17 41q0 25 17 42t41 17h234zM226 117q26 0 47.5 12.5t21.5 31.5q0 18 -22 30.5
t-47 12.5q-26 0 -48 -12.5t-22 -30.5q0 -19 22 -31.5t48 -12.5z" />
    <glyph glyph-name="M.alt1" horiz-adv-x="780" 
d="M710 692q30 -16 30 -50v-584q0 -24 -17 -41t-41 -17q-25 0 -42 17t-17 41v481l-109 -66q51 -51 51 -123q0 -73 -51.5 -124t-123.5 -51q-73 0 -124 51t-51 124q0 72 51 123l-109 66v-481q0 -24 -17 -41t-42 -17q-24 0 -41 17t-17 41v584q0 34 30 50q14 8 28 8q16 0 30 -8
l262 -157l262 157q14 8 30 8q14 0 28 -8zM390 292q24 0 41 17t17 41t-17 41t-41 17t-41 -17t-17 -41t17 -41t41 -17z" />
    <glyph glyph-name="E.alt1.001" 
d="M181 117h267q25 0 42 -17t17 -42q0 -24 -17 -41t-42 -17h-350q-24 0 -41 17t-17 41v584q0 24 17 41t41 17h350q25 0 42 -17t17 -41q0 -25 -17.5 -42t-41.5 -17h-267l192 -192q17 -19 17 -41q0 -24 -17 -41zM157 257l92 93l-92 92v-185z" />
    <glyph glyph-name="F.alt1.001" 
d="M98 700h350q25 0 42 -17t17 -41q0 -25 -17 -42t-42 -17h-291v-68q30 10 58 10q72 0 123.5 -51.5t51.5 -123.5q0 -73 -51.5 -124t-123.5 -51q-28 0 -58 10v-127q0 -24 -17 -41t-42 -17q-24 0 -41 17t-17 41v584q0 24 17 41t41 17zM215 408q-24 0 -41 -17t-17 -41t17 -41
t41 -17t41 17t17 41t-17 41t-41 17z" />
    <glyph glyph-name="g.alt1" horiz-adv-x="517" 
d="M259 0q-54 0 -102 27v-56h145q25 0 42 -17t17 -41v-88q0 -24 -17 -41t-42 -17q-24 0 -41 17t-17 41v29h-146q-24 0 -41 17.5t-17 41.5v291q0 7 1 10q-1 6 -1 20q0 96 64 164.5t155 68.5q90 0 154 -68.5t64 -164.5q0 -97 -64 -165.5t-154 -68.5zM259 350q-43 0 -72.5 -34
t-29.5 -82q0 -49 29.5 -83t72.5 -34q42 0 72 34t30 83q0 48 -30 82t-72 34z" />
    <glyph glyph-name="k.alt1" horiz-adv-x="459" 
d="M406 96q13 -16 13 -37q0 -29 -21 -45q-15 -14 -37 -14q-27 0 -45 21l-118 142l-41 -41v-64q0 -24 -17.5 -41t-41.5 -17t-41 17t-17 41v584q0 24 17 41t41 17t41.5 -17t17.5 -41v-355l163 163q16 16 41 16q24 0 41 -16q17 -19 17 -42q0 -24 -17 -41l-121 -121z" />
    <glyph glyph-name="T.alt1.001" 
d="M98 700h350q25 0 42 -17t17 -41q0 -25 -17 -42t-42 -17h-116v-68q52 -18 84 -63.5t32 -101.5t-32 -101.5t-84 -63.5v-127q0 -24 -17 -41t-42 -17q-24 0 -41 17t-17 41v127q-52 18 -84.5 63.5t-32.5 101.5t32.5 101.5t84.5 63.5v68h-117q-24 0 -41 17t-17 42q0 24 17 41
t41 17zM273 292q24 0 41.5 17t17.5 41t-17.5 41t-41.5 17t-41 -17t-17 -41t17 -41t41 -17z" />
    <glyph glyph-name="I.alt3" horiz-adv-x="430" 
d="M332 525q24 0 41 -17t17 -41q0 -25 -17 -42t-41 -17h-59v-350q0 -24 -17 -41t-41 -17h-117q-24 0 -41 17t-17 41q0 25 17 42t41 17h59v87h-59q-24 0 -41 17t-17 41q0 25 17 42t41 17h59v321q0 24 17 41t41 17h117q24 0 41 -17t17 -41q0 -25 -17 -42t-41 -17h-59v-58h59z
" />
    <glyph glyph-name="I.alt1.001" horiz-adv-x="430" 
d="M390 350q0 -56 -32.5 -101.5t-84.5 -63.5v-127q0 -24 -17 -41t-41 -17t-41 17t-17 41v127q-52 18 -84.5 63.5t-32.5 101.5t32.5 101.5t84.5 63.5v127q0 24 17 41t41 17t41 -17t17 -41v-127q52 -18 84.5 -63.5t32.5 -101.5zM215 292q24 0 41 17t17 41t-17 41t-41 17
t-41 -17t-17 -41t17 -41t41 -17z" />
    <glyph glyph-name="r.alt1" horiz-adv-x="320" 
d="M222 467q24 0 41 -17t17 -42q0 -24 -17 -41t-41 -17h-65v-292q0 -24 -17 -41t-42 -17q-24 0 -41 17t-17 41v350q0 25 17 42t41 17h124z" />
    <glyph glyph-name="q.alt1.001" horiz-adv-x="692" 
d="M652 350q0 -127 -70.5 -224t-177.5 -120v-61q0 -24 -17 -41t-41 -17q-25 0 -42 17t-17 41v62q-107 23 -177 119.5t-70 223.5q0 145 89.5 247.5t216.5 102.5t216.5 -102.5t89.5 -247.5zM404 179v-51q58 23 95 84t37 138q0 97 -55.5 165t-134.5 68q-78 0 -133.5 -68
t-55.5 -165q0 -77 36 -138t94 -84v51q0 24 17 41t42 17q24 0 41 -17t17 -41z" />
    <glyph glyph-name="W.alt1.001" horiz-adv-x="780" 
d="M682 700q24 0 41 -17t17 -41v-584q0 -34 -30 -50q-14 -8 -28 -8q-16 0 -30 8l-262 157l-262 -157q-29 -18 -58 0q-30 16 -30 50v584q0 24 17 41t41 17t41.5 -17t17.5 -41v-481l109 66q-51 49 -51 123q0 72 51 123.5t124 51.5q72 0 123.5 -51.5t51.5 -123.5
q0 -74 -51 -123l109 -66v481q0 24 17 41t42 17zM390 408q-24 0 -41 -17t-17 -41t17 -41t41 -17t41 17t17 41t-17 41t-41 17z" />
    <glyph glyph-name="L.alt1.001" 
d="M157 117h291q25 0 42 -17t17 -42q0 -24 -17 -41t-42 -17h-350q-24 0 -41 17t-17 41v584q0 24 17 41t41 17q25 0 42 -17t17 -41v-127q30 10 58 10q72 0 123.5 -51.5t51.5 -123.5q0 -73 -51.5 -124t-123.5 -51q-28 0 -58 10v-68zM215 408q-24 0 -41 -17t-17 -41t17 -41
t41 -17t41 17t17 41t-17 41t-41 17z" />
    <glyph glyph-name="X.alt1.001" horiz-adv-x="644" 
d="M468 253l124 -159q12 -15 12 -35q0 -29 -23 -47q-15 -12 -35 -12q-29 0 -47 23l-124 160q-27 -8 -53 -8t-53 8l-125 -160q-17 -23 -46 -23q-20 0 -36 12q-22 18 -22 47q0 20 12 35l124 159q-29 45 -29 97t29 97l-124 159q-12 15 -12 35q0 29 22 47q17 12 35 12
q29 0 47 -23l125 -160q27 8 53 8t53 -8l124 160q18 23 47 23q20 0 35 -12q23 -18 23 -47q0 -20 -12 -35l-124 -159q29 -45 29 -97t-29 -97zM264 350q0 -24 17 -41t41 -17t41 17t17 41t-17 41t-41 17t-41 -17t-17 -41z" />
    <glyph glyph-name="b.001" 
d="M448 700q25 0 42 -17t17 -41v-584q0 -24 -17 -41t-42 -17q-24 0 -41 17t-17 41v234h-233v-234q0 -24 -17 -41t-42 -17q-24 0 -41 17t-17 41v584q0 24 17 41t41 17h350zM157 408h233v175h-233v-175z" />
    <glyph glyph-name="c.001" horiz-adv-x="984" 
d="M886 0h-788q-24 0 -41 17t-17 41q0 25 17 42t41 17h788q24 0 41 -17t17 -42q0 -24 -17 -41t-41 -17zM296 187q-106 0 -181 75.5t-75 181.5t75 181t181 75q54 0 103 -21q22 -10 31 -32.5t-1 -44.5t-32.5 -31t-44.5 1q-28 11 -56 11q-58 0 -98.5 -40.5t-40.5 -98.5
t40.5 -99t98.5 -41q29 0 56 12q23 10 45 1t32 -31q10 -23 1 -45t-31 -32q-52 -22 -103 -22zM709 177q-96 0 -164 76.5t-68 184.5q0 109 68 185.5t164 76.5q95 0 163 -76.5t68 -185.5q0 -108 -68 -184.5t-163 -76.5zM709 583q-48 0 -81.5 -42.5t-33.5 -102.5t33.5 -102.5
t81.5 -42.5q47 0 80.5 42.5t33.5 102.5t-33.5 102.5t-80.5 42.5z" />
    <glyph glyph-name="u.alt3" horiz-adv-x="575" 
d="M287 292q-24 0 -41 17t-17 41t17 41t41 17q25 0 42 -17t17 -41t-17 -41t-42 -17zM288 0q-75 0 -131.5 35t-87.5 101q-29 63 -29 127v379q0 24 17 41t41 17t41 -17t17 -41v-379q0 -11 4.5 -30t16 -47.5t41 -48.5t70.5 -20q40 0 68.5 19t40.5 46.5t17 47.5t5 33v379
q0 24 17 41t41 17t41 -17t17 -41v-379q0 -66 -28 -127q-31 -66 -87.5 -101t-131.5 -35z" />
    <glyph glyph-name="n.alt1.001" horiz-adv-x="488" 
d="M390 467q24 0 41 -17t17 -42v-350q0 -24 -17 -41t-41 -17t-41 17t-17 41v125l-175 116v-241q0 -24 -17.5 -41t-41.5 -17t-41 17t-17 41v350q0 36 31 52q13 7 28 7q18 0 32 -10l201 -134v85q0 25 17 42t41 17z" />
    <glyph glyph-name="m.alt3" horiz-adv-x="663" 
d="M623 642v-584q0 -24 -17 -41t-41 -17t-41 17t-17 41v417l-130 -161q-17 -22 -45 -22q-29 0 -46 22l-129 161v-417q0 -24 -17 -41t-42 -17q-24 0 -41 17t-17 41v584q0 18 11 33.5t28 21.5q12 3 24 3h456q17 0 25 -3q18 -6 28.5 -21.5t10.5 -33.5zM332 443l112 140h-224z
" />
    <glyph glyph-name="U.alt3" horiz-adv-x="575" 
d="M287 292q-24 0 -41 17t-17 41t17 41t41 17q25 0 42 -17t17 -41t-17 -41t-42 -17zM288 0q-75 0 -131.5 35t-87.5 101q-29 63 -29 127v379q0 24 17 41t41 17t41 -17t17 -41v-379q0 -11 4.5 -30t16 -47.5t41 -48.5t70.5 -20q40 0 68.5 19t40.5 46.5t17 47.5t5 33v379
q0 24 17 41t41 17t41 -17t17 -41v-379q0 -66 -28 -127q-31 -66 -87.5 -101t-131.5 -35z" />
    <glyph glyph-name="W.alt4" horiz-adv-x="896" 
d="M815 698q19 -6 30 -21.5t11 -34.5q0 -11 -2 -17l-175 -583q-5 -19 -20.5 -30.5t-35.5 -11.5q-19 0 -34.5 11.5t-21.5 30.5l-119 397l-119 -397q-5 -19 -20.5 -30.5t-35.5 -11.5q-19 0 -34.5 11.5t-21.5 30.5l-175 583q-2 5 -2 16q0 19 11.5 35t30.5 22q5 2 16 2
q19 0 34.5 -11.5t21.5 -30.5l119 -397l119 397q6 19 21.5 30.5t34.5 11.5q20 0 35.5 -11.5t20.5 -30.5l119 -397l119 397q6 19 22 30.5t35 11.5q11 0 16 -2z" />
    <glyph glyph-name="Z.alt3" horiz-adv-x="548" 
d="M348 583h-249q-24 0 -41 17t-17 42q0 24 17 41t41 17h350q33 0 50 -29.5t1 -57.5l-1 -1q-6 -11 -18 -30.5t-21.5 -36t-17.5 -32.5q-16 -30 -51 -30t-51 29t0 57q3 7 8 14zM274 408q25 0 42 -17t17 -41t-17 -41t-42 -17q-24 0 -41 17t-17 41t17 41t41 17zM201 117h248
q25 0 42 -17t17 -42q0 -24 -17 -41t-42 -17h-350q-14 0 -32 8.5t-18 21.5q-18 29 0 58q6 9 14.5 25.5t15 29t16 27.5t19 24.5t20.5 16.5t24.5 6.5t27.5 -7.5q21 -11 27.5 -34.5t-4.5 -44.5l-3.5 -7t-4.5 -7z" />
    <glyph glyph-name="E.alt3" 
d="M448 0h-350q-24 0 -41 17t-17 41v584q0 24 17 41t41 17h350q25 0 42 -17t17 -41q0 -25 -17.5 -42t-41.5 -17h-291v-466h291q25 0 42 -17t17 -42q0 -24 -17 -41t-42 -17zM361 350q0 -24 -17 -41t-42 -17q-24 0 -41 17t-17 41t17 41t41 17q25 0 42 -17t17 -41z" />
    <glyph glyph-name="M.alt4" horiz-adv-x="722" 
d="M642 697q18 -6 29 -21t11 -34v-584q0 -24 -17.5 -41t-41.5 -17t-41 17t-17 41v409l-146 -195v-214q0 -24 -17 -41t-41 -17t-41.5 17t-17.5 41v214l-145 195v-409q0 -24 -17 -41t-42 -17q-24 0 -41 17t-17 41v584q0 19 11 34t29 21q9 3 19 3q29 0 46 -23l216 -288l216 288
q17 23 46 23q10 0 19 -3z" />
    <glyph glyph-name="i.alt3.001" horiz-adv-x="430" 
d="M98 525h59v58h-59q-24 0 -41 17t-17 42q0 24 17 41t41 17h117q24 0 41 -17t17 -41v-321h59q24 0 41 -17t17 -42q0 -24 -17 -41t-41 -17h-59v-87h59q24 0 41 -17t17 -42q0 -24 -17 -41t-41 -17h-117q-24 0 -41 17t-17 41v350h-59q-24 0 -41 17t-17 42q0 24 17 41t41 17z
" />
    <glyph glyph-name="H.alt3" horiz-adv-x="576" 
d="M98 0q-24 0 -41 17t-17 41v584q0 24 17 41t41 17t41.5 -17t17.5 -41v-584q0 -24 -17.5 -41t-41.5 -17zM477 0q-24 0 -41 17t-17 41v584q0 24 17 41t41 17q25 0 42 -17t17 -41v-584q0 -24 -17 -41t-42 -17zM346 350q0 -24 -17 -41t-41 -17t-41 17t-17 41t17 41t41 17
t41 -17t17 -41z" />
    <glyph glyph-name="F.alt3" 
d="M98 700h350q25 0 42 -17t17 -41q0 -25 -17.5 -42t-41.5 -17h-291v-525q0 -24 -17 -41t-42 -17q-24 0 -41 17t-17 41v584q0 24 17 41t41 17zM302 408q25 0 42 -17t17 -41t-17 -41t-42 -17q-24 0 -41 17t-17 41t17 41t41 17z" />
    <glyph glyph-name="less.alt1" horiz-adv-x="694" 
d="M57 391l177 177q16 16 41 16t41 -16q17 -17 17 -42t-17 -41l-75 -74h69l157 157q17 16 42 16t41 -16q17 -19 17 -42q0 -24 -17 -41l-75 -74h121q24 0 41 -17.5t17 -41.5t-17 -41t-41 -17h-126l80 -79q17 -17 17 -41q0 -23 -17 -42q-19 -17 -42 -17q-24 0 -41 17l-161 162
h-69l79 -79q17 -17 17 -42t-17 -41q-17 -17 -41 -17t-41 17l-177 177q-17 17 -17 41q0 22 17 41z" />
    <glyph glyph-name="T.alt3" 
d="M474 519q33 -16 33 -52q0 -4 -2 -14q-5 -20 -21 -32.5t-36 -12.5h-116v-350q0 -24 -17 -41t-42 -17q-24 0 -41 17t-17 41v350h-117q-24 0 -41 17t-17 42q0 24 17 41t41 17h103l-129 64q-32 19 -32 52q0 4 2 14q5 20 20.5 32.5t35.5 12.5h350q25 0 42 -17t17 -41
q0 -25 -17 -42t-42 -17h-103z" />
    <glyph glyph-name="B.alt1" 
d="M307 0h-209q-24 0 -41 17t-17 41v584q0 24 17 41t41 17h153q7 0 11 -1q4 1 11 1h175q36 0 53 -33q5 -10 5 -25q0 -21 -12 -36l-138 -178q19 -6 43 -17q108 -58 108 -192q0 -103 -60 -157.5t-140 -61.5zM251 583h-94v-466h143q32 4 54 19q36 24 36 83q0 64 -45 88
q-11 6 -23.5 9.5t-19.5 3.5l-7 1h-51q-36 0 -52 33q-6 12 -6 26q0 18 12 35l131 168h-56q-2 0 -5.5 0.5t-5.5 0.5t-6 -0.5t-5 -0.5z" />
    <glyph glyph-name="h.alt3" horiz-adv-x="576" 
d="M98 0q-24 0 -41 17t-17 41v584q0 24 17 41t41 17t41.5 -17t17.5 -41v-584q0 -24 -17.5 -41t-41.5 -17zM477 0q-24 0 -41 17t-17 41v584q0 24 17 41t41 17q25 0 42 -17t17 -41v-584q0 -24 -17 -41t-42 -17zM346 350q0 -24 -17 -41t-41 -17t-41 17t-17 41t17 41t41 17
t41 -17t17 -41z" />
    <glyph glyph-name="j.001" horiz-adv-x="430" 
d="M186 0q-24 0 -41.5 17t-17.5 41q0 25 17.5 42t41.5 17q55 0 75 40q5 10 8 22t3 19l1 6v126l-220 275q-13 18 -13 37q0 13 6 25q15 33 52 33h234q24 0 41 -17t17 -41v-438q0 -49 -24 -99q-52 -105 -180 -105zM220 583h53v-67z" />
    <glyph glyph-name="O.alt7" horiz-adv-x="576" 
d="M288 175q-103 0 -175.5 77t-72.5 186q0 108 72.5 185t175.5 77t175.5 -77t72.5 -185q0 -109 -72.5 -186t-175.5 -77zM288 583q-55 0 -93 -42.5t-38 -102.5q0 -61 38 -103.5t93 -42.5q54 0 92.5 42.5t38.5 103.5q0 60 -38.5 102.5t-92.5 42.5zM127 117h321q24 0 41.5 -17
t17.5 -42q0 -24 -17.5 -41t-41.5 -17h-321q-24 0 -41 17t-17 41q0 25 17 42t41 17z" />
    <glyph glyph-name="p.alt1" horiz-adv-x="488" 
d="M343 234l95 -143q10 -14 10 -33q0 -16 -7 -27q-16 -31 -51 -31h-233v-175q0 -24 -17.5 -41t-41.5 -17t-41 17t-17 41v584q0 24 17 41t41 17h292q35 0 51 -31q7 -11 7 -27q0 -19 -10 -33zM225 201q-10 14 -10 32q0 19 10 33l56 84h-124v-233h124z" />
    <glyph glyph-name="s.001" 
d="M302 0q-13 0 -22 4q-36 16 -36 54q0 10 5 23l112 269h-263q-31 0 -48 25q-10 14 -10 32q0 13 4 22l87 233q15 38 54 38q12 0 21 -4q38 -15 38 -54q0 -12 -4 -21l-58 -154h266q31 0 49 -26q10 -14 10 -32q0 -11 -5 -23l-146 -350q-14 -36 -54 -36z" />
    <glyph glyph-name="U.alt1.001" horiz-adv-x="576" 
d="M288 0q-76 0 -132 35t-87 101q-29 63 -29 126v380q0 24 17 41t41 17h117q32 0 49 -27l155 -243v212q0 24 17 41t41 17q25 0 42 -17t17 -41v-380q0 -63 -29 -126q-31 -66 -87.5 -101t-131.5 -35zM183 583h-26v-321q0 -41 19 -80q32 -65 112 -65q81 0 113 68q9 17 12 36z
" />
    <glyph glyph-name="g.002" horiz-adv-x="722" 
d="M363 379h260q25 0 42 -17t17 -41v-263q0 -39 -36 -54q-9 -4 -23 -4q-24 0 -41 17l-25 25q-78 -42 -167 -42q-145 0 -248 103q-102 102 -102 247q0 144 102 248q102 102 248 102q145 0 247 -102q17 -17 17 -42t-16 -41q-17 -17 -42 -17t-41 17q-70 68 -165 68
q-97 0 -165 -68t-68 -165q0 -98 68 -165q68 -68 165 -68q41 0 79 13l-150 150q-17 16 -17 41q0 24 17 41t44 17zM565 262h-64l64 -63v63z" />
    <glyph glyph-name="t.002" horiz-adv-x="488" 
d="M448 379q0 -24 -17 -41t-41 -17h-66l118 -237q6 -12 6 -26q0 -34 -32 -52q-12 -6 -26 -6q-36 0 -52 32l-145 289h-95q-24 0 -41 17t-17 41t17 41t41 17h37l-89 179q-6 12 -6 25q0 17 9 31q16 28 49 28h292q24 0 41 -17t17 -41q0 -25 -17 -42t-41 -17h-197l73 -146h124
q24 0 41 -17t17 -41z" />
    <glyph glyph-name="g.003" horiz-adv-x="517" 
d="M259 467q91 0 154.5 -69t63.5 -164v-409q0 -24 -17 -41t-41 -17h-262q-25 0 -42 17t-17 41q0 25 17 42t42 17h204v143q-49 -27 -102 -27q-91 0 -155 68.5t-64 165.5q0 96 64 164.5t155 68.5zM259 117q42 0 72 34t30 83q0 48 -30 82t-72 34q-43 0 -72.5 -34t-29.5 -82
q0 -49 29.5 -83t72.5 -34z" />
    <glyph glyph-name="j.002" horiz-adv-x="342" 
d="M244 467q24 0 41 -17.5t17 -41.5v-583q0 -24 -17 -41t-41 -17h-146q-24 0 -41 17t-17 41t17 41.5t41 17.5h87v524q0 24 17 41.5t42 17.5z" />
    <glyph glyph-name="k.002" horiz-adv-x="605" 
d="M373 275l175 -175q17 -19 17 -42q0 -24 -17 -41q-19 -17 -41 -17q-23 0 -42 17l-158 158h-150v-117q0 -24 -17 -41t-42 -17q-24 0 -41 17t-17 41v584q0 24 17 41t41 17q25 0 42 -17t17 -41v-117h150l158 158q17 17 41 17q23 0 42 -17q17 -19 17 -42q0 -24 -17 -41
l-175 -175q-17 -17 -41 -17h-175v-116h175q24 0 41 -17z" />
    <glyph glyph-name="m.002" horiz-adv-x="692" 
d="M610 698q19 -5 30.5 -20.5t11.5 -35.5v-584q0 -24 -17 -41t-41 -17t-41 17t-17 41v373l-122 -203l84 -140q9 -14 9 -30q0 -32 -29 -50q-14 -8 -29 -8q-34 0 -51 28l-52 87l-52 -87q-17 -28 -50 -28q-16 0 -30 8q-29 18 -29 50q0 16 9 30l84 140l-121 203v-373
q0 -24 -17.5 -41t-41.5 -17t-41 17t-17 41v584q0 20 12 35.5t31 20.5q10 2 15 2q34 0 50 -28l198 -330l198 330q16 28 50 28q6 0 16 -2z" />
    <glyph glyph-name="m.003" horiz-adv-x="663" 
d="M623 58q0 -24 -17 -41t-41 -17t-41.5 17t-17.5 41v292h-116v-292q0 -24 -17 -41t-41 -17q-25 0 -42 17t-17 41v292h-116v-292q0 -24 -17.5 -41t-41.5 -17t-41 17t-17 41v350q0 24 17 41.5t41 17.5h467q24 0 41 -17.5t17 -41.5v-350z" />
    <glyph glyph-name="talt.103" horiz-adv-x="546" 
d="M448 700q24 0 41 -17t17 -41v-88q0 -24 -17 -41t-41 -17t-41 17t-17 41v29h-59v-525q0 -24 -17 -41t-41 -17t-41 17t-17 41v525h-59v-29q0 -24 -17 -41t-41 -17t-41 17t-17 41v88q0 24 17 41t41 17h350z" />
    <glyph glyph-name="n.alt1.002" horiz-adv-x="488" 
d="M389 0q-24 0 -41 17t-17 41v292h-175v-292q0 -24 -17 -41t-41 -17t-41 17t-17 41v350q0 24 17 41.5t41 17.5h291q25 0 42 -17.5t17 -41.5v-350q0 -24 -17 -41t-42 -17z" />
    <glyph glyph-name="s.alt1" horiz-adv-x="430" 
d="M291 294q92 -44 99 -119v-11q0 -61 -41 -105q-54 -59 -145 -59q-49 0 -91 23t-65 62q-8 14 -8 30q0 33 29 50q14 8 29 8q34 0 51 -30q15 -26 55 -26q41 0 59 21q11 11 11 27q-4 9 -30 22t-52 19q-3 0 -4 1q-130 37 -130 145q0 58 48 97t120 39q51 0 94 -27q28 -17 28 -50
q0 -16 -9 -31q-17 -27 -49 -27q-17 0 -32 9q-14 9 -32 9q-16 0 -28.5 -4t-17.5 -8t-5 -7q0 -20 44 -33q35 -8 72 -25z" />
    <glyph glyph-name="c.alt1" horiz-adv-x="422" 
d="M259 0q-91 0 -155 68.5t-64 164.5q0 97 64 165.5t155 68.5q47 0 90 -21q33 -14 33 -52q0 -13 -6 -25q-16 -34 -52 -34q-13 0 -25 6q-19 9 -40 9q-42 0 -72 -34t-30 -83q0 -48 30 -82t72 -34q21 0 40 9q10 5 24 5q37 0 53 -33q6 -12 6 -25q0 -37 -33 -53q-45 -20 -90 -20z
" />
    <glyph glyph-name="e.alt1" horiz-adv-x="488" 
d="M258 0q-14 0 -18 1q-95 5 -150 74q-50 64 -50 159q0 97 60 165t144 68q88 0 146 -66q58 -63 58 -157q0 -24 -17 -41.5t-41 -17.5h-227q20 -66 83 -68h6q43 0 68 18q15 9 32 9q32 0 49 -26q10 -13 10 -31q0 -33 -27 -50q-56 -37 -126 -37zM174 302h145q-25 49 -75 49
q-43 0 -70 -49z" />
    <glyph glyph-name="f.alt1" horiz-adv-x="400" 
d="M302 467q24 0 41 -17t17 -42q0 -24 -17 -41t-41 -17h-58v-292q0 -24 -17 -41t-42 -17q-24 0 -41 17t-17 41v292h-29q-24 0 -41 17t-17 41q0 25 17 42t41 17h29v175q0 24 17 41t41 17h117q24 0 41 -17t17 -41q0 -25 -17 -42t-41 -17h-58v-116h58z" />
    <glyph glyph-name="y.alt1" horiz-adv-x="488" 
d="M390 467q24 0 41 -17t17 -42v-357q-1 -1 -1 -3t-1 -6l-5 -12l-116 -231q-15 -32 -52 -32q-14 0 -26 6q-32 15 -32 52q0 14 6 26l75 149h-198q-24 0 -41 17t-17 41v350q0 25 17 42t41 17t41 -17t17 -42v-291h176v291q0 25 17 42t41 17z" />
    <glyph glyph-name="Y.alt1" horiz-adv-x="546" 
d="M448 700q24 0 41 -17t17 -41v-292q0 -24 -17 -41t-41 -17h-117v-234q0 -24 -17 -41t-41 -17t-41 17t-17 41v234h-117q-24 0 -41 17t-17 41v292q0 24 17 41t41 17t41 -17t17 -41v-234h234v234q0 24 17 41t41 17z" />
    <glyph glyph-name="x.alt1" horiz-adv-x="459" 
d="M304 235l103 -138q12 -16 12 -36q0 -29 -23 -46q-16 -12 -35 -12q-29 0 -47 24l-83 111l-86 -115q-18 -23 -47 -23q-18 0 -35 12q-23 17 -23 46q0 18 12 35l106 142l-106 142q-12 15 -12 34q0 30 23 47q16 12 35 12q30 0 47 -23l86 -115l83 111q17 23 47 23q20 0 35 -11
q23 -17 23 -46q0 -20 -12 -36z" />
    <glyph glyph-name="O.alt1" horiz-adv-x="780" 
d="M637 597q103 -103 103 -247q0 -145 -103 -248q-102 -102 -247 -102q-144 0 -248 102q-102 102 -102 248q0 145 102 247q103 103 248 103q146 0 247 -103zM555 185q68 68 68 165q0 95 -68 165q-68 68 -165 68t-165 -68t-68 -165q0 -98 68 -165q68 -68 165 -68t165 68z
M390 437q36 0 61.5 -25.5t25.5 -61.5t-25.5 -62t-61.5 -26t-62 26t-26 62t26 61.5t62 25.5z" />
    <glyph glyph-name="o.alt3" horiz-adv-x="751" 
d="M375 700q139 0 237.5 -102.5t98.5 -247.5t-98.5 -247.5t-237.5 -102.5t-237 102.5t-98 247.5t98 247.5t237 102.5zM594 350q0 97 -64 165t-155 68q-73 0 -132 -48l334 -274q17 42 17 89zM157 350q0 -97 64 -165t154 -68q76 0 134 49l-335 275q-17 -43 -17 -91z" />
    <glyph glyph-name="o.alt1" 
d="M273 467q97 0 165.5 -68.5t68.5 -165.5q0 -96 -68.5 -164.5t-165.5 -68.5q-96 0 -164.5 68.5t-68.5 164.5q0 97 68.5 165.5t164.5 68.5zM273 117q49 0 83 34t34 82q0 49 -34 83t-83 34q-48 0 -82 -34t-34 -83q0 -48 34 -82t82 -34z" />
    <glyph glyph-name="R.001" horiz-adv-x="517" 
d="M419 0q-34 0 -51 30l-112 204q-4 -1 -13 -1h-86v-175q0 -24 -17.5 -41t-41.5 -17t-41 17t-17 41v234q0 24 17 41t41 17h94l-145 264q-7 13 -7 27q0 16 8 30q18 29 50 29h145q57 0 114 -28q120 -60 120 -205q0 -60 -28 -114q-27 -55 -78 -86l99 -181q7 -13 7 -28
q0 -34 -30 -51q-13 -7 -28 -7zM243 583h-46l118 -214q16 12 29 34q17 32 17 64q0 73 -56 101q-14 7 -29.5 10.5t-23.5 3.5z" />
    <glyph glyph-name="u.alt1" horiz-adv-x="453" 
d="M355 467q24 0 41 -17t17 -42v-227q0 -45 -22 -88q-50 -93 -164 -93q-116 0 -164 93q-23 43 -23 88v227q0 25 17 42t41 17t41.5 -17t17.5 -42v-227q0 -18 10 -37q17 -27 60 -27q44 0 59 27q11 19 11 37v227q0 25 17 42t41 17z" />
    <glyph glyph-name="l.alt1" horiz-adv-x="197" 
d="M98 700q25 0 42 -17t17 -41v-584q0 -24 -17 -41t-42 -17q-24 0 -41 17t-17 41v584q0 24 17 41t41 17z" />
    <glyph glyph-name="d.alt1" 
d="M40 233q0 97 68.5 165.5t164.5 68.5q63 0 117 -32v207q0 24 17 41t41 17q25 0 42 -17t17 -41v-584q0 -24 -17 -41t-42 -17q-38 0 -53 34q-57 -34 -122 -34q-96 0 -164.5 68.5t-68.5 164.5zM157 233q0 -48 34 -82t82 -34q49 0 83 34t34 82q0 49 -34 83t-83 34
q-48 0 -82 -34t-34 -83z" />
    <glyph glyph-name="b.alt1" horiz-adv-x="517" 
d="M259 467q90 0 154 -68.5t64 -165.5q0 -96 -64 -164.5t-154 -68.5q-59 0 -109 31q-17 -31 -52 -31q-24 0 -41 17t-17 41v584q0 24 17 41t41 17q25 0 42 -17t17 -41v-202q48 27 102 27zM259 117q42 0 72 34t30 82q0 49 -30 83t-72 34q-43 0 -72.5 -34t-29.5 -83
q0 -48 29.5 -82t72.5 -34z" />
    <glyph glyph-name="h.alt1" horiz-adv-x="518" 
d="M441 463q37 -15 37 -55v-350q0 -24 -17 -41t-42 -17q-24 0 -41 17t-17 41v200l-219 -239q-19 -19 -43 -19q-13 0 -22 4q-37 15 -37 54v584q0 24 17 41t42 17q24 0 41 -17t17 -41v-434l219 240q19 19 43 19q13 0 22 -4z" />
    <glyph glyph-name="q.alt1" 
d="M507 -175q0 -24 -17 -41t-42 -17q-24 0 -41 17t-17 41v207q-54 -32 -117 -32q-96 0 -164.5 68.5t-68.5 165.5q0 96 68.5 164.5t164.5 68.5q65 0 122 -34q15 34 53 34q25 0 42 -17t17 -41v-584zM390 234q0 48 -34 82t-83 34q-48 0 -82 -34t-34 -82q0 -49 34 -83t82 -34
q49 0 83 34t34 83z" />
    <glyph glyph-name="j.alt1" horiz-adv-x="314" 
d="M274 612q0 -25 -17 -42t-41 -17q-25 0 -42 17t-17 42q0 24 17 41t42 17q24 0 41 -17t17 -41zM98 -175q-24 0 -41 17t-17 41q0 25 17 42t41 17q38 0 50 26q4 7 6 15t2 13l1 4v408q0 24 17 41.5t41 17.5q25 0 42 -17.5t17 -41.5v-408q0 -43 -21 -84q-45 -91 -155 -91z" />
    <glyph glyph-name="z.alt1" horiz-adv-x="488" 
d="M390 117q24 0 41 -17t17 -42q0 -24 -17 -41t-41 -17h-292q-37 0 -53 34q-5 10 -5 25q0 21 13 37l212 254h-167q-24 0 -41 17t-17 41q0 25 17 42t41 17h292q37 0 53 -34q5 -13 5 -24q0 -22 -13 -38l-212 -254h167z" />
    <glyph glyph-name="v.alt1" horiz-adv-x="529" 
d="M456 461q33 -16 33 -53q0 -13 -6 -25l-166 -350q-15 -33 -52 -33t-53 33l-166 350q-6 12 -6 25q0 37 33 53q12 6 25 6q37 0 53 -34l114 -239l113 239q16 34 53 34q13 0 25 -6z" />
    <glyph glyph-name="S.alt1" horiz-adv-x="546" 
d="M273 0q-16 0 -30 8q-29 18 -29 50q0 16 9 31l122 203h-247q-33 0 -51 29q-7 13 -7 29q0 18 8 30l175 292q17 28 50 28q16 0 30 -8q29 -18 29 -50q0 -16 -9 -31l-122 -203h247q33 0 51 -29q7 -13 7 -29q0 -18 -8 -30l-175 -292q-17 -28 -50 -28z" />
    <glyph glyph-name="A.alt1" horiz-adv-x="663" 
d="M619 80q4 -9 4 -22q0 -40 -36 -54q-9 -4 -21 -4q-18 0 -33 10t-22 27l-179 448l-147 -368h147q24 0 41 -17t17 -42q0 -24 -17 -41t-41 -17h-233q-31 0 -49 26q-10 14 -10 32q0 13 4 22l234 583q15 37 54 37t54 -37z" />
    <glyph glyph-name="E.alt1.002" 
d="M448 0h-350q-36 0 -52 32q-6 12 -6 26q0 18 11 34l185 258l-185 258q-11 16 -11 34q0 14 6 26q16 32 52 32h350q25 0 42 -17t17 -41q0 -25 -17 -42t-42 -17h-236l144 -199q10 -14 10 -34q0 -21 -10 -34l-144 -199h236q25 0 42 -17t17 -42q0 -24 -17 -41t-42 -17z" />
    <glyph glyph-name="D.alt1" horiz-adv-x="605" 
d="M268 0h-170q-24 0 -41 17t-17 41v584q0 24 17 41t41 17h170q7 0 18 -0.5t42 -7.5t59 -19t62 -38t58.5 -61.5t41 -93.5t16.5 -130t-16.5 -130t-41 -93.5t-58.5 -61.5t-62 -38t-59 -19t-42 -7.5t-18 -0.5zM157 583v-466h111q46 0 93 30q87 55 87 203q0 150 -91 205
q-46 28 -89 28h-111z" />
    <glyph glyph-name="F.alt1" 
d="M98 700h350q24 0 41.5 -17t17.5 -41q0 -25 -17.5 -42t-41.5 -17h-291v-175h233q24 0 41 -17t17 -41t-17 -41t-41 -17h-233v-234q0 -24 -17.5 -41t-41.5 -17t-41 17t-17 41v584q0 24 17 41t41 17z" />
    <glyph glyph-name="G.alt1" horiz-adv-x="722" 
d="M448 379h175q24 0 41.5 -17t17.5 -41v-263q0 -24 -17.5 -41t-41.5 -17q-21 0 -37 13.5t-20 33.5q-83 -47 -176 -47q-143 0 -246.5 103t-103.5 247t103.5 247t246.5 103q146 0 247 -103q17 -17 17 -41q0 -23 -17.5 -40.5t-40.5 -17.5q-24 0 -41 17q-68 68 -165 68
q-93 0 -163 -68t-70 -165t70 -165t163 -68q97 0 165 68q6 6 10 8v69h-117q-24 0 -41 17.5t-17 41.5t17 41t41 17z" />
    <glyph glyph-name="H.alt1" horiz-adv-x="576" 
d="M477 700q25 0 42 -17t17 -41v-584q0 -24 -17 -41t-42 -17q-24 0 -41 17t-17 41v234h-262v-234q0 -24 -17.5 -41t-41.5 -17t-41 17t-17 41v584q0 24 17 41t41 17t41.5 -17t17.5 -41v-234h262v234q0 24 17 41t41 17z" />
    <glyph glyph-name="K.alt1" horiz-adv-x="606" 
d="M548 100q17 -17 17 -41.5t-17 -41.5t-41 -17t-41 17l-187 187h-122v-146q0 -24 -17 -41t-41 -17t-41.5 17t-17.5 41v584q0 24 17.5 41t41.5 17t41 -17t17 -41v-296l307 335q16 18 40.5 19t41.5 -15q18 -17 19 -41t-15 -42l-258 -281h11q24 0 41 -17z" />
    <glyph glyph-name="L.alt1" horiz-adv-x="546" 
d="M448 0h-350q-24 0 -41 17t-17 41v584q0 24 17 41t41 17t41 -17t17 -41v-525h292q24 0 41 -17t17 -42q0 -24 -17 -41t-41 -17z" />
    <glyph glyph-name="X.alt1" horiz-adv-x="605" 
d="M559 669q6 -13 6 -27q0 -20 -10 -34l-181 -258l181 -258q10 -14 10 -34q0 -30 -24 -47q-17 -11 -34 -11q-29 0 -48 25l-156 223l-156 -223q-19 -25 -48 -25q-18 0 -34 11q-25 17 -25 47q0 18 11 34l181 258l-181 258q-10 14 -10 34q0 14 6 27q16 31 52 31h408
q36 0 52 -31zM303 452l92 131h-184z" />
    <glyph glyph-name="t.alt3" 
d="M345 583l129 -64q33 -16 33 -52q0 -4 -2 -14q-5 -20 -21 -32.5t-36 -12.5h-116v-350q0 -24 -17 -41t-42 -17q-24 0 -41 17t-17 41v350h-117q-24 0 -41 17t-17 42q0 24 17 41t41 17h103l-129 64q-32 19 -32 52q0 4 2 14q5 20 20.5 32.5t35.5 12.5h350q25 0 42 -17t17 -41
q0 -25 -17 -42t-42 -17h-103z" />
    <glyph glyph-name="U.alt1" horiz-adv-x="575" 
d="M288 0q-75 0 -131.5 35t-87.5 101q-29 63 -29 127v379q0 24 17 41t41 17t41 -17t17 -41v-379q0 -11 4.5 -30t16 -47.5t41 -48.5t70.5 -20q40 0 68.5 19t40.5 46.5t17 47.5t5 33v379q0 24 17 41t41 17t41 -17t17 -41v-379q0 -66 -28 -127q-31 -66 -87.5 -101t-131.5 -35z
" />
    <glyph glyph-name="Z.alt1.002" 
d="M99 0q-24 0 -41.5 17t-17.5 41q0 25 17.5 42t41.5 17h247l-297 495q-8 12 -8 30q0 24 17.5 41t40.5 17h350q24 0 41 -17t17 -42q0 -24 -17 -41t-41 -17h-247l297 -495q8 -12 8 -29q0 -25 -17.5 -42t-40.5 -17h-350z" />
    <glyph glyph-name="W.alt1" horiz-adv-x="945" 
d="M869 695q36 -14 36 -54q0 -13 -4 -22l-244 -583q-15 -36 -53 -36q-39 0 -54 36l-77 185l-78 -185q-15 -36 -53 -36q-39 0 -54 36l-244 583q-4 9 -4 22q0 23 17 41t42 18q38 0 53 -36l190 -454l67 163l-102 246q-5 12 -5 23q0 23 17 40.5t42 17.5q38 0 53 -36l59 -140
l58 140q15 36 53 36q25 0 42 -18t17 -41q0 -13 -4 -22l-103 -246l68 -163l189 454q15 36 53 36q11 0 23 -5z" />
    <glyph glyph-name="I.alt1" horiz-adv-x="196" 
d="M98 0q-24 0 -41 17t-17 41v584q0 24 17 41t41 17t41 -17t17 -41v-584q0 -24 -17 -41t-41 -17z" />
    <glyph glyph-name="E.alt1" 
d="M448 0h-350q-24 0 -41 17t-17 41v584q0 24 17 41t41 17h350q25 0 42 -17t17 -41q0 -25 -17.5 -42t-41.5 -17h-291v-466h291q25 0 42 -17t17 -42q0 -24 -17 -41t-42 -17zM361 350q0 -24 -17 -41t-42 -17q-24 0 -41 17t-17 41t17 41t41 17q25 0 42 -17t17 -41z" />
    <glyph glyph-name="b.002" 
d="M409 437q41 0 69.5 -28.5t28.5 -68.5v-243q0 -40 -29 -68.5t-69 -28.5h-272q-40 0 -68.5 28.5t-28.5 68.5v506q0 40 30 68.5t73 28.5h144q43 0 73 -28.5t30 -68.5v-166h19zM157 583v-146h116v146h-116zM390 117v204h-233v-204h233z" />
    <glyph glyph-name="b.007" horiz-adv-x="460" 
d="M361 467q24 0 41.5 -17t17.5 -42v-350q0 -24 -17.5 -41t-41.5 -17h-262q-25 0 -42 17t-17 41v350q0 25 17 42t42 17q24 0 41 -17t17 -42v-291h146v291q0 25 17 42t41 17z" />
    <glyph glyph-name="b.009" horiz-adv-x="663" 
d="M623 58q0 -24 -17 -41t-41 -17t-41.5 17t-17.5 41v292h-116v-292q0 -24 -17 -41t-41 -17q-25 0 -42 17t-17 41v292h-116v-292q0 -24 -17.5 -41t-41.5 -17t-41 17t-17 41v350q0 24 17 41.5t41 17.5h467q24 0 41 -17.5t17 -41.5v-350z" />
    <glyph glyph-name="b.005" horiz-adv-x="488" 
d="M390 0h-292q-24 0 -41 17t-17 41q0 25 17 42t41 17h233v175h-233q-24 0 -41 17t-17 41v292q0 24 17 41t41 17h292q24 0 41 -17t17 -42q0 -24 -17 -41t-41 -17h-234v-175h234q24 0 41 -17t17 -41v-292q0 -24 -17 -41t-41 -17z" />
    <glyph glyph-name="b.006" 
d="M448 408q25 0 42 -17t17 -41v-292q0 -24 -17 -41t-42 -17q-24 0 -41 17t-17 41v234h-233v-234q0 -24 -17 -41t-42 -17q-24 0 -41 17t-17 41v584q0 24 17 41t41 17q25 0 42 -17t17 -41v-234h116v146q0 24 17 41t42 17q24 0 41 -17t17 -41v-146h58z" />
    <glyph glyph-name="b.020" horiz-adv-x="780" 
d="M740 642v-584q0 -24 -17 -41t-41 -17h-584q-24 0 -41 17t-17 41v584q0 24 17 41t41 17h584q24 0 41 -17t17 -41z" />
    <glyph glyph-name="b.003" horiz-adv-x="546" 
d="M448 0h-350q-24 0 -41 17t-17 41v584q0 24 17 41t41 17h350q24 0 41 -17t17 -42q0 -24 -17 -41t-41 -17h-292v-466h292q24 0 41 -17t17 -42q0 -24 -17 -41t-41 -17z" />
    <glyph glyph-name="fi.001" horiz-adv-x="634" 
d="M536 467q24 0 41 -17t17 -42q0 -24 -17 -41t-41 -17h-59v-292q0 -24 -17 -41t-41 -17t-41 17t-17 41v292h-88v-292q0 -24 -17 -41t-41 -17t-41 17t-17 41v292h-59q-24 0 -41 17t-17 41q0 25 17 42t41 17h59v175q0 24 17 41t41 17t41 -17t17 -41v-175h88v175q0 24 17 41
t41 17t41 -17t17 -41v-175h59z" />
    <glyph glyph-name="O.alt3" horiz-adv-x="751" 
d="M375 700q139 0 237.5 -102.5t98.5 -247.5t-98.5 -247.5t-237.5 -102.5t-237 102.5t-98 247.5t98 247.5t237 102.5zM594 350q0 97 -64 165t-155 68q-73 0 -132 -48l334 -274q17 42 17 89zM157 350q0 -97 64 -165t154 -68q76 0 134 49l-335 275q-17 -43 -17 -91z" />
    <glyph glyph-name="b.015" horiz-adv-x="1129" 
d="M739 700q147 0 248 -103q102 -102 102 -247q0 -144 -102 -248q-102 -102 -248 -102q-95 0 -175 47q-79 -47 -175 -47q-145 0 -247 102t-102 248q0 145 102 247q101 103 247 103q96 0 175 -47q80 47 175 47zM564 196q58 65 58 154t-58 154q-58 -65 -58 -154t58 -154z
M224 185q70 -68 165 -68q43 0 78 13q-77 95 -77 220t77 220q-35 13 -78 13q-95 0 -165 -68q-68 -68 -68 -165q0 -98 68 -165zM904 185q69 67 69 165t-69 165q-68 68 -165 68q-42 0 -77 -13q77 -97 77 -220t-77 -220q35 -13 77 -13q97 0 165 68z" />
    <glyph glyph-name="T.alt1" 
d="M345 583l129 -64q33 -16 33 -52q0 -4 -2 -14q-5 -20 -21 -32.5t-36 -12.5h-116v-350q0 -24 -17 -41t-42 -17q-24 0 -41 17t-17 41v350h-117q-24 0 -41 17t-17 42q0 24 17 41t41 17h103l-129 64q-32 19 -32 52q0 4 2 14q5 20 20.5 32.5t35.5 12.5h350q25 0 42 -17t17 -41
q0 -25 -17 -42t-42 -17h-103z" />
    <glyph glyph-name="n.alt1" horiz-adv-x="488" 
d="M390 467q24 0 41 -17t17 -42v-350q0 -24 -17 -41t-41 -17t-41 17t-17 41v125l-175 116v-241q0 -24 -17.5 -41t-41.5 -17t-41 17t-17 41v350q0 36 31 52q13 7 28 7q18 0 32 -10l201 -134v85q0 25 17 42t41 17z" />
    <glyph glyph-name="b.004" horiz-adv-x="457" 
d="M98 235q-24 0 -41 17t-17 41v116q0 24 17.5 41t41.5 17h260q24 0 41 -17t17 -41t-17 -41t-41 -17h-203v-58q0 -24 -17 -41t-41 -17zM359 0h-260q-24 0 -41 17t-17 41t17 41t41 17h202v58q0 24 17 41t41 17t41 -17t17 -41v-116q0 -24 -17 -41t-41 -17z" />
    <glyph glyph-name="b.035" horiz-adv-x="721" 
d="M623 0q-24 0 -41.5 17t-17.5 41v525h-145v-525q0 -24 -17 -41t-42 -17q-24 0 -41 17t-17 41v525h-146v-525q0 -24 -17 -41t-41 -17t-41 17t-17 41v584q0 24 17 41t41 17h525q24 0 41 -17t17 -41v-584q0 -24 -17 -41t-41 -17z" />
    <glyph glyph-name="b.013" 
d="M502 664q15 -36 -12 -64l-158 -157v-385q0 -24 -17 -41t-42 -17q-24 0 -41 17t-17 41v409q0 24 17 41l75 75h-209q-24 0 -41 17t-17 42q0 24 17 41t41 17h350q39 0 54 -36z" />
    <glyph glyph-name="b.011" horiz-adv-x="459" 
d="M361 467q24 0 41 -17.5t17 -41.5v-350q0 -24 -17 -41t-41 -17q-25 0 -42 17t-17 41v292h-146v-292q0 -24 -17 -41t-41 -17t-41 17t-17 41v584q0 24 17 41t41 17t41 -17t17 -41v-175h205z" />
    <glyph glyph-name="b.025" horiz-adv-x="955" 
d="M901 96q14 -17 14 -38q0 -28 -21 -44q-15 -14 -37 -14q-29 0 -45 21l-118 142l-42 -41v-64q0 -24 -17 -41t-41 -17h-204q-37 0 -52 32q-50 -32 -112 -32q-77 0 -131.5 47t-54.5 113q0 67 54.5 114t131.5 47q58 0 106 -29v58h-175q-25 0 -42 17t-17 41q0 25 17 42t42 17
h233q24 0 41 -17t17 -42v-291h88v29v496q0 24 17 41t41 17t41 -17t17 -41v-355l163 163q16 16 41 16t42 -16q17 -19 17 -42q0 -24 -17 -41l-122 -121zM226 117q26 0 47.5 12.5t21.5 30.5t-21.5 31t-47.5 13t-47.5 -13t-21.5 -31t21.5 -30.5t47.5 -12.5z" />
    <glyph glyph-name="b.016" horiz-adv-x="453" 
d="M355 467q24 0 41 -17t17 -41v-496q0 -24 -17 -41.5t-41 -17.5h-146v-29q0 -24 -17 -41t-42 -17q-24 0 -41 17t-17 41v88q0 24 17 41t41 17h146v41q-32 -12 -70 -12q-114 0 -164 93q-22 43 -22 88v228q0 24 17 41t41 17t41 -17t17 -41v-227q0 -19 11 -37q15 -28 59 -28
q46 0 61 30q4 7 6 15.5t3 13.5v5v228q0 24 17 41t42 17z" />
    <glyph glyph-name="b.017" horiz-adv-x="809" 
d="M711 467q24 0 41 -17t17 -42v-350q0 -24 -17 -41t-41 -17q-25 0 -42 17t-17 41v292h-145v-292q0 -24 -17.5 -41t-41.5 -17t-41 17t-17 41v292h-29h-117v-292q0 -24 -17 -41t-41 -17q-25 0 -42 17t-17 41v292h-29q-24 0 -41 17t-17 41q0 25 17 42t41 17h29v58q0 43 21 84
q45 91 154 91q25 0 42 -17t17 -41q0 -25 -17 -42t-42 -17q-36 0 -50 -26l-8 -32v-58h117h29v58q0 43 21 84q45 91 154 91q24 0 41 -17t17 -41q0 -25 -17 -42t-41 -17q-38 0 -50 -26q-4 -7 -6 -15t-2 -12v-5v-58h204zM711 525q-25 0 -42 17t-17 41q0 25 17 42t42 17
q24 0 41 -17t17 -42q0 -24 -17 -41t-41 -17z" />
    <glyph glyph-name="b.018" horiz-adv-x="984" 
d="M711 467q96 0 164.5 -68.5t68.5 -165.5q0 -96 -68.5 -164.5t-164.5 -68.5q-105 0 -176 79l-13 -39q-6 -18 -21 -29t-34 -11q-41 0 -55 39l-68 194l-68 -194q-7 -17 -22 -28t-33 -11q-41 0 -55 39l-123 350q-3 9 -3 20q0 18 10.5 33t28.5 21q9 3 20 3q40 0 54 -38l68 -193
l67 193q15 39 56 39q18 0 33.5 -10.5t21.5 -28.5l67 -190l14 43l4 9q20 77 83 127t144 50zM711 117q48 0 82 34t34 82q0 49 -34 83t-82 34q-49 0 -83 -34t-34 -83q0 -48 34 -82t83 -34z" />
    <glyph glyph-name="ampersand.001" horiz-adv-x="640" 
d="M521 176l67 -83q11 -14 11 -35q0 -24 -15.5 -41t-40.5 -17q-27 0 -44 21l-56 70l-32 -34q-54 -57 -148 -57q-92 0 -157.5 65.5t-65.5 157.5q0 68 37.5 124t98.5 82q-22 41 -22 87q0 76 54 130t130 54t130 -54t54 -130q0 -24 -16.5 -40.5t-40.5 -16.5q-28 0 -42 20
t-17 43.5t-19.5 43.5t-48.5 20q-28 0 -49 -21t-21 -49q0 -25 15 -43l53 -66l112 -140l53 57q15 17 43 17q23 0 38 -14q18 -18 18 -42q0 -21 -15 -38zM330 137l40 44l-120 150q-41 -5 -68.5 -35.5t-27.5 -72.5q0 -45 32 -77t77 -32q38 0 67 23z" />
    <glyph glyph-name="b.014" horiz-adv-x="459" 
d="M99 0q-25 0 -42 17t-17 41v350q0 25 17 42t42 17h262q24 0 41 -17t17 -42v-175q0 -24 -17 -41t-41 -17h-204v-58h175q24 0 41 -17t17 -42q0 -24 -17 -41t-41 -17h-233zM303 292v58h-146v-58h146z" />
    <glyph glyph-name="b.012" horiz-adv-x="459" 
d="M361 467q24 0 41 -17t17 -42v-350q0 -24 -17 -41t-41 -17h-262q-25 0 -42 17t-17 41v175q0 25 17 42t42 17h204v58h-175q-24 0 -41.5 17t-17.5 41q0 25 17.5 42t41.5 17h233zM157 175v-58h146v58h-146z" />
    <glyph glyph-name="b.019" horiz-adv-x="517" 
d="M419 0q-29 0 -47 23l-175 234q-11 16 -11 34q0 15 6 27q16 32 52 32q32 1 62 16q55 28 55 101q0 71 -53 99q-32 17 -64 17h-87v-525q0 -24 -17.5 -41t-41.5 -17t-41 17t-17 41v584q0 24 17 41t41 17h146q57 0 114 -28q119 -60 119 -205q0 -146 -119 -206l-14 -6l122 -162
q11 -14 11 -34q0 -30 -23 -47q-15 -12 -35 -12z" />
    <glyph glyph-name="b.021" horiz-adv-x="838" 
d="M565 467q96 0 164.5 -68.5t68.5 -164.5q0 -97 -68.5 -165.5t-164.5 -68.5q-23 0 -69.5 9.5t-53.5 23.5l-117 -234q-16 -32 -52 -32q-14 0 -26 6q-32 17 -32 52q0 14 6 26l74 149h-197q-24 0 -41 17t-17 42v350q0 24 17 41t41 17t41 -17t17 -41v-292h175v117
q0 96 68.5 164.5t165.5 68.5zM565 117q48 0 82 34t34 83q0 48 -34 82t-82 34q-47 0 -80.5 -33t-36.5 -83q0 -49 34 -83t83 -34z" />
    <glyph glyph-name="b.022" horiz-adv-x="692" 
d="M594 467q24 0 41 -17.5t17 -41.5v-350q0 -24 -17 -41t-41 -17h-204q-37 0 -52 32q-51 -32 -112 -32q-77 0 -131.5 47t-54.5 113q0 67 54.5 114t131.5 47q57 0 105 -29v58h-175q-24 0 -41 17t-17 41t17 41.5t41 17.5h234q24 0 41 -17.5t17 -41.5v-291h88v291q0 24 17 41.5
t41 17.5zM226 117q25 0 47 12.5t22 30.5t-22 31t-47 13q-26 0 -48 -13t-22 -31t22 -30.5t48 -12.5zM594 642q24 0 41 -17.5t17 -41.5t-17 -41t-41 -17t-41 17t-17 41t17 41.5t41 17.5z" />
    <glyph glyph-name="b.023" horiz-adv-x="750" 
d="M652 467q24 0 41 -17.5t17 -41.5v-350q0 -24 -17 -41t-41 -17t-41 17t-17 41v292h-119q31 -53 31 -117q0 -96 -68 -164.5t-165 -68.5t-165 68.5t-68 164.5q0 97 68 165.5t165 68.5h379zM390 233q0 49 -34.5 83t-82.5 34t-82.5 -34t-34.5 -83q0 -48 34.5 -82t82.5 -34
t82.5 34t34.5 82zM652 642q24 0 41 -17.5t17 -41.5t-17 -41t-41 -17t-41 17t-17 41t17 41.5t41 17.5z" />
    <glyph glyph-name="b.027" 
d="M274 0q-37 0 -53 32l-175 350q-6 12 -6 26q0 36 32 52q14 6 26 6q33 0 53 -32l123 -245l122 245q16 32 53 32q12 0 26 -6q32 -16 32 -52q0 -14 -6 -26l-175 -350q-16 -32 -52 -32zM332 408q0 -24 -17 -41t-41 -17q-25 0 -42 17t-17 41q0 25 17 42t42 17q24 0 41 -17
t17 -42z" />
    <glyph glyph-name="b.024" horiz-adv-x="430" 
d="M332 467q24 0 41 -17t17 -41v-467q0 -43 -21 -84q-45 -91 -154 -91q-24 0 -41 17t-17 41q0 25 17 42t41 17q36 0 50 26q4 7 6 15t2 13v4v408h-116v-291q0 -25 -17 -42t-42 -17q-24 0 -41 17t-17 42v350q0 24 17 41t41 17h234zM98 642q25 0 42 -17.5t17 -41.5t-17 -41
t-42 -17q-24 0 -41 17t-17 41t17 41.5t41 17.5zM332 642q24 0 41 -17.5t17 -41.5t-17 -41t-41 -17q-25 0 -42 17t-17 41t17 41.5t42 17.5z" />
    <glyph glyph-name="b.029" horiz-adv-x="488" 
d="M390 700q24 0 41 -17t17 -41q0 -25 -17 -42t-41 -17h-234v-291h175q25 0 42 -17t17 -42q0 -24 -17 -41t-42 -17h-175v-117q0 -24 -17 -41t-41 -17t-41 17t-17 41v584q0 24 17 41t41 17h292z" />
    <glyph glyph-name="b.036" horiz-adv-x="868" 
d="M804 361q24 -49 24 -99v-204q0 -24 -17 -41t-41 -17q-25 0 -42 17t-17 41v204q0 25 -13 50q-21 38 -74 38h-59v-292q0 -24 -17 -41t-41 -17t-41 17t-17 41v292h-223q-41 0 -51 -16q0 -14 43 -26q19 -4 40 -11.5t53 -23.5t54 -43.5t25 -61.5v-11q0 -56 -39 -98
q-53 -59 -147 -59q-50 0 -91.5 21.5t-64.5 59.5q-8 14 -8 29q0 34 28 51q16 8 31 8q32 0 49 -28q14 -24 56 -24q43 0 61 21q9 9 9 19q-6 8 -31.5 20t-49.5 17q-3 0 -4 1q-62 17 -94 49q-37 37 -37 91q0 56 48 94t120 38h223v175q0 24 17 41t41 17t41 -17t17 -41v-175h59
q127 0 180 -106z" />
    <glyph glyph-name="b.030" horiz-adv-x="488" 
d="M448 408q0 -152 -104 -221l87 -87q17 -19 17 -42q0 -24 -17 -41t-41 -17t-41 17l-129 129h-63v-88q0 -24 -17.5 -41t-41.5 -17t-41 17t-17 41v584q0 24 17 41t41 17h117q61 0 120 -39q113 -76 113 -253zM157 583v-321h57l7 1q7 1 14.5 2.5t19 6t21.5 10.5q56 35 56 126
q0 112 -58 153q-31 22 -60 22h-57z" />
    <glyph glyph-name="b.031" horiz-adv-x="488" 
d="M390 583h-234v-291h175q25 0 42 -17t17 -42q0 -24 -17 -41t-42 -17h-175v-58h234q24 0 41 -17t17 -42q0 -24 -17 -41t-41 -17h-292q-24 0 -41 17t-17 41v584q0 24 17 41t41 17h292q24 0 41 -17t17 -41q0 -25 -17 -42t-41 -17z" />
    <glyph glyph-name="b.034" horiz-adv-x="546" 
d="M448 700q24 0 41 -17t17 -41v-584q0 -24 -17 -41t-41 -17t-41 17t-17 41v292l-234 175v-467q0 -24 -17 -41t-41 -17t-41 17t-17 41v584q0 36 32 52t61 -6l257 -192v146q0 24 17 41t41 17z" />
    <glyph glyph-name="b.028" horiz-adv-x="488" 
d="M335 661q113 -78 113 -253q0 -161 -116 -229q-58 -33 -117 -33h-59v-88q0 -24 -17 -41t-41 -17t-41 17t-17 41v584q0 24 17 41t41 17h117q61 0 120 -39zM276 282q55 34 55 126q0 112 -57 153q-31 22 -60 22h-58v-321h58l6 1q7 1 15 2.5t19.5 6t21.5 10.5z" />
    <glyph glyph-name="b.032" horiz-adv-x="546" 
d="M399 432q107 -62 107 -199q0 -145 -119 -205q-57 -28 -114 -28h-175q-24 0 -41 17t-17 41v584q0 24 17 41t41 17h152q42 0 83 -21q86 -47 86 -154q0 -53 -20 -93zM250 583h-94v-116h115q31 0 31 58q0 36 -22 49q-14 9 -30 9zM156 117h117q50 0 83.5 32t33.5 84
q0 72 -53 100q-32 17 -64 17h-117v-233z" />
    <glyph glyph-name="b.033" horiz-adv-x="488" 
d="M335 661q113 -75 113 -253v-116q0 -178 -113 -253q-59 -39 -120 -39h-117q-24 0 -41 17t-17 41v584q0 24 17 41t41 17h117q61 0 120 -39zM331 292v116q0 112 -57 153q-31 22 -60 22h-58v-466h58q29 0 60 22q57 41 57 153z" />
    <glyph glyph-name="b.026" horiz-adv-x="546" 
d="M448 0q-36 0 -52 32l-123 246l-123 -246q-17 -32 -52 -32q-14 0 -26 6q-32 18 -32 52q0 14 6 26l175 350q17 33 52 33t52 -33l175 -350q6 -12 6 -26q0 -35 -32 -52q-14 -6 -26 -6zM214 58q0 25 17 42t42 17q24 0 41 -17t17 -42q0 -24 -17 -41t-41 -17q-25 0 -42 17
t-17 41z" />
    <glyph glyph-name="b.037" horiz-adv-x="838" 
d="M740 467q24 0 41 -17t17 -42q0 -24 -17 -41t-41 -17h-59v-292q0 -24 -17 -41t-41 -17t-41 17t-17 41v292h-59v-292q0 -24 -17 -41t-41 -17q-38 0 -53 34q-58 -34 -122 -34q-97 0 -165 68.5t-68 164.5q0 97 68 165.5t165 68.5q61 0 117 -32v207q0 24 17 41t41 17t41 -17
t17 -41v-175h59v175q0 24 17 41t41 17t41 -17t17 -41v-175h59zM273 117q48 0 82.5 34t34.5 82q0 49 -34.5 83t-82.5 34t-82.5 -34t-34.5 -83q0 -48 34.5 -82t82.5 -34z" />
    <glyph glyph-name="b.038" horiz-adv-x="751" 
d="M653 467q24 0 41 -17t17 -42q0 -24 -17 -41t-41 -17h-59v-292q0 -24 -17 -41t-41 -17t-41 17t-17 41v292h-93l-117 -117l134 -133q17 -17 17 -41.5t-17 -41.5t-41 -17t-41 17l-163 163v-122q0 -24 -17 -41t-42 -17q-24 0 -41 17t-17 41v584q0 24 17 41t41 17q25 0 42 -17
t17 -41v-355l163 163q17 17 41 17h117v175q0 24 17 41t41 17t41 -17t17 -41v-175h59z" />
    <glyph glyph-name="b.039" horiz-adv-x="868" 
d="M803 361q25 -49 25 -99v-204q0 -24 -17 -41t-41 -17q-25 0 -42 17t-17 41v204q0 25 -13 50q-21 38 -74 38h-59v-292q0 -24 -17 -41t-41 -17t-41 17t-17 41v292h-189q-43 0 -73 -34t-30 -83q0 -48 30 -82t73 -34q20 0 39 9q22 10 45 2t33 -30t2 -44.5t-30 -33.5
q-43 -20 -89 -20q-91 0 -155.5 68.5t-64.5 164.5q0 97 64.5 165.5t155.5 68.5h189v175q0 24 17 41t41 17t41 -17t17 -41v-175h59q61 0 107.5 -27.5t71.5 -78.5z" />
    <glyph glyph-name="b.044" horiz-adv-x="896" 
d="M798 117q24 0 41 -17t17 -42q0 -24 -17 -41t-41 -17h-292q-30 0 -49 27l-301 430v-399q0 -24 -17 -41t-41 -17t-41 17t-17 41v584q0 19 11 34.5t29 20.5q41 13 66 -22l302 -432v399q0 24 17 41t41 17h292q24 0 41 -17t17 -41q0 -25 -17 -42t-41 -17h-233v-175h175
q24 0 41 -17t17 -41t-17 -41t-41 -17h-175v-175h233z" />
    <glyph glyph-name="b.041" horiz-adv-x="518" 
d="M419 117q25 0 42 -17t17 -42q0 -24 -17 -41t-42 -17q-122 0 -177 86q-13 21 -20 45q-24 -2 -34 -2q-16 0 -31 3v-74q0 -24 -17 -41t-41 -17q-25 0 -42 17t-17 41v584q0 24 17 41t42 17q24 0 41 -17t17 -41v-252l37 27q67 49 133 49q47 0 85 -25.5t55 -68.5q11 -25 11 -55
q0 -32 -14 -59q-32 -65 -128 -98q1 -5 7 -15q19 -28 76 -28zM175 255l5 -9h3q3 -1 5 -1q25 0 89 19q69 19 82 46q2 2 2 7q0 6 -2 11q-9 22 -32 22q-27 0 -65 -27q-7 -5 -14 -10.5t-14.5 -11t-11.5 -8.5q-29 -20 -48 -35q1 -1 1 -3z" />
    <glyph glyph-name="b.042" horiz-adv-x="1014" 
d="M915 700q24 0 41.5 -17t17.5 -41v-584q0 -19 -11.5 -34.5t-29.5 -20.5q-9 -3 -18 -3q-29 0 -48 25l-302 432v-399q0 -19 -11.5 -34.5t-29.5 -20.5q-9 -3 -18 -3q-30 0 -47 25l-302 432v-399q0 -24 -17 -41t-41 -17q-25 0 -42 17t-17 41v584q0 19 11.5 34.5t29.5 20.5
q9 3 18 3q30 0 47 -25l303 -432v399q0 19 11 34.5t29 20.5q9 3 18 3q31 0 48 -25l302 -432v399q0 24 17 41t41 17z" />
    <glyph glyph-name="b.092" horiz-adv-x="1049" 
d="M390 700q145 0 248 -103q70 -70 92 -167l173 245q17 25 47 25q9 0 18 -3q18 -5 29.5 -20.5t11.5 -34.5v-584q0 -24 -17 -41t-42 -17q-24 0 -41 17t-17 41v399l-209 -299q-22 -33 -46 -55q-103 -103 -247 -103q-145 0 -248 103q-102 102 -102 247t102 247q101 103 248 103
zM225 185q68 -68 165 -68t165 68q13 13 21 25l9 13q38 58 38 128q0 96 -68 164t-165 68t-165 -68q-69 -69 -69 -165t69 -165z" />
    <glyph glyph-name="b.048" horiz-adv-x="460" 
d="M291 117h70q24 0 41.5 -17t17.5 -42q0 -24 -17.5 -41t-41.5 -17h-262q-19 0 -35 11.5t-21 29.5q-3 9 -3 18q0 30 26 48l103 68h-70q-19 0 -35 11.5t-21 29.5q-3 9 -3 18q0 30 26 48l103 68h-70q-25 0 -42 17t-17 41q0 25 17 42t42 17h262q20 0 35.5 -11.5t20.5 -30.5
q2 -5 2 -16q0 -32 -25 -49l-103 -68h70q20 0 35.5 -11.5t20.5 -30.5q2 -5 2 -16q0 -32 -25 -49z" />
    <glyph glyph-name="greater.alt1" horiz-adv-x="694" 
d="M460 568l177 -177q17 -19 17 -41q0 -24 -17 -41l-177 -177q-17 -17 -41 -17t-41 17q-17 16 -17 41t17 42l79 79h-69l-161 -162q-17 -17 -41 -17q-23 0 -42 17q-17 19 -17 42q0 24 17 41l80 79h-126q-24 0 -41 17t-17 41t17 41.5t41 17.5h121l-75 74q-17 17 -17 41
q0 23 17 42q16 16 41 16t42 -16l157 -157h69l-75 74q-17 16 -17 41t17 42q16 16 41 16t41 -16z" />
    <glyph glyph-name="b.043" horiz-adv-x="896" 
d="M798 117q24 0 41 -17t17 -42q0 -24 -17 -41t-41 -17h-292q-30 0 -49 27l-301 430v-399q0 -24 -17 -41t-41 -17t-41 17t-17 41v584q0 19 11 34.5t29 20.5q41 13 66 -22l302 -432v399q0 24 17 41t41 17h292q24 0 41 -17t17 -41q0 -25 -17 -42t-41 -17h-233v-175h175
q24 0 41 -17t17 -41t-17 -41t-41 -17h-175v-175h233z" />
    <glyph glyph-name="b.045" horiz-adv-x="606" 
d="M562 78q8 -23 -2.5 -45t-33.5 -30q-9 -3 -19 -3q-18 0 -33.5 10.5t-21.5 28.5l-50 143l-272 -173q-20 -13 -43.5 -7.5t-36.5 25.5t-8 43.5t25 37.5l152 96h-62q-30 0 -48 25q-17 25 -6 54l146 380q6 17 21 27t34 10q18 0 33 -11t21 -28zM242 321h111l-53 151z" />
    <glyph glyph-name="b.094" horiz-adv-x="518" 
d="M71 518l321 175q13 7 27 7q16 0 30 -8q29 -18 29 -50v-584q0 -24 -17 -41t-42 -17q-24 0 -41 17t-17 41v183l-292 175q-29 18 -29 52q2 35 31 50zM216 464l145 -87v166z" />
    <glyph glyph-name="b.049" horiz-adv-x="458" 
d="M412 434q6 -12 6 -26q0 -19 -11 -35l-105 -140l105 -140q11 -14 11 -34q0 -30 -23 -47q-15 -12 -35 -12q-29 0 -46 23l-85 113l-85 -113q-17 -23 -47 -23q-19 0 -34 12q-23 17 -23 47q0 20 11 34l105 140l-105 140q-11 16 -11 35q0 14 6 26q15 33 52 33h262q36 0 52 -33z
M229 331l15 19h-30z" />
    <glyph glyph-name="b.054" horiz-adv-x="517" 
d="M419 467q24 0 41 -17t17 -42v-350q0 -24 -17 -41t-41 -17t-41 17t-17 41v289l-214 -321q-19 -26 -49 -26q-8 0 -17 3q-18 5 -29.5 20.5t-11.5 34.5v584q0 24 17 41t41 17t41 -17t17 -41v-391l127 190q18 26 48 26h88z" />
    <glyph glyph-name="b.047" horiz-adv-x="518" 
d="M383 13l-113 90l-139 -93q-14 -10 -32 -10q-15 0 -28 7q-31 16 -31 51v584q0 24 17 41t41 17t41 -17t17 -41v-475l85 57q15 9 32 9q21 0 37 -12l146 -117q22 -17 22 -46q0 -20 -13 -36q-18 -22 -47 -22q-21 0 -35 13z" />
    <glyph glyph-name="b.095" horiz-adv-x="460" 
d="M52 93l193 257h-146q-24 0 -41.5 17t-17.5 41t17.5 41.5t41.5 17.5h259q12 0 22 -3q29 -10 37 -38l1 -2v-4q1 -1 1 -5l1 -3v-4v-350q0 -24 -17 -41t-42 -17q-24 0 -41 17t-17 41v175l-158 -210q-17 -23 -46 -23q-20 0 -35 12q-23 17 -23 47q0 20 11 34z" />
    <glyph glyph-name="b.051" horiz-adv-x="343" 
d="M245 467q24 0 41 -17t17 -42q0 -24 -17 -41t-41 -17h-71l69 -278q6 -23 -6.5 -43.5t-35.5 -26.5q-10 -2 -15 -2q-20 0 -35.5 12.5t-20.5 31.5l-88 350q-6 28 11 50q18 23 46 23h146z" />
    <glyph glyph-name="b.052" horiz-adv-x="546" 
d="M489 683q17 -19 17 -42q0 -24 -17 -41l-58 -58q-17 -17 -41 -17q-14 0 -26 6l-33 16v-489q0 -24 -17 -41t-41 -17t-41 17t-17 41v489l-33 -16q-12 -6 -26 -6q-24 0 -41 17l-58 58q-17 16 -17 41t17 42t41 17q22 0 41 -17l29 -29l79 40h1q1 1 2 1q2 2 5 2l3 1q2 0 2 1
q3 0 6 1h12h2q1 -1 3 -1l2 -1h4q2 -2 5 -2q1 0 5 -2l79 -40l29 29q17 17 41 17q22 0 41 -17z" />
    <glyph glyph-name="b.057" horiz-adv-x="624" 
d="M567 275q17 -19 17 -42q0 -24 -17 -41l-53 -53l32 -49q9 -15 9 -31q0 -31 -27 -50q-14 -9 -31 -9q-33 0 -49 27l-22 32q-64 -59 -153 -59q-106 0 -175 72q-58 63 -58 151v15q8 113 156 176l-127 196q-10 14 -10 32q0 16 7 27q16 31 52 31h126q85 0 145 -49
q64 -53 64 -132q0 -101 -84 -158l80 -122l36 36q16 16 41 16q24 0 41 -16zM336 519q0 28 -26 46t-66 18q-2 0 -4 1q-2 -1 -6 -1h-9l81 -124q30 21 30 60zM273 117q58 0 88 44l-100 153q-101 -38 -104 -85v-7q0 -40 27 -70q33 -35 89 -35z" />
    <glyph glyph-name="b.093" horiz-adv-x="546" 
d="M98 700h350q39 0 54 -36q4 -9 4 -22q0 -25 -17 -42l-158 -157v-385q0 -24 -17 -41t-41 -17t-41 17t-17 41v409q0 24 17 41l75 75h-209q-24 0 -41 17t-17 42q0 24 17 41t41 17z" />
    <glyph glyph-name="b.055" horiz-adv-x="520" 
d="M98 350q-24 0 -41 17t-17 41q0 25 17 42t41 17h321q24 0 41 -17t17 -42v-146q0 -24 -17 -41t-41 -17t-41 17t-17 41v88h-263zM422 117q24 0 41 -17t17 -42q0 -24 -17 -41t-41 -17h-321q-24 0 -41 17t-17 41v146q0 24 17 41t41 17t41.5 -17t17.5 -41v-87h262z" />
    <glyph glyph-name="b.060" horiz-adv-x="546" 
d="M320 677l173 -232q13 -16 13 -37q0 -24 -16.5 -40t-41.5 -18h-117v-292q0 -24 -17 -41t-41 -17t-41 17t-17 41v292h-117q-36 0 -52 32q-6 12 -6 27q0 18 11 34l175 234q18 23 47 23t47 -23zM215 467h116l-58 77z" />
    <glyph glyph-name="b.056" horiz-adv-x="780" 
d="M390 700q145 0 247.5 -102.5t102.5 -247.5t-102.5 -247.5t-247.5 -102.5t-247.5 102.5t-102.5 247.5t102.5 247.5t247.5 102.5zM390 117q97 0 165 68t68 165t-68 165t-165 68t-165 -68t-68 -165t68 -165t165 -68zM425 468q17 17 41 17q23 0 42 -17q17 -19 17 -42
q0 -24 -17 -41l-154 -153q-17 -17 -41 -17t-41 17t-17 41q0 22 17 41z" />
    <glyph glyph-name="b.058" horiz-adv-x="896" 
d="M628 0h-5q-36 0 -52 32l-123 246l-123 -246q-16 -32 -52 -32h-5q-39 3 -51 42l-175 583q-2 6 -2 17q0 19 11 34.5t30 21.5q5 2 16 2q20 0 36 -11.5t21 -30.5l133 -442l109 218q16 33 52 33t52 -33l109 -218l133 442q6 19 21.5 30.5t35.5 11.5q11 0 16 -2q19 -6 30 -21.5
t11 -34.5q0 -11 -2 -17l-175 -583q-12 -39 -51 -42z" />
    <glyph glyph-name="b.061" horiz-adv-x="517" 
d="M453 455q24 -16 24 -48q0 -11 -2 -17q-6 -18 -21.5 -29t-34.5 -11h-262v-292q0 -24 -17.5 -41t-41.5 -17t-41 17t-17 41v350q0 25 17 42t41 17h142l-176 127q-24 16 -24 47q0 10 3 19q6 18 21 29t34 11h321q24 0 41 -17t17 -41q0 -25 -17 -42t-41 -17h-141z" />
    <glyph glyph-name="b.062" horiz-adv-x="728" 
d="M629 0q-24 0 -41 17t-17 41v525h-58v-525q0 -24 -17 -41t-41 -17h-182q-24 0 -41 17t-17 41v525h-58v-521q0 -25 -17 -42t-42 -17q-24 0 -41 17t-17 42v580q0 24 17 41t41 17h175q24 0 41.5 -17t17.5 -41v-525h64v525q0 24 17 41t42 17h175q24 0 41 -17t17 -41v-584
q0 -24 -17 -41t-42 -17z" />
    <glyph glyph-name="b.063" horiz-adv-x="553" 
d="M455 0h-182q-24 0 -41 17t-17 41v525h-59v-521q0 -25 -17 -42t-41 -17t-41 17t-17 42v580q0 24 17 41t41 17h175q24 0 41 -17t17 -41v-525h65v525q0 24 17 41t41 17q25 0 42 -17t17 -41v-584q0 -24 -17 -41t-41 -17z" />
    <glyph glyph-name="b.064" horiz-adv-x="546" 
d="M448 0h-350q-24 0 -41 17t-17 41v175q0 24 17 41.5t41 17.5h58v58q0 24 17.5 41t41.5 17h58v59q0 24 17 41t41 17h59v58h-292q-24 0 -41 17t-17 42q0 24 17 41t41 17h350q24 0 41 -17t17 -41v-175q0 -25 -17 -42t-41 -17h-58v-58q0 -24 -17 -41t-42 -17h-58v-59
q0 -24 -17 -41t-41 -17h-59v-58h292q24 0 41 -17t17 -42q0 -24 -17 -41t-41 -17z" />
    <glyph glyph-name="b.065" horiz-adv-x="313" 
d="M215 0h-117q-24 0 -41 17t-17 41q0 25 17 42t41 17h58v77h-58q-24 0 -41 17.5t-17 41.5v194q0 24 17 41.5t41 17.5h58v77h-58q-24 0 -41 17t-17 41q0 25 17 42t41 17h117q24 0 41 -17t17 -41v-195q0 -24 -17 -41t-41 -17h-59v-78h59q24 0 41 -17t17 -41v-195
q0 -24 -17 -41t-41 -17z" />
    <glyph glyph-name="b.066" horiz-adv-x="661" 
d="M570 0h-7q-22 0 -38 14t-20 36l-18 133q0 4 -1 8.5t-2.5 10t-2.5 8.5q-7 17 -24 31q-55 44 -199 50q-35 -118 -45 -238q-2 -23 -19 -38t-40 -15h-4q-23 2 -38 19t-15 39v5q8 106 39 224l-29 -3q-1 0 -4 -0.5t-5 -0.5q-21 0 -37 14t-20 36q0 1 -0.5 4t-0.5 5q0 21 14.5 37
t35.5 20l10 1q11 2 31.5 3.5t41.5 2.5q12 34 26.5 66.5t27.5 58.5t25 48.5t22.5 40t18.5 29.5t13.5 19.5t5.5 8.5q18 23 47 23t47 -23q15 -15 44.5 -65.5t72.5 -154t71 -216.5q6 -19 8 -39q13 -62 19 -139v-5q0 -22 -14.5 -38.5t-36.5 -19.5zM299 406q78 -6 129 -23
q-29 76 -69 149q-31 -56 -60 -126z" />
    <glyph glyph-name="b.077" 
d="M273 0q-96 0 -164.5 68.5t-68.5 164.5q0 25 17 42t41 17t41.5 -17t17.5 -42q0 -48 34 -82t82 -34q49 0 83 34t34 82q0 49 -34 83t-83 34h-116q-25 0 -42 17t-17 41v234q0 24 17 41t42 17h116q73 0 124 -51.5t51 -123.5q0 -59 -35 -105q94 -71 94 -187q0 -96 -68.5 -164.5
t-165.5 -68.5zM215 583v-116h64q22 2 37.5 19t15.5 39q0 24 -17.5 41t-41.5 17h-58z" />
    <glyph glyph-name="b.068" horiz-adv-x="780" 
d="M215 350q72 0 123.5 -51.5t51.5 -123.5q0 -73 -51.5 -124t-123.5 -51q-73 0 -124 51t-51 124q0 72 51 123.5t124 51.5zM215 117q24 0 41 17t17 41t-17 41t-41 17t-41 -17t-17 -41t17 -41t41 -17zM390 525q0 -73 -51.5 -124t-123.5 -51q-73 0 -124 51t-51 124
q0 72 51 123.5t124 51.5q72 0 123.5 -51.5t51.5 -123.5zM215 467q24 0 41 17t17 41t-17 41t-41 17t-41 -17t-17 -41t17 -41t41 -17zM565 350q72 0 123.5 -51.5t51.5 -123.5q0 -73 -51.5 -124t-123.5 -51q-73 0 -124 51t-51 124q0 72 51 123.5t124 51.5zM565 117q24 0 41 17
t17 41t-17 41t-41 17t-41 -17t-17 -41t17 -41t41 -17zM565 350q-73 0 -124 51t-51 124q0 72 51 123.5t124 51.5q72 0 123.5 -51.5t51.5 -123.5q0 -73 -51.5 -124t-123.5 -51zM565 583q-24 0 -41 -17t-17 -41t17 -41t41 -17t41 17t17 41t-17 41t-41 17z" />
    <glyph glyph-name="b.069" horiz-adv-x="926" 
d="M98 0q-24 0 -41 17t-17 41v584q0 37 33 52q12 6 25 6q19 0 37 -13l634 -507v462q0 24 17 41t41 17q25 0 42 -17t17 -41v-584q0 -36 -33 -52q-12 -6 -25 -6q-19 0 -37 13l-634 507v-462q0 -24 -17 -41t-42 -17z" />
    <glyph glyph-name="b.070" horiz-adv-x="489" 
d="M390 0q-145 0 -247 102q-103 105 -103 248q0 145 102.5 247.5t247.5 102.5q25 0 42 -17t17 -41q0 -25 -17 -42t-42 -17q-96 0 -164.5 -68t-68.5 -165t68 -165t165 -68q25 0 42 -17t17 -42q0 -24 -17 -41t-42 -17z" />
    <glyph glyph-name="b.071" 
d="M448 0h-350q-24 0 -41 17t-17 41q0 25 17 42t41 17h350q25 0 42 -17t17 -42q0 -24 -17 -41t-42 -17zM448 583h-350q-24 0 -41 17t-17 41q0 25 17 42t41 17h350q25 0 42 -17t17 -42q0 -24 -17 -41t-42 -17z" />
    <glyph glyph-name="b.072" horiz-adv-x="489" 
d="M99 0q-25 0 -42 17t-17 41q0 25 17 42t42 17q96 0 164.5 68t68.5 165t-68 165q-70 68 -165 68q-25 0 -42 17t-17 42q0 24 17 41t42 17q144 0 247 -103t103 -247q0 -145 -102.5 -247.5t-247.5 -102.5z" />
    <glyph glyph-name="b.088" horiz-adv-x="372" 
d="M273 350h-175q-24 0 -41 17t-17 41q0 25 17 42t41 17h175q24 0 41.5 -17t17.5 -42q0 -24 -17.5 -41t-41.5 -17zM273 0h-175q-24 0 -41 17t-17 41q0 25 17 42t41 17h175q24 0 41.5 -17t17.5 -42q0 -24 -17.5 -41t-41.5 -17z" />
    <glyph glyph-name="b.074" horiz-adv-x="926" 
d="M536 0h-438q-24 0 -41 17t-17 41v584q0 24 17 41t41 17h438q145 0 247.5 -102.5t102.5 -247.5t-102.5 -247.5t-247.5 -102.5zM157 583v-466h379q96 0 164.5 68t68.5 165t-68.5 165t-164.5 68h-379z" />
    <glyph glyph-name="b.075" horiz-adv-x="1655" 
d="M1265 0h-875q-145 0 -247.5 102.5t-102.5 247.5t102.5 247.5t247.5 102.5h875q145 0 247.5 -102.5t102.5 -247.5t-102.5 -247.5t-247.5 -102.5zM1265 583h-875q-97 0 -165 -68t-68 -165t68 -165t165 -68h875q97 0 165 68t68 165t-68 165t-165 68z" />
    <glyph glyph-name="b.059" horiz-adv-x="546" 
d="M448 583h-350q-24 0 -41 17t-17 41q0 25 17 42t41 17h350q24 0 41 -17t17 -42q0 -24 -17 -41t-41 -17zM448 292h-350q-24 0 -41 17t-17 41t17 41t41 17h350q24 0 41 -17t17 -41t-17 -41t-41 -17z" />
    <glyph glyph-name="b.067" horiz-adv-x="197" 
d="M98 117q24 0 41.5 -17t17.5 -42q0 -24 -17.5 -41t-41.5 -17t-41 17t-17 41q0 25 17 42t41 17zM98 -63q24 0 41.5 -17t17.5 -42q0 -24 -17.5 -41t-41.5 -17t-41 17t-17 41q0 25 17 42t41 17z" />
    <glyph glyph-name="b.078" horiz-adv-x="0" 
d="M559 0q-5 0 -8 1l-86 12q-31 5 -43 31q-6 12 -6 25q0 16 7 29l52 95l-141 -40q-10 -2 -15 -2q-30 0 -48 24q-11 16 -11 33q0 18 11 34l71 102l-128 -53q-12 -5 -23 -5q-25 0 -42 19q-15 17 -15 39q0 15 7 28l53 97l-81 -22q-10 -2 -15 -2q-24 0 -43 19q-15 16 -15 39
q0 10 3 19l49 139q14 39 55 39q10 0 19 -3q38 -14 38 -54q0 -11 -3 -20l-12 -35l106 28q10 2 15 2q27 0 46 -22q12 -15 12 -35q0 -15 -7 -28l-39 -72l158 67q12 5 22 5q28 0 45 -22q13 -16 13 -37q0 -18 -10 -32l-92 -133l118 33q9 3 17 3q27 0 44 -22q13 -16 13 -37
q0 -16 -7 -27l-79 -144h4q22 -4 35.5 -20.5t13.5 -37.5v-7q-4 -22 -20 -36t-38 -14z" />
    <glyph glyph-name="b.079" horiz-adv-x="546" 
d="M273 0q-24 0 -41 17t-17 41v350h-117q-24 0 -41 17t-17 42v175q0 24 17 41t41 17h175q24 0 41 -17t17 -41v-117h59v117q0 24 17 41t41 17t41 -17t17 -41v-175q0 -25 -17 -42t-41 -17h-117v-350q0 -24 -17 -41t-41 -17zM156 583v-58h59v58h-59z" />
    <glyph glyph-name="b.080" horiz-adv-x="604" 
d="M244 58q0 25 17 42t41 17t41 -17t17 -42q0 -24 -17 -41t-41 -17t-41 17t-17 41zM506 0q-18 0 -33.5 10.5t-21.5 28.5l-149 426l-149 -426q-15 -39 -56 -39q-9 0 -18 3q-39 15 -39 55q0 10 3 20l204 583q14 39 55 39t55 -39l204 -583q3 -10 3 -20q0 -40 -39 -55
q-9 -3 -19 -3z" />
    <glyph glyph-name="b.082" horiz-adv-x="867" 
d="M594 467q97 0 165 -68.5t68 -165.5q0 -96 -68 -164.5t-165 -68.5t-165 68.5t-68 164.5q0 64 31 117h-90v-292q0 -24 -17 -41t-41 -17t-41 17t-17 41v292h-88q-24 0 -41 17t-17 41q0 25 17 42t41 17h88v58q0 43 20 84q46 91 155 91q24 0 41 -17t17 -41q0 -25 -17 -42
t-41 -17q-38 0 -50 -26q-4 -7 -6 -15l-3 -12v-5v-58h292zM594 117q48 0 82.5 34t34.5 82q0 49 -34.5 83t-82.5 34t-82.5 -34t-34.5 -83q0 -48 34.5 -82t82.5 -34z" />
    <glyph glyph-name="b.076" horiz-adv-x="558" 
d="M159 228q-24 0 -41 17q-78 78 -78 188.5t78 188.5t188.5 78t188.5 -78q17 -17 17 -41.5t-17 -41.5t-41 -17t-41 17q-44 44 -106.5 44t-105.5 -44q-44 -43 -44 -105.5t44 -106.5q17 -17 17 -41t-17 -41t-42 -17zM251 0q-110 0 -188 78q-17 17 -17 41.5t17 41.5t41 17
t41 -17q44 -44 106.5 -44t105.5 44q44 43 44 105.5t-44 106.5q-17 17 -17 41t17 41t41.5 17t41.5 -17q78 -78 78 -188.5t-78 -188.5t-189 -78z" />
    <glyph glyph-name="b.083" horiz-adv-x="868" 
d="M769 467q24 0 41.5 -17t17.5 -42q0 -24 -17.5 -41t-41.5 -17h-87v-292q0 -24 -17 -41t-42 -17q-24 0 -41 17t-17 41v292h-90q32 -54 32 -117q0 -96 -68.5 -164.5t-165.5 -68.5q-96 0 -164.5 68.5t-68.5 164.5q0 97 68.5 165.5t164.5 68.5h292v175q0 24 17 41t41 17
q25 0 42 -17t17 -41v-175h87zM390 233q0 49 -34 83t-83 34q-48 0 -82 -34t-34 -83q0 -48 34 -82t82 -34q49 0 83 34t34 82z" />
    <glyph glyph-name="b.084" horiz-adv-x="867" 
d="M594 467q97 0 165 -68.5t68 -165.5q0 -96 -68 -164.5t-165 -68.5t-165 68.5t-68 164.5q0 64 31 117h-90v-292q0 -24 -17 -41t-41 -17t-41 17t-17 41v292h-88q-24 0 -41 17t-17 41q0 25 17 42t41 17h88v175q0 24 17 41t41 17t41 -17t17 -41v-175h292zM594 117
q48 0 82.5 34t34.5 82q0 49 -34.5 83t-82.5 34t-82.5 -34t-34.5 -83q0 -48 34.5 -82t82.5 -34z" />
    <glyph glyph-name="b.086" horiz-adv-x="722" 
d="M624 467q24 0 41 -17t17 -42q0 -24 -17 -41t-41 -17h-59v-292q0 -24 -17 -41t-41 -17t-41 17t-17 41v292h-223q-41 0 -51 -16q0 -14 43 -26q19 -4 40 -11.5t53 -23.5t54 -43.5t25 -61.5v-11q0 -56 -39 -98q-54 -59 -147 -59q-50 0 -91.5 21.5t-64.5 59.5q-8 14 -8 30
q0 33 28 50q16 8 30 8q33 0 50 -28q14 -24 56 -24q43 0 61 21q9 9 9 19q-6 8 -31.5 20t-49.5 17q-3 0 -4 1q-62 17 -94 49q-37 37 -37 91q0 56 48 94t120 38h223v175q0 24 17 41t41 17t41 -17t17 -41v-175h59z" />
    <glyph glyph-name="b.081" horiz-adv-x="867" 
d="M769 467q24 0 41 -17t17 -42q0 -24 -17 -41t-41 -17h-88v-292q0 -24 -17 -41t-41 -17t-41 17t-17 41v292h-90q31 -53 31 -117q0 -96 -68 -164.5t-165 -68.5t-165 68.5t-68 164.5q0 97 68 165.5t165 68.5h292v58q0 43 20 84q46 91 155 91q24 0 41 -17t17 -41
q0 -25 -17 -42t-41 -17q-38 0 -50 -26q-4 -7 -6 -15t-2 -12l-1 -5v-58h88zM390 233q0 49 -34.5 83t-82.5 34t-82.5 -34t-34.5 -83q0 -48 34.5 -82t82.5 -34t82.5 34t34.5 82z" />
    <glyph glyph-name="b.085" horiz-adv-x="774" 
d="M676 467q24 0 41 -17t17 -42q0 -24 -17 -41t-41 -17h-88v-292q0 -24 -17 -41t-41 -17t-41 17t-17 41v292h-59v-169q0 -45 -22 -88q-50 -93 -164 -93q-116 0 -164 93q-23 43 -23 88v227q0 25 17 42t41 17q25 0 42 -17t17 -42v-227q0 -18 10 -37q17 -27 60 -27q45 0 60 30
q4 7 6.5 15.5t2.5 13.5l1 5v227q0 25 17 42t41 17h117v175q0 24 17 41t41 17t41 -17t17 -41v-175h88z" />
    <glyph glyph-name="Z.004" horiz-adv-x="1246" 
d="M856 0h-758q-34 0 -51 30q-7 13 -7 28q0 18 8 30l297 495h-247q-24 0 -41 17t-17 42q0 24 17 41t41 17h350q34 0 51 -30q7 -13 7 -28q0 -18 -8 -30l-297 -495h655q97 0 165 68q69 69 69 165t-69 165q-68 68 -165 68q-96 0 -164.5 -68t-68.5 -165q0 -46 16 -85q4 -9 4 -21
q0 -18 -10 -32.5t-27 -21.5q-9 -4 -21 -4q-18 0 -33 10t-22 27q-24 61 -24 127q0 145 102.5 247.5t247.5 102.5q147 0 248 -103q102 -102 102 -247q0 -144 -102 -248q-102 -102 -248 -102z" />
    <glyph glyph-name="Z.006" horiz-adv-x="546" 
d="M448 700q24 0 41 -17t17 -41v-584q0 -24 -17 -41t-41 -17t-41 17t-17 41v95l-234 93v-188q0 -24 -17 -41t-41 -17t-41 17t-17 41v584q0 24 17 41t41 17t41 -17t17 -41v-95l234 -93v188q0 24 17 41t41 17zM156 372l234 -93v49l-234 93v-49z" />
    <glyph glyph-name="Z.003" horiz-adv-x="1246" 
d="M390 700h758q34 0 51 -30q7 -13 7 -28q0 -18 -8 -30l-297 -495h247q24 0 41 -17t17 -42q0 -24 -17 -41t-41 -17h-350q-34 0 -51 30q-7 13 -7 28q0 18 8 30l297 495h-655q-97 0 -165 -68q-69 -69 -69 -165t69 -165q68 -68 165 -68q96 0 164.5 68t68.5 165q0 46 -16 85
q-4 9 -4 21q0 18 10 32.5t27 21.5q9 4 21 4q18 0 33 -10t22 -27q24 -62 24 -127q0 -145 -102.5 -247.5t-247.5 -102.5q-147 0 -248 103q-102 102 -102 247q0 144 102 248q102 102 248 102z" />
    <glyph glyph-name="Z.001" 
d="M448 0h-350q-24 0 -41 17t-17 42q0 17 8 29l297 495h-247q-24 0 -41 17t-17 41q0 25 17 42t41 17h350q23 0 40.5 -17t17.5 -41q0 -18 -8 -30l-297 -495h247q24 0 41.5 -17t17.5 -42q0 -24 -17.5 -41t-41.5 -17z" />
    <glyph glyph-name="Z.005" horiz-adv-x="488" 
d="M447 122l1 -64q0 -23 -17 -40.5t-41 -17.5q-37 0 -52 32q-32 -16 -69 -24q-56 -7 -63 -7q-64 0 -106.5 31t-55.5 88q-4 15 -4 33q0 43 26 77q50 65 179 70q7 0 22 0.5t22 0.5q24 0 38 -2q-6 30 -20 39q-22 12 -50 12q-55 0 -97 -34q-16 -13 -37 -13q-27 0 -45 21
q-13 16 -13 37q0 29 21 45q62 52 143 59q9 1 26 1q62 0 109 -26q36 -20 56.5 -60.5t23.5 -62.5t3 -38v-157zM318 170l5 12q-14 2 -34 2q-27 0 -51 -1q-63 -3 -79 -23q-3 -6 -3 -8v-2q1 -2 1 -3q2 -9 4.5 -13.5t14 -10t30.5 -5.5q18 0 38 4q2 1 4 1q49 9 70 47z" />
    <glyph glyph-name="afii10024" horiz-adv-x="662" 
d="M586 696q36 -14 36 -54q0 -13 -4 -22l-108 -270l108 -270q4 -9 4 -22q0 -40 -36 -54q-9 -4 -22 -4q-18 0 -32.5 10t-21.5 27l-102 255h-19v-234q0 -24 -17 -41t-41 -17t-41 17t-17 41v234h-19l-102 -255q-7 -17 -22 -27t-33 -10q-12 0 -21 4q-36 14 -36 54q0 13 4 22
l108 270l-108 270q-4 9 -4 22q0 40 36 54q9 4 21 4q18 0 33 -10t22 -27l102 -255h19v234q0 24 17 41t41 17t41 -17t17 -41v-234h19l102 255q7 17 22 27t33 10q12 0 21 -4z" />
    <glyph glyph-name="afii10072" horiz-adv-x="538" 
d="M492 84q6 -12 6 -25q0 -37 -33 -53q-12 -6 -25 -6q-37 0 -53 33l-59 122v-97q0 -24 -17 -41t-41 -17t-41 17t-17 41v94l-58 -119q-16 -33 -53 -33q-13 0 -25 6q-33 16 -33 53q0 13 6 25l71 146l-74 153q-6 12 -6 25q0 37 33 53q12 6 25 6q37 0 53 -33l61 -126v100
q0 25 17 42t41 17t41 -17t17 -42v-90l56 116q16 33 53 33q13 0 25 -6q33 -16 33 -53q0 -13 -6 -25l-71 -146z" />
    <glyph glyph-name="afii10074" horiz-adv-x="488" 
d="M98 467q24 0 41 -17t17 -42v-188l189 226q18 21 44 21q12 0 21 -4q17 -6 27.5 -21t10.5 -34v-350q0 -24 -17 -41t-41 -17q-25 0 -42 17t-17 41v189l-188 -226q-18 -21 -44 -21q-12 0 -21 4q-17 6 -27.5 21t-10.5 33v350q0 25 17 42t41 17z" />
    <glyph glyph-name="afii10026" horiz-adv-x="605" 
d="M98 0q-24 0 -41 17.5t-17 40.5v584q0 24 17 41t41 17q25 0 42 -17t17 -41v-399l302 432q17 25 47 25q25 0 42 -17.5t17 -40.5v-584q0 -24 -17 -41t-41 -17t-41.5 17t-17.5 41v399l-302 -432q-17 -25 -48 -25z" />
    <glyph glyph-name="afii10025" horiz-adv-x="488" 
d="M244 0q-85 0 -144.5 60t-59.5 144q0 24 17 41t41 17t41 -17t17 -41q0 -36 26 -61.5t62 -25.5t61.5 25.5t25.5 61.5t-25.5 62t-61.5 26q-24 0 -41 17t-17 41t17 41t41 17q36 0 61.5 26t25.5 62t-25.5 61.5t-61.5 25.5t-62 -25.5t-26 -61.5q0 -24 -17 -41.5t-41 -17.5
t-41 17.5t-17 41.5q0 84 59.5 144t144.5 60t144.5 -60t59.5 -144q0 -87 -61 -146q61 -59 61 -146q0 -84 -59.5 -144t-144.5 -60z" />
    <glyph glyph-name="afii10049" horiz-adv-x="532" 
d="M49 89l107 172q-57 31 -88 92q-28 56 -28 114q0 145 121 205q57 28 114 28h159q24 0 41 -17t17 -41v-584q0 -24 -17 -41t-41 -17t-41.5 17t-17.5 41v175h-98l-129 -206q-17 -27 -50 -27q-16 0 -30 9q-28 17 -28 49q0 16 9 31zM375 350v233h-100q-32 0 -62 -15
q-56 -28 -56 -101q0 -32 17 -64q28 -53 101 -53h100z" />
    <glyph glyph-name="b.073" horiz-adv-x="546" 
d="M448 0h-350q-24 0 -41 17t-17 41q0 25 17 42t41 17h350q24 0 41 -17t17 -42q0 -24 -17 -41t-41 -17zM448 583h-350q-24 0 -41 17t-17 41q0 25 17 42t41 17h350q24 0 41 -17t17 -42q0 -24 -17 -41t-41 -17zM448 292h-350q-24 0 -41 17t-17 41t17 41t41 17h350q24 0 41 -17
t17 -41t-17 -41t-41 -17z" />
    <glyph glyph-name="b.087" horiz-adv-x="372" 
d="M273 0q-96 0 -164.5 68.5t-68.5 164.5q0 97 68.5 165.5t164.5 68.5q25 0 42 -17t17 -42q0 -24 -17 -41t-42 -17q-48 0 -82 -34t-34 -83q0 -48 34 -82t82 -34q25 0 42 -17t17 -42q0 -24 -17 -41t-42 -17z" />
    <glyph glyph-name="b.091" horiz-adv-x="1568" 
d="M211 584h11q20 -3 34 -17l117 -117q17 -19 17 -41q0 -24 -17 -41t-41 -17q-25 0 -41 17l-17 17v-151h1195q24 0 41.5 -17t17.5 -42q0 -24 -17.5 -41t-41.5 -17h-1254q-24 0 -41 17t-17 42v209l-17 -17q-17 -17 -42 -17t-41 17q-17 16 -17 41q0 24 17 41l120 120
q16 12 34 14z" />
    <glyph glyph-name="b.089" horiz-adv-x="372" 
d="M99 0q-25 0 -42 17t-17 41q0 25 17 42t42 17q48 0 82 34t34 82q0 49 -34 83t-82 34q-25 0 -42 17t-17 41q0 25 17 42t42 17q96 0 164.5 -68.5t68.5 -165.5q0 -96 -68.5 -164.5t-164.5 -68.5z" />
    <glyph glyph-name="b.090" horiz-adv-x="1567" 
d="M1353 116q-2 0 -4 0.5t-3 0.5q-20 1 -35 17l-116 116q-17 16 -17 41t17 42q16 16 41 16q24 0 41 -16l17 -17v151h-1196q-24 0 -41 17t-17 41q0 25 17 42t41 17h1255q24 0 41 -17.5t17 -41.5v-209l17 17q16 16 41 16t42 -16q16 -16 16 -41t-17 -42l-116 -116q-1 -3 -4 -4
q-13 -11 -33 -13q-2 -1 -4 -1z" />
    <glyph glyph-name="talt.101" 
d="M448 700q24 0 41.5 -17t17.5 -41v-117q0 -29 -25 -47q-14 -11 -34 -11q-9 0 -18 3l-98 32v-444q0 -24 -17.5 -41t-41.5 -17t-41 17t-17 41v483l-135 45q-23 7 -34 29t-3 45q7 23 29 34t45 3l273 -91v36q0 24 17 41t41 17z" />
    <glyph glyph-name="talt.106" horiz-adv-x="459" 
d="M418 205v-8q1 -3 1 -7q0 -79 -55.5 -134.5t-134.5 -55.5q-78 0 -133.5 55.5t-55.5 134.5q0 24 17 41t41 17t41 -17t17 -41q0 -31 21.5 -52t51.5 -21q28 0 49.5 19t23.5 47l-248 289q-14 17 -14 38q0 79 55.5 134.5t133.5 55.5q25 0 42 -17t17 -41q0 -25 -17 -42t-42 -17
t-44.5 -15.5t-25.5 -38.5l246 -287q13 -16 13 -37z" />
    <glyph glyph-name="talt.100" 
d="M449 700q24 0 41 -17t17 -41v-88q0 -24 -17 -41t-41 -17q-25 0 -42 17t-17 41v29h-58v-172h117q24 0 41 -17t17 -41v-87q0 -25 -17 -42t-41 -17q-25 0 -42 17t-17 42v29h-58v-237q0 -24 -17 -41t-41 -17q-25 0 -42 17t-17 41v237h-58v-29q0 -25 -17 -42t-41 -17
q-25 0 -42 17t-17 42v87q0 24 17 41t42 17h116v172h-58v-29q0 -24 -17 -41t-41 -17q-25 0 -42 17t-17 41v88q0 24 17 41t42 17h350z" />
    <glyph glyph-name="talt.107" horiz-adv-x="896" 
d="M83 698q10 2 15 2q34 0 50 -28l242 -403v373q0 20 12 35.5t31 20.5q10 2 15 2q34 0 50 -28l350 -584q8 -12 8 -30q0 -15 -7 -28q-17 -30 -51 -30h-700q-24 0 -41 17t-17 41v584q0 20 12 35.5t31 20.5zM506 431v-314h189zM156 431v-314h189z" />
    <glyph glyph-name="talt.104" horiz-adv-x="430" 
d="M331 700q24 0 41.5 -17t17.5 -41q0 -25 -17.5 -42t-41.5 -17h-58v-525q0 -24 -17 -41t-41 -17q-25 0 -42 17t-17 41v525h-58q-24 0 -41 17t-17 42q0 24 17 41t41 17h233z" />
    <glyph glyph-name="talt.109" horiz-adv-x="429" 
d="M214 0q-62 0 -109.5 31.5t-60.5 81.5q-2 10 -2 15q0 20 12 35.5t31 20.5q5 2 16 2q19 0 35 -12t21 -31q3 -9 19 -17.5t38 -8.5q25 0 42 9.5t17 19.5q0 8 -79 32q-154 40 -154 143q0 65 57 108q49 37 117 37q62 0 110 -31.5t61 -81.5q2 -10 2 -15q0 -20 -12 -35.5
t-31 -20.5q-5 -2 -16 -2q-19 0 -35 12t-21 31q-3 9 -19 18t-39 9q-25 0 -41.5 -10t-16.5 -19q0 -3 7 -7t18 -8t21 -7t20.5 -6t12.5 -4q154 -39 154 -143q0 -65 -57 -109q-49 -37 -118 -37z" />
    <glyph glyph-name="talt.105" horiz-adv-x="488" 
d="M329 310l113 -226q6 -12 6 -26q0 -34 -32 -52q-12 -6 -26 -6q-37 0 -52 32l-146 292q-7 16 -7 27q0 17 9 30q17 27 50 27q23 0 49 14q39 21 39 74q0 54 -41 75q-10 5 -22 8t-19 3l-6 1h-87v-525q0 -24 -17 -41t-42 -17q-24 0 -41 17t-17 41v584q0 24 17 41t41 17h146
q50 0 99 -24q105 -52 105 -180t-105 -180z" />
    <glyph glyph-name="talt.111" 
d="M465 697q23 -7 34.5 -28t4.5 -44l-175 -583q-5 -19 -20.5 -30.5t-35.5 -11.5q-19 0 -34.5 11.5t-21.5 30.5l-174 583q-7 23 4.5 44t34.5 28q22 7 43.5 -4.5t28.5 -34.5l61 -202v185q0 25 17 42t41 17q25 0 42 -17t17 -42v-185l60 202q8 23 29 34.5t44 4.5z" />
    <glyph glyph-name="talt.108" horiz-adv-x="488" 
d="M244 0q-73 0 -129.5 46t-70.5 117q-1 4 -1 12q0 21 13 37t33 20q4 1 11 1q21 0 37.5 -13t20.5 -34q6 -30 30.5 -49.5t55.5 -19.5q36 0 61.5 25.5t25.5 61.5q0 27 -19.5 47.5t-85.5 42.5l-8 3q-24 8 -42 15.5t-45.5 24.5t-45.5 37t-31.5 52t-13.5 70q0 84 59.5 144
t144.5 60q72 0 129 -46.5t71 -116.5q1 -4 1 -11q0 -21 -13 -37.5t-34 -20.5q-4 -1 -11 -1q-20 0 -37 13t-21 33q-6 31 -30 50.5t-55 19.5q-36 0 -61.5 -25.5t-25.5 -61.5q0 -18 5 -30t29.5 -28.5t70.5 -31.5l8 -3q24 -8 42 -15.5t45.5 -24.5t45.5 -37t31.5 -52t13.5 -70
q0 -85 -60 -144.5t-144 -59.5z" />
    <glyph glyph-name="talt.112" horiz-adv-x="548" 
d="M475 460q22 -11 29.5 -33.5t-3.5 -44.5l-175 -350q-16 -32 -52 -32t-52 32l-175 350q-11 22 -3.5 45t29.5 33q22 11 44.5 3.5t33.5 -29.5l65 -129v103q0 24 17 41t41 17t41 -17t17 -41v-103l65 129q11 22 33.5 29.5t44.5 -3.5z" />
    <glyph glyph-name="talt.113" horiz-adv-x="598" 
d="M500 690q24 0 41 -16.5t17 -40.5v-575q0 -43 -40 -55q-9 -3 -18 -3q-30 0 -47 25l-125 179v-147q0 -23 -17 -40t-41 -17t-40.5 17t-16.5 40v311l-58 82v-392q0 -24 -17 -41t-40 -17q-24 0 -41 17t-17 41v575q0 19 11 34t29 21q5 2 16 2q30 0 49 -24l68 -97v64
q0 23 16.5 40t40.5 17t41 -17t17 -40v-229l115 -164v393q0 24 17 40.5t40 16.5z" />
    <glyph glyph-name="talt.110" horiz-adv-x="489" 
d="M441 670q12 -21 5.5 -44.5t-27.5 -34.5l-171 -95l171 -95q30 -17 30 -51t-30 -51l-171 -95l171 -95q21 -11 27.5 -34.5t-5.5 -44.5q-16 -30 -51 -30q-15 0 -28 7l-205 114v-63q0 -24 -17 -41t-41 -17t-41.5 17t-17.5 41v583q0 25 17.5 42t41.5 17t41 -17t17 -42v-62
l205 114q21 11 44.5 4.5t34.5 -27.5zM270 350l-113 63v-126z" />
    <glyph glyph-name="Pi.001" horiz-adv-x="483" 
d="M385 575h-57v-172q23 0 40 -17t17 -41t-17 -40.5t-40 -16.5v-173h57q24 0 41 -17t17 -41q0 -23 -17 -40t-41 -17h-287q-24 0 -41 17t-17 40v576q0 23 17 40t41 17h287q24 0 41 -17t17 -40q0 -24 -17 -41t-41 -17zM213 575h-58v-172h58v172zM155 115h58v173h-58v-173z" />
    <glyph glyph-name="Pi.002" horiz-adv-x="656" 
d="M603 381q12 -17 12 -36q0 -21 -12 -36l-87 -108l87 -107q13 -16 13 -36q0 -28 -22 -45q-16 -13 -36 -13q-26 0 -45 22l-70 87l-70 -87q-17 -22 -45 -22t-45 22l-70 87l-71 -87q-16 -22 -44 -22q-22 0 -36 13q-22 17 -22 45q0 20 13 36l86 107l-86 108q-13 14 -13 36
q0 20 13 36l86 108l-86 108q-13 16 -13 36q0 28 22 45q15 12 35 12q27 0 45 -21l71 -88l70 88q18 21 45 21t45 -21l70 -88l70 88q17 22 45 22q20 0 36 -13q22 -17 22 -45q0 -20 -13 -36l-87 -108zM328 541l-42 -52l42 -52l41 52zM171 345l42 -52l41 52l-41 52zM328 150
l41 51l-41 52l-42 -52zM401 345l42 -52l41 52l-41 52z" />
    <glyph glyph-name="Pi.003" horiz-adv-x="656" 
d="M603 381q13 -18 13 -36q0 -20 -13 -36l-82 -103l82 -103q13 -16 13 -36q0 -28 -22 -45q-16 -12 -36 -12q-27 0 -45 21l-66 83l-74 -92q-16 -22 -45 -22q-20 0 -36 13q-22 17 -22 45q0 20 13 36l90 112l-41 52l-189 -236q-18 -22 -45 -22q-20 0 -36 13q-22 17 -22 45
q0 20 13 36l205 256l-205 256q-13 16 -13 36q0 28 22 45q16 13 36 13q28 0 45 -22l189 -236l37 47l-86 108q-13 16 -13 36q0 28 22 45q16 13 36 13q28 0 45 -22l70 -88l70 88q17 22 45 22q20 0 36 -13q22 -17 22 -45q0 -20 -13 -36l-86 -108zM406 350l41 -52l37 47l-41 52z
" />
    <glyph glyph-name="Pi.004" horiz-adv-x="885" 
d="M804 688q18 -5 29.5 -21t11.5 -35q0 -11 -2 -16l-173 -575q-5 -18 -20.5 -29.5t-34.5 -11.5t-34.5 11.5t-20.5 29.5l-29 96l-34 -98q-14 -39 -55 -39q-18 0 -33 11t-21 28l-34 98l-29 -96q-5 -18 -20.5 -29.5t-34.5 -11.5t-34.5 11.5t-20.5 29.5l-173 575q-2 6 -2 17
q0 19 11.5 34.5t29.5 20.5q5 2 16 2q19 0 34.5 -11.5t20.5 -29.5l118 -391l19 64l-102 292q-3 9 -3 19q0 41 38 54q9 3 19 3q41 0 54 -38l50 -143l42 140q6 19 21 30t34 11q20 0 35 -11t20 -30l42 -140l50 143q14 38 54 38q11 0 20 -3q38 -13 38 -54q0 -10 -3 -19l-102 -292
l19 -64l117 391q6 19 21.5 30t34.5 11q11 0 16 -2zM442 232l33 92l-33 109l-32 -109z" />
    <glyph glyph-name="Pi.005" horiz-adv-x="540" 
d="M442 403h-115v-58h115q24 0 41 -17t17 -40q0 -24 -17 -41t-41 -17h-115v-173q0 -23 -17 -40t-40 -17q-24 0 -41 17t-17 40v173h-115q-24 0 -40.5 17t-16.5 41q0 23 16.5 40t40.5 17h115v58h-115q-24 0 -40.5 16.5t-16.5 40.5t16.5 41t40.5 17h115v57h-115q-24 0 -40.5 17
t-16.5 41q0 23 16.5 40t40.5 17h345q24 0 41 -17t17 -40q0 -24 -17 -41t-41 -17h-115v-57h115q24 0 41 -17t17 -41t-17 -40.5t-41 -16.5z" />
    <glyph glyph-name="alt.0.002" horiz-adv-x="898" 
d="M449 700q33 0 50 -28l350 -584q9 -14 9 -30q0 -32 -29 -50q-14 -8 -30 -8q-33 0 -50 28l-242 403v-373q0 -20 -12 -35.5t-31 -20.5q-10 -2 -15 -2q-34 0 -50 28l-242 403v-373q0 -24 -17 -41t-42 -17q-24 0 -41 17t-17 41v584q0 19 12 35t31 21q10 2 15 2q35 0 51 -28
l241 -403v373q0 19 12 35t31 21q10 2 16 2z" />
    <glyph glyph-name="Pi.006" horiz-adv-x="605" 
d="M507 0q-24 0 -41 17t-17 41v457l-108 -93q-17 -14 -38 -14t-38 14l-108 93v-457q0 -24 -17 -41t-41 -17t-41.5 17t-17.5 41v584q0 36 34 53q13 5 24 5q22 0 39 -14l166 -143l166 143q17 14 38 14q11 0 24 -5q34 -16 34 -53v-584q0 -24 -17 -41t-41 -17z" />
    <glyph glyph-name="alt.002" horiz-adv-x="756" 
d="M583 396q76 0 112 -55q21 -30 21 -70q0 -15 -3 -30q-14 -81 -75 -139t-133 -83q-54 -19 -114 -19q-140 0 -240 94q-53 50 -82 118t-29 140q0 46 12 91q26 94 99.5 162t170.5 88q33 6 66 6q82 0 156 -36.5t124 -101.5q12 -15 12 -35q0 -29 -23 -46q-15 -12 -35 -12
q-29 0 -46 23q-34 43 -83 67.5t-103 24.5q-21 0 -46 -5q-64 -13 -113 -58t-66 -108q-8 -27 -8 -61q0 -103 74 -172q66 -63 161 -63q36 0 75 13q47 16 85 52t46 80q1 4 1 10v4q-4 4 -12 4q-15 -1 -33 -15t-27 -32q-16 -33 -53 -33q-13 0 -25 6q-29 15 -29 41q0 6 1.5 19
t1.5 20q21 42 64.5 75.5t95.5 35.5z" />
    <glyph glyph-name="alt.019" horiz-adv-x="750" 
d="M477 700q145 0 206 -120q27 -54 27 -113v-409q0 -24 -17 -41t-41 -17t-41 17t-17 41v408q0 33 -17 65q-27 52 -100 52q-75 0 -105 -25q-16 -15 -33 -50q52 -67 81 -155q29 -89 29 -192v-17q-2 -54 -38.5 -99t-108.5 -45q-82 0 -128.5 61t-46.5 143q0 131 65 260l10 21
q-52 46 -124 73q-38 14 -38 54q0 11 3 20q15 39 55 39q6 0 20 -4q75 -27 135 -73q31 50 82.5 78t141.5 28zM331 146v5v18q0 79 -24 152q-11 34 -25 61q-38 -86 -38 -178q0 -4 0.5 -10.5t3.5 -21t8.5 -26t17.5 -20.5t28 -9q14 0 24 10q5 9 5 19z" />
    <glyph glyph-name="alt.0.036" horiz-adv-x="546" 
d="M501 82q5 -13 5 -24q0 -37 -34 -53q-13 -5 -24 -5q-37 0 -53 34l-116 258h-123v-234q0 -24 -17 -41t-41 -17t-41 17t-17 41v584q0 24 17 41t41 17h204q50 0 99 -24q105 -52 105 -180t-105 -180l-4 -2zM349 571q-10 5 -22 8t-19 3l-6 1h-26l75 -161q39 21 39 74
q0 54 -41 75zM156 408h71l-71 156v-156z" />
    <glyph glyph-name="alt.0.006" horiz-adv-x="546" 
d="M374 413l119 -142q13 -16 13 -38q0 -21 -13 -37l-146 -175q-18 -21 -44 -21q-21 0 -38 14q-21 16 -21 45q0 21 13 37l115 137l-115 138q-13 14 -13 37q0 17 9 31l90 144h-187v-525q0 -24 -17 -41t-41 -17t-41 17t-17 41v584q0 24 17 41t41 17h350q34 0 51 -30
q7 -13 7 -28q0 -18 -9 -31z" />
    <glyph glyph-name="SS.007" horiz-adv-x="664" 
d="M565 350q24 0 41.5 -17t17.5 -42q0 -24 -17.5 -41t-41.5 -17h-175v-58q0 -43 -20 -84q-46 -91 -155 -91t-154 91q-21 41 -21 84t21 84q45 91 154 91h59v291q0 25 17 42t41 17t41 -17t17 -42v-291h175zM274 175v58h-59q-36 0 -48 -24q-10 -16 -10 -34t10 -34
q12 -24 48 -24q38 0 50 26q4 7 6 15l3 12v5z" />
    <glyph glyph-name="alt.025" horiz-adv-x="780" 
d="M390 700q145 0 247.5 -102.5t102.5 -247.5t-102.5 -247.5t-247.5 -102.5t-247.5 102.5t-102.5 247.5q0 78 31 144q16 34 53 34q11 0 24 -5q34 -16 34 -53q0 -11 -5 -24q-20 -46 -20 -96q0 -97 68 -165t165 -68t165 68t68 165t-68 165t-165 68q-12 0 -34 -2
q-18 -4 -34 -12q-23 -10 -27 -19v-1q2 -9 11 -13q17 -10 43 -10q14 0 26 4q9 3 19 3q42 0 56 -39q3 -9 3 -20q0 -18 -10.5 -33t-28.5 -21q-28 -11 -66 -11q-56 0 -100 25q-56 32 -68 93q-2 8 -2 24q0 74 80 117q55 28 78 28q36 4 54 4z" />
    <glyph glyph-name="alt.0.009" 
d="M464 698q19 -5 31 -20.5t12 -35.5v-584q0 -24 -17 -41t-41 -17h-88q-24 0 -41 17t-17 41q0 25 17 42t41 17h30v314l-242 -403q-17 -28 -50 -28q-16 0 -30 8q-29 18 -29 50q0 16 9 30l350 584q16 28 50 28q5 0 15 -2z" />
    <glyph glyph-name="alt.0.010" horiz-adv-x="546" 
d="M448 117q24 0 41 -17t17 -42q0 -24 -17 -41t-41 -17h-350q-24 0 -41 17t-17 41q0 25 17 42t41 17h117v466h-117q-24 0 -41 17t-17 42q0 24 17 41t41 17h350q24 0 41 -17t17 -41q0 -25 -17 -42t-41 -17h-117v-466h117z" />
    <glyph glyph-name="alt.0.011" horiz-adv-x="488" 
d="M390 117q24 0 41 -17t17 -42q0 -24 -17 -41t-41 -17h-292q-24 0 -41 17t-17 41q0 25 17 42t41 17h87v438l-66 -26q-9 -4 -21 -4q-18 0 -32.5 10t-21.5 27q-4 9 -4 22q0 39 36 53l146 59q9 4 22 4q18 0 32 -10q26 -18 26 -48v-525h88z" />
    <glyph glyph-name="alt.0.012" horiz-adv-x="343" 
d="M278 690q25 -17 25 -48v-584q0 -24 -17 -41t-41 -17t-41 17t-17 41v497l-66 -26q-22 -9 -44.5 0.5t-31.5 32.5q-9 22 0.5 44t32.5 31l145 59q30 11 55 -6z" />
    <glyph glyph-name="alt.0.015" horiz-adv-x="898" 
d="M449 0q-6 0 -16 2q-19 5 -31 21t-12 35v373l-241 -403q-16 -28 -51 -28q-5 0 -15 2q-19 5 -31 21t-12 35v584q0 24 17 41t41 17q25 0 42 -17t17 -41v-373l242 403q16 28 50 28q5 0 15 -2q19 -5 31 -20.5t12 -35.5v-373l242 403q17 28 50 28q16 0 30 -8q29 -18 29 -50
q0 -16 -9 -30l-350 -584q-17 -28 -50 -28z" />
    <glyph glyph-name="alt.0.003" horiz-adv-x="546" 
d="M483 338q23 -17 23 -47q0 -20 -11 -34l-175 -234q-18 -23 -47 -23t-47 23l-175 234q-11 14 -11 34q0 30 23 47q16 12 36 12q29 0 46 -23l128 -171l128 171q18 23 47 23q19 0 35 -12zM483 688q23 -17 23 -47q0 -20 -11 -34l-175 -234q-18 -23 -47 -23t-47 23l-175 234
q-11 14 -11 34q0 30 23 47q17 12 36 12q29 0 46 -23l128 -172l128 172q18 23 47 23q19 0 35 -12z" />
    <glyph glyph-name="alt.0.013" horiz-adv-x="430" 
d="M362 691q28 -16 28 -49v-584q0 -24 -17 -41t-41 -17t-41 17t-17 41v474q-117 -100 -117 -211q0 -24 -17 -41t-41 -17t-41.5 17t-17.5 41q0 48 15 95t35 81t52 68.5t54 53.5t53.5 40t37.5 24.5t19 10.5q29 14 56 -3z" />
    <glyph glyph-name="alt.022" horiz-adv-x="521" 
d="M417 470q64 -45 64 -127v-12q-5 -84 -77 -121q-34 -18 -85 -18q-82 0 -130 45q-17 15 -28 32q-5 -17 -5 -30q0 -19 9 -34q53 -88 242 -88q24 0 41 -17t17 -42q0 -24 -17 -41t-41 -17q-43 0 -84.5 5.5t-92 19.5t-94.5 45t-71 75q-25 40 -25 93q0 32 9 63q18 60 63 113
q-1 9 -1 27q0 30 6 54q19 81 94 139q30 24 87 45t109 21q24 0 41 -17t17 -41q0 -25 -17 -42t-41 -17q-30 0 -68.5 -14t-55.5 -27q-27 -21 -40 -44q25 8 58 8q62 0 116 -36zM365 338v3q0 21 -14 32q-26 16 -52 16q-29 0 -59 -18q12 -33 28 -48q16 -14 51 -14q20 0 32 6
q12 5 14 23z" />
    <glyph glyph-name="alt.0.018" horiz-adv-x="1091" 
d="M3294 -472q19 -5 30.5 -21t11.5 -35q0 -11 -2 -16q-36 -131 -145 -254q-134 -151 -323 -211q-111 -35 -231 -35q-139 0 -289 45q-327 98 -703 407q-428 353 -743 514q0 -125 -31 -242q-39 -144 -120.5 -232.5t-199.5 -114.5q-41 -9 -83 -9q-96 0 -184.5 43.5
t-151.5 122.5q-90 114 -90 253q0 92 43 184q91 192 280 234q50 11 103 11q141 0 318 -69v481h-119q-24 0 -41 17t-17 41t17 41t41 17h348q24 0 41 -17t17 -41t-17 -41t-41 -17h-113v-532q346 -166 817 -555q357 -293 662 -385q133 -40 257 -40q102 0 195 29q87 28 160 78.5
t119 108t73.5 107.5t39.5 92q5 19 20.5 31t35.5 12q5 0 15 -2zM524 -554q75 16 128.5 69.5t80.5 129t39 149.5t12 152v31q-182 79 -316 79q-42 0 -80 -8q-133 -30 -200 -171q-32 -67 -32 -134q0 -99 65 -181q46 -58 111 -90t134 -32q30 0 58 6z" />
    <glyph glyph-name="alt.0.019" horiz-adv-x="1220" 
d="M3294 -472q19 -5 30.5 -21t11.5 -35q0 -11 -2 -16q-36 -131 -145 -254q-134 -151 -323 -211q-111 -35 -231 -35q-139 0 -289 45q-327 98 -703 407q-427 353 -747 517q-3 -122 -40 -250q-41 -145 -119.5 -232.5t-187.5 -109.5q-36 -8 -81 -8q-97 0 -187 44t-153 124
q-70 89 -85 199q-3 26 -3 51q0 95 43 184q91 192 280 234q50 11 103 11q138 0 315 -68v538q0 24 17 41t41 17h290q24 0 41 -17t17 -41t-17 -41t-41 -17h-232v-174h145q24 0 41 -17t17 -41t-17 -41t-41 -17h-145v-240q342 -164 820 -557q357 -293 662 -385q133 -40 257 -40
q102 0 195 29q87 28 160 78.5t119 108t73.5 107.5t39.5 92q5 19 20.5 31t35.5 12q5 0 15 -2zM781 -54v33q-183 77 -313 77q-40 0 -80 -8q-133 -30 -200 -171q-32 -67 -32 -135q0 -98 63 -178q46 -58 112.5 -91t136.5 -33q28 0 57 6q155 33 220 261q36 125 36 239z" />
    <glyph glyph-name="alt.0.020" horiz-adv-x="1072" 
d="M857 459q77 -20 126 -82.5t49 -143.5q0 -96 -68.5 -164.5t-164.5 -68.5q-97 0 -165.5 68.5t-68.5 164.5q0 81 49.5 143.5t125.5 82.5v8h-408v-8q77 -20 126 -82.5t49 -143.5q0 -96 -68.5 -164.5t-164.5 -68.5q-97 0 -165.5 68.5t-68.5 164.5q0 81 49.5 143.5t125.5 82.5
v66q0 24 17 41t42 17h525q24 0 41 -17t17 -41v-66zM390 233q0 49 -34 83t-82 34q-49 0 -83 -34t-34 -83q0 -48 34 -82t83 -34q48 0 82 34t34 82zM799 117q48 0 82 34t34 82q0 49 -34 83t-82 34q-49 0 -83 -34t-34 -83q0 -48 34 -82t83 -34z" />
    <glyph glyph-name="alt.0.021" horiz-adv-x="955" 
d="M914 121l1 -61q0 -24 -16.5 -42t-41.5 -18q-37 0 -52 33q-30 -17 -68 -25q-47 -7 -64 -7q-116 0 -154 94q-53 -42 -86 -77q-18 -18 -43 -18q-12 0 -21 4q-19 7 -31 29q-30 -17 -68 -25q-44 -7 -63 -7q-64 0 -106.5 31t-56.5 88q-4 22 -4 32q0 44 27 79q55 70 223 70
q22 0 36 -1q-6 23 -18 30q-19 11 -53 11q-56 0 -95 -32q-17 -14 -37 -14q-26 0 -45 22q-13 16 -13 36q0 29 22 46q60 49 142 57q9 1 27 1q60 0 108 -25q28 -15 46.5 -40.5t25.5 -52.5t9 -41t2 -25v-85q73 57 137 84q52 29 173 29q22 0 36 -1q-6 23 -18 30q-24 12 -51 12
q-54 0 -97 -33q-17 -14 -37 -14q-28 0 -45 22q-13 16 -13 36q0 29 22 46q60 49 142 57q9 1 27 1q60 0 107 -25q28 -15 47 -40.5t26 -52.5t9 -41t2 -25v-152zM319 170q1 3 4 13q-2 0 -13 0.5t-20 0.5q-27 0 -40 -1h-12q-61 -3 -79 -23q-2 -2 -2 -7q0 -35 50 -35q17 0 37 4
q2 1 5 1q49 9 70 47zM785 170q3 7 5 13q-2 0 -13 0.5t-20 0.5q-27 0 -41 -1h-11q-15 0 -28 -3q-2 0 -6 -1.5t-7 -2.5q-15 -3 -29 -9q-4 -2 -9 -7q-2 -2 -2 -7q0 -17 14 -26t35 -9q18 0 38 4l4 1q51 10 70 47z" />
    <glyph glyph-name="alt.0.023" horiz-adv-x="780" 
d="M390 0q-35 0 -52 32l-292 584q-6 12 -6 25q0 17 9 31q16 28 49 28h584q33 0 49 -28q9 -14 9 -31q0 -13 -6 -25l-292 -584q-17 -32 -52 -32zM587 583h-394l197 -395z" />
    <glyph glyph-name="alt.0.014" horiz-adv-x="431" 
d="M351 697q18 -6 29 -21t11 -34v-584q0 -24 -17 -41t-42 -17q-24 0 -41 17t-17 41v404l-128 -175q-14 -20 -38 -23.5t-43 10.5q-20 14 -23.5 37.5t10.5 43.5l233 321q26 34 66 21z" />
    <glyph glyph-name="alt.0.039" horiz-adv-x="779" 
d="M681 0h-583q-33 0 -50 28q-8 14 -8 30q0 14 6 26l291 584q16 32 52 32q37 0 53 -32l291 -584q6 -12 6 -26q0 -16 -8 -30q-17 -28 -50 -28z" />
    <glyph glyph-name="alt.0.025" horiz-adv-x="488" 
d="M390 395h-234v-81h234q24 0 41 -17t17 -41t-17 -41t-41 -17h-234v-81h234q24 0 41 -17t17 -42q0 -24 -17 -41t-41 -17h-292q-24 0 -41 17t-17 41v584q0 24 17 41t41 17h292q24 0 41 -17t17 -41q0 -25 -17 -42t-41 -17h-234v-71h234q24 0 41 -17t17 -41t-17 -41.5
t-41 -17.5z" />
    <glyph glyph-name="alt.0.034" horiz-adv-x="917" 
d="M593 -405h-8q-29 0 -46 23q-12 15 -12 36q0 7 4 21l78 194l-217 -40q-3 -1 -10 -1q-29 0 -48 24q-11 16 -11 34q0 15 6 27l106 213l-295 -118q-9 -4 -22 -4q-40 0 -53 36q-4 9 -4 22q0 40 36 54l437 175q9 4 22 4q26 0 43 -19q15 -16 15 -40q0 -13 -6 -25l-122 -246
l206 37q3 1 10 1q27 0 45 -21q13 -14 13 -36q0 -14 -4 -23l-80 -199l135 16h8q22 0 38.5 -14t19.5 -36v-7q0 -22 -14.5 -38.5t-36.5 -19.5z" />
    <glyph glyph-name="alt.0.022" 
d="M369 303l129 -215q9 -14 9 -30q0 -32 -29 -50q-14 -8 -30 -8q-33 0 -50 28l-158 264h-84v-234q0 -24 -17 -41t-41 -17t-41 17t-17 41v584q0 24 17 41t41 17h204q50 0 99 -24q105 -52 105 -180t-105 -180q-22 -10 -32 -13zM156 583v-175h146q25 0 49 14q39 21 39 74
q0 54 -41 75q-10 5 -22 8t-19 3l-6 1h-146z" />
    <glyph glyph-name="alt.026" horiz-adv-x="752" 
d="M392 3q-13 0 -19 1q-103 5 -186.5 65t-121.5 155q-25 62 -25 131q0 152 109 256q76 71 182 91q34 7 73 7h14q11 16 24 31q17 22 45 22q21 0 38 -14q21 -18 21 -46q0 -10 -3 -19q57 -23 90.5 -67.5t33.5 -97.5v-8q-3 -72 -66 -114q-39 -27 -86 -27q-23 0 -47 8
q-26 8 -53 30q-61 47 -61 134q0 3 0.5 8t0.5 8q1 11 5 31q-78 -13 -130 -63q-73 -68 -73 -171q0 -44 17 -87q25 -62 81 -102t124 -44h12q65 0 122.5 35t87.5 94q17 32 53 32q14 0 26 -6q32 -17 32 -53q0 -14 -6 -26q-47 -92 -138 -146q-84 -48 -176 -48zM480 581
q-7 -20 -8 -34v-4q0 -32 15 -44q2 0 9.5 -5t9.5 -6q3 -1 9 -1q11 0 21 6q13 10 14 22q0 22 -18 38.5t-39 23.5q-3 1 -7 2.5t-6 1.5z" />
    <glyph glyph-name="alt.027" horiz-adv-x="682" 
d="M584 0q-20 0 -36 12.5t-21 31.5q-8 30 -23.5 70t-39 88t-58.5 87.5t-72 55.5q-18 8 -42 9v-296q0 -36 -33 -52q-12 -6 -25 -6q-20 0 -36 12q-17 14 -33.5 30t-50 53.5t-54 83t-20.5 89.5v11q7 94 106 151q6 3 15.5 8t13.5 7v197q0 24 17 41t41 17q25 0 42 -17t17 -41
v-171q46 -1 87 -19q82 -35 146 -127v317q0 24 17 41t41 17q25 0 42 -17t17 -41v-584q0 -22 -14.5 -38.5t-36.5 -18.5q-2 -1 -7 -1zM175 209v99q-19 -18 -19 -37v-5q0 -22 19 -57z" />
    <glyph glyph-name="alt.0.028" horiz-adv-x="634" 
d="M586 671q8 -14 8 -30q0 -14 -7 -27l-175 -321q-17 -30 -51 -30q-15 0 -28 7q-30 16 -30 51q0 15 7 28l127 234h-164v-525q0 -24 -17 -41t-41 -17t-41 17t-17 41v525h-59q-24 0 -41 17t-17 42q0 24 17 41t41 17h438q32 0 50 -29z" />
    <glyph glyph-name="alt.0.029" horiz-adv-x="546" 
d="M300 0h-202q-24 0 -41 17t-17 41q0 25 17 42t41 17h202q37 0 63.5 25.5t26.5 61.5q0 37 -26 62.5t-64 25.5h-54q-86 0 -146 59.5t-60 144.5t60 144.5t146 59.5h144q24 0 41 -17t17 -42q0 -24 -17 -41t-41 -17h-144q-38 0 -64 -25.5t-26 -62.5q0 -36 26.5 -61.5
t63.5 -25.5h54q86 0 146 -59.5t60 -144.5t-60 -144.5t-146 -59.5z" />
    <glyph glyph-name="alt.0.030" horiz-adv-x="604" 
d="M506 0h-408q-26 0 -43 19q-15 15 -15 38v6q0 7 3 15l204 583q14 39 55 39t55 -39l204 -583q3 -10 3 -20q0 -19 -10 -33q-17 -25 -48 -25zM274 386l98 -269h52l-122 348zM180 117h35h33l-35 95z" />
    <glyph glyph-name="alt.0.031" horiz-adv-x="954" 
d="M856 467q24 0 41 -17t17 -42v-350q0 -24 -17 -41t-41 -17t-41 17t-17 41v292h-59q0 -145 -102.5 -247.5t-246.5 -102.5q-145 0 -247.5 102.5t-102.5 247.5t102.5 247.5t247.5 102.5q112 0 202 -65t127 -168h137zM390 117q96 0 164.5 68t68.5 165t-68.5 165t-164.5 68
q-97 0 -165.5 -68t-68.5 -165t68.5 -165t165.5 -68zM856 496q-24 0 -41 17t-17 41t17 41.5t41 17.5t41 -17.5t17 -41.5t-17 -41t-41 -17z" />
    <glyph glyph-name="alt.0.032" horiz-adv-x="954" 
d="M856 700q24 0 41 -17t17 -41v-584q0 -24 -17 -41t-41 -17t-41 17t-17 41v525h-148q89 -99 89 -233q0 -145 -102.5 -247.5t-246.5 -102.5q-145 0 -247.5 102.5t-102.5 247.5t102.5 247.5t247.5 102.5h466zM390 117q96 0 164.5 68t68.5 165t-68.5 165t-164.5 68
q-97 0 -165.5 -68t-68.5 -165t68.5 -165t165.5 -68z" />
    <glyph glyph-name="alt.0.033" horiz-adv-x="750" 
d="M652 467q24 0 41 -17t17 -42v-350q0 -24 -17 -41t-41 -17t-41 17t-17 41v292h-88v-292q0 -24 -17 -41t-41 -17t-41 17t-17 41v292h-234v-292q0 -24 -17 -41t-41 -17t-41 17t-17 41v584q0 24 17 41t41 17t41 -17t17 -41v-175h234v175q0 24 17 41t41 17t41 -17t17 -41v-175
h146zM652 496q-24 0 -41 17t-17 41t17 41.5t41 17.5t41 -17.5t17 -41.5t-17 -41t-41 -17z" />
    <glyph glyph-name="a.alt3" horiz-adv-x="488" 
d="M447 122l1 -64q0 -23 -17 -40.5t-41 -17.5q-37 0 -52 32q-32 -16 -69 -24q-56 -7 -63 -7q-64 0 -106.5 31t-55.5 88q-4 15 -4 33q0 43 26 77q50 65 179 70q7 0 22 0.5t22 0.5q24 0 38 -2q-6 30 -20 39q-22 12 -50 12q-55 0 -97 -34q-16 -13 -37 -13q-27 0 -45 21
q-13 16 -13 37q0 29 21 45q62 52 143 59q9 1 26 1q62 0 109 -26q36 -20 56.5 -60.5t23.5 -62.5t3 -38v-157zM318 170l5 12q-14 2 -34 2q-27 0 -51 -1q-63 -3 -79 -23q-3 -6 -3 -8v-2q1 -2 1 -3q2 -9 4.5 -13.5t14 -10t30.5 -5.5q18 0 38 4q2 1 4 1q49 9 70 47z" />
    <glyph glyph-name="alt.0.005" horiz-adv-x="459" 
d="M337 228q13 5 24 5q37 0 53 -34q5 -10 5 -24q0 -37 -34 -53l-263 -117q-12 -5 -23 -5q-17 0 -32 9q-27 17 -27 49v554q0 24 17.5 41.5t41.5 17.5t41 -17.5t17 -41.5v-464z" />
    <glyph glyph-name="alt.0.007" horiz-adv-x="694" 
d="M390 0q-146 0 -248 102q-102 104 -102 248q0 146 102 248t248 102q145 0 247 -102q17 -19 17 -42q0 -24 -17 -41q-16 -17 -41 -17t-41 17q-70 68 -165 68q-97 0 -165 -68q-45 -44 -61 -107h432q24 0 41 -17t17 -41v-206q0 -25 -17 -42q-102 -102 -247 -102zM538 292h-374
q16 -62 61 -107q67 -69 165 -69q83 0 148 53v123z" />
    <glyph glyph-name="alt.0.008" horiz-adv-x="488" 
d="M390 700q24 0 41 -17t17 -41v-175q0 -50 -24 -99q-40 -78 -122 -98v-212q0 -24 -17 -41t-41 -17t-41 17t-17 41v212q-82 20 -122 98q-24 49 -24 99v175q0 24 17 41t41 17t41.5 -17t17.5 -41v-175q0 -25 13 -50q21 -38 74 -38t74 38q13 25 13 50v175q0 24 17.5 41t41.5 17
z" />
    <glyph glyph-name="alt.0.016" horiz-adv-x="605" 
d="M358 661l204 -583q3 -9 3 -19q0 -31 -24 -47q-15 -12 -35 -12q-18 0 -34 11l-262 191l-57 -163q-6 -18 -21.5 -28.5t-33.5 -10.5q-10 0 -19 3q-39 15 -39 56q0 10 3 19l204 583q7 17 22 28t34 11q18 0 33 -11t22 -28zM251 317l139 -102l-87 250z" />
    <glyph glyph-name="alt.0.017" horiz-adv-x="605" 
d="M562 78q3 -9 3 -19q0 -41 -39 -56q-9 -3 -19 -3q-18 0 -33.5 10.5t-21.5 28.5l-28 78l-76 -95q-17 -22 -46 -22q-28 0 -45 22l-76 95l-28 -78q-6 -18 -22 -28.5t-34 -10.5q-9 0 -18 3q-39 15 -39 56q0 10 3 19l204 583q7 17 22 28t33 11q19 0 34.5 -11t21.5 -28zM374 241
q2 3 5 5l-77 219l-76 -219q3 -2 5 -5l71 -89z" />
    </font>
</defs>
</svg>
